<?xml version="1.0" encoding="UTF-8" standalone="no"?>
<!-- Created with Inkscape (http://www.inkscape.org/) -->

<svg
   width="111.83413mm"
   height="90.000015mm"
   viewBox="0 0 111.83413 90.000015"
   version="1.1"
   id="svg1"
   xml:space="preserve"
   xmlns="http://www.w3.org/2000/svg"
   xmlns:svg="http://www.w3.org/2000/svg"><defs
     id="defs1" /><g
     id="layer6"
     transform="translate(884.16095,313.04845)"><g
       id="g243"
       transform="matrix(1.0201503,0,0,0.9181886,17.100548,-346.56524)"
       style="stroke-width:1.03324"><g
         id="g232"
         style="opacity:1;stroke-width:1.03324"><path
           style="baseline-shift:baseline;display:inline;overflow:visible;vector-effect:none;stroke-width:1.03324;stroke-linecap:round;stroke-linejoin:round;stroke-miterlimit:3;paint-order:fill markers stroke;enable-background:accumulate;stop-color:#000000;stop-opacity:1"
           d="m -832.19436,37.997168 c 3.96327,-0.0298 5.59047,2.56986 5.44829,6.28754 l 1.06233,20.27872 c -0.0212,1.72041 -3.02464,1.69449 -3.37248,-0.11597 -2.6691,-13.72285 -5.97554,-19.82381 -17.7482,-22.88085 -2.59279,-0.70325 -1.87036,-3.5694 -0.0155,-3.52766 z"
           id="path231" /><path
           style="baseline-shift:baseline;display:inline;overflow:visible;vector-effect:none;stroke-width:1.03324;stroke-linecap:round;stroke-linejoin:round;stroke-miterlimit:3;paint-order:fill markers stroke;enable-background:accumulate;stop-color:#000000;stop-opacity:1"
           d="m -832.20508,36.527344 -14.58203,0.04102 c -1.68846,-0.038 -2.99053,1.311804 -3.1543,2.792969 -0.16376,1.481166 0.93521,3.132238 2.75196,3.625 a 1.470467,1.470467 0 0 0 0.0156,0.0039 c 5.68844,1.477132 9.05619,3.559962 11.46875,6.88086 2.41205,3.320199 3.88467,8.065986 5.20508,14.853515 0.32162,1.673983 1.88241,2.544437 3.2207,2.574219 0.66915,0.01489 1.3609,-0.136981 1.97461,-0.583984 0.61372,-0.447003 1.08123,-1.274955 1.0918,-2.132813 a 1.470467,1.470467 0 0 0 -0.002,-0.0957 l -1.0625,-20.279297 v 0.134766 c 0.0798,-2.085965 -0.32141,-4.036195 -1.50391,-5.521485 -1.18143,-1.483946 -3.11611,-2.30876 -5.41797,-2.292968 z m 0.0156,2.939453 a 1.470467,1.470467 0 0 0 0.006,0 c 1.65867,-0.01247 2.51714,0.449036 3.10351,1.185547 0.58637,0.736511 0.92764,1.944456 0.86524,3.576172 a 1.470467,1.470467 0 0 0 0,0.132812 l 1.04687,19.992188 c -0.0263,0.0042 -0.0131,0.0066 -0.0469,0.0059 -0.25569,-0.0057 -0.37222,-0.05298 -0.39844,-0.189453 a 1.470467,1.470467 0 0 0 0,-0.0039 c -1.34848,-6.933032 -2.86179,-12.098883 -5.71289,-16.023438 -2.84842,-3.920863 -7.01884,-6.413998 -13.09375,-7.994141 l -0.002,-0.002 c -0.76648,-0.209182 -0.61058,-0.344074 -0.59766,-0.460937 0.013,-0.117287 -3.8e-4,-0.179526 0.16601,-0.175781 a 1.470467,1.470467 0 0 0 0.0371,0 z"
           id="path232" /></g><g
         id="g234"
         style="opacity:1;stroke-width:1.03324"><path
           style="baseline-shift:baseline;display:inline;overflow:visible;vector-effect:none;stroke-width:1.03324;stroke-linecap:round;stroke-linejoin:round;stroke-miterlimit:3;paint-order:fill markers stroke;enable-background:accumulate;stop-color:#000000;stop-opacity:1"
           d="m -832.20288,133.0257 c 3.96325,0.0298 5.59046,-2.56986 5.44828,-6.28753 l 1.06233,-20.27873 c -0.0212,-1.72041 -3.02465,-1.6945 -3.37247,0.11597 -2.66911,13.72285 -5.97555,19.82381 -17.74818,22.88085 -2.59277,0.70325 -1.87036,3.5694 -0.0153,3.52766 z"
           id="path233" /><path
           style="baseline-shift:baseline;display:inline;overflow:visible;vector-effect:none;stroke-width:1.03324;stroke-linecap:round;stroke-linejoin:round;stroke-miterlimit:3;paint-order:fill markers stroke;enable-background:accumulate;stop-color:#000000;stop-opacity:1"
           d="m -827.28906,103.72266 c -1.3383,0.0298 -2.89715,0.90218 -3.21875,2.57617 -1.32042,6.78753 -2.79499,11.53136 -5.20703,14.85156 -2.41256,3.3209 -5.77838,5.40568 -11.4668,6.88281 a 1.470467,1.470467 0 0 0 -0.0156,0.004 c -1.81674,0.49276 -2.91576,2.14186 -2.75195,3.62305 0.16381,1.48119 1.46582,2.83096 3.1543,2.79296 l -0.0371,0.002 14.61719,0.041 c 2.30459,0.0173 4.24327,-0.80768 5.42578,-2.29297 1.1825,-1.48528 1.58368,-3.43552 1.5039,-5.52148 l -0.002,0.13281 1.0625,-20.27734 a 1.470467,1.470467 0 0 0 0.002,-0.0957 c -0.0106,-0.85786 -0.47808,-1.68581 -1.09179,-2.13282 -0.61372,-0.447 -1.30546,-0.60082 -1.97461,-0.58593 z m 0.0664,2.9414 c 0.0337,-7.5e-4 0.0206,0.002 0.0469,0.006 l -1.04688,19.99219 a 1.470467,1.470467 0 0 0 -0.002,0.13281 c 0.0624,1.63171 -0.27886,2.83966 -0.86523,3.57617 -0.58637,0.73651 -1.44291,1.19607 -3.10157,1.1836 a 1.470467,1.470467 0 0 0 -0.008,0 l -14.625,-0.041 a 1.470467,1.470467 0 0 0 -0.0371,0 c -0.16658,0.004 -0.15305,-0.0585 -0.16601,-0.17578 -0.013,-0.11726 -0.17642,-0.2524 0.59961,-0.46289 6.07522,-1.58013 10.24328,-4.0751 13.09179,-7.99609 2.8511,-3.92456 4.36636,-9.09041 5.71485,-16.02344 a 1.470467,1.470467 0 0 0 0,-0.002 c 0.0262,-0.13648 0.14275,-0.18377 0.39843,-0.18946 z"
           id="path234" /></g><g
         id="g236"
         style="opacity:1;stroke-width:1.03324"><path
           style="baseline-shift:baseline;display:inline;overflow:visible;vector-effect:none;stroke-width:1.03324;stroke-linecap:round;stroke-linejoin:round;stroke-miterlimit:3;paint-order:fill markers stroke;enable-background:accumulate;stop-color:#000000;stop-opacity:1"
           d="m -872.40768,38.000288 c -3.96326,-0.0298 -9.11731,-0.355 -9.55602,3.06574 -0.4387,3.42073 4.10693,3.78799 4.10693,10.46049 l -0.003,15.68587 c 0.0212,1.7204 3.02464,1.69449 3.37248,-0.11598 2.66911,-13.72285 4.91722,-22.46964 16.68988,-25.52668 2.59278,-0.70324 1.87035,-3.5694 0.0155,-3.52766 z"
           id="path235" /><path
           style="baseline-shift:baseline;display:inline;overflow:visible;vector-effect:none;stroke-width:1.03324;stroke-linecap:round;stroke-linejoin:round;stroke-miterlimit:3;paint-order:fill markers stroke;enable-background:accumulate;stop-color:#000000;stop-opacity:1"
           d="m -872.4043,36.529297 c -1.94478,-0.01485 -4.27682,-0.126862 -6.37304,0.263672 -1.0494,0.195506 -2.06584,0.516578 -2.94141,1.166015 -0.87557,0.649437 -1.54687,1.701524 -1.70312,2.919922 -0.15086,1.176242 0.16951,2.261226 0.64648,3.072266 0.47697,0.811039 1.04919,1.412843 1.55273,2.042969 1.00708,1.26025 1.89649,2.530837 1.89649,5.533203 l -0.004,15.685547 a 1.470467,1.470467 0 0 0 0,0.01758 c 0.0106,0.857857 0.47808,1.685811 1.0918,2.132812 0.61372,0.447002 1.30546,0.600829 1.97461,0.585938 1.33701,-0.02975 2.89507,-0.901423 3.21875,-2.572266 v -0.002 c 1.33081,-6.841991 2.56728,-12.3339 4.77539,-16.330078 2.20833,-3.996581 5.26361,-6.604232 10.8418,-8.052735 a 1.470467,1.470467 0 0 0 0.0156,-0.0039 c 1.81675,-0.492756 2.91572,-2.141884 2.75195,-3.623047 -0.16376,-1.481162 -1.46583,-2.830964 -3.15429,-2.792968 l -14.58203,-0.04297 z m -0.0137,2.941406 a 1.470467,1.470467 0 0 0 0.006,0 l 14.62695,0.04102 a 1.470467,1.470467 0 0 0 0.0371,0 c 0.16639,-0.0037 0.1511,0.05849 0.16407,0.175781 0.013,0.117293 0.17837,0.252407 -0.59766,0.462891 l 0.0156,-0.0039 c -6.19447,1.608538 -10.15156,4.904777 -12.67773,9.476563 -2.52617,4.571786 -3.74779,10.313462 -5.08594,17.193359 a 1.470467,1.470467 0 0 0 -0.002,0.002 c -0.0262,0.136486 -0.1408,0.183763 -0.39648,0.189453 -0.0431,9.6e-4 -0.0302,-0.0017 -0.0606,-0.0078 l 0.002,-15.472656 c 0,-3.670135 -1.383,-5.922454 -2.53906,-7.369141 -0.57803,-0.723343 -1.0625,-1.270801 -1.31445,-1.699219 -0.25196,-0.428417 -0.33413,-0.670955 -0.26563,-1.205078 0.0631,-0.491972 0.20101,-0.682854 0.53906,-0.933594 0.33805,-0.250739 0.93915,-0.487704 1.72852,-0.634765 1.57873,-0.294123 3.80326,-0.23001 5.82031,-0.214844 z"
           id="path236" /></g><g
         id="g238"
         style="opacity:1;stroke-width:1.03324"><path
           style="baseline-shift:baseline;display:inline;overflow:visible;vector-effect:none;stroke-width:1.03324;stroke-linecap:round;stroke-linejoin:round;stroke-miterlimit:3;paint-order:fill markers stroke;enable-background:accumulate;stop-color:#000000;stop-opacity:1"
           d="m -872.40768,133.0257 c -3.96326,0.0298 -9.11731,0.355 -9.55602,-3.06574 -0.4387,-3.42073 4.10693,-3.78799 4.10693,-10.46049 l -0.003,-15.68586 c 0.0212,-1.72041 3.02464,-1.6945 3.37248,0.11597 2.66911,13.72285 4.91722,22.46964 16.68988,25.52668 2.59278,0.70325 1.87035,3.5694 0.0155,3.52766 z"
           id="path237" /><path
           style="baseline-shift:baseline;display:inline;overflow:visible;vector-effect:none;stroke-width:1.03324;stroke-linecap:round;stroke-linejoin:round;stroke-miterlimit:3;paint-order:fill markers stroke;enable-background:accumulate;stop-color:#000000;stop-opacity:1"
           d="m -876.26367,101.07813 c -0.66915,-0.0149 -1.36089,0.13698 -1.97461,0.58398 -0.61372,0.447 -1.08123,1.27495 -1.0918,2.13281 a 1.470467,1.470467 0 0 0 0,0.0195 l 0.004,15.68555 c 0,3.00237 -0.88941,4.271 -1.89649,5.53125 -0.50354,0.63013 -1.07576,1.23388 -1.55273,2.04492 -0.47697,0.81104 -0.79734,1.89407 -0.64648,3.07031 0.15625,1.2184 0.82755,2.27049 1.70312,2.91993 0.87557,0.64943 1.89201,0.97051 2.94141,1.16601 2.09878,0.39101 4.43465,0.27831 6.38086,0.26367 l 14.61914,-0.041 -0.0371,-0.002 c 1.68846,0.038 2.99053,-1.3118 3.15429,-2.79296 0.16377,-1.48117 -0.9352,-3.13029 -2.75195,-3.62305 a 1.470467,1.470467 0 0 0 -0.0156,-0.004 c -5.57819,-1.4485 -8.63347,-4.0542 -10.8418,-8.05078 -2.20784,-3.99568 -3.44282,-9.48926 -4.77344,-16.33008 l -0.002,-0.002 c -0.3229,-1.67203 -1.88125,-2.5425 -3.21875,-2.57226 z m -0.0644,2.93945 c 0.25568,0.006 0.37026,0.053 0.39648,0.18945 a 1.470467,1.470467 0 0 0 0.002,0.004 c 1.33815,6.87989 2.55977,12.62157 5.08594,17.19336 2.52617,4.57178 6.48326,7.86607 12.67773,9.47461 l -0.0156,-0.004 c 0.77603,0.21049 0.61062,0.3456 0.59766,0.46289 -0.013,0.11729 0.002,0.17953 -0.16407,0.17578 a 1.470467,1.470467 0 0 0 -0.0371,0 l -14.62695,0.041 a 1.470467,1.470467 0 0 0 -0.006,0 c -2.01705,0.0152 -4.24158,0.0812 -5.82031,-0.21289 -0.78937,-0.14706 -1.39047,-0.38598 -1.72852,-0.63672 -0.33805,-0.25074 -0.47596,-0.43967 -0.53906,-0.93164 -0.0685,-0.53413 0.0137,-0.77862 0.26563,-1.20703 0.25195,-0.42842 0.73642,-0.97588 1.31445,-1.69922 1.15606,-1.44669 2.53906,-3.69706 2.53906,-7.36719 l -0.002,-15.47461 c 0.0304,-0.006 0.0174,-0.009 0.0606,-0.008 z"
           id="path238" /></g><g
         id="g240"
         style="opacity:1;stroke-width:1.03324"><path
           style="baseline-shift:baseline;display:inline;overflow:visible;vector-effect:none;stroke-width:1.03324;stroke-linecap:round;stroke-linejoin:round;stroke-miterlimit:3;paint-order:fill markers stroke;enable-background:accumulate;stop-color:#000000;stop-opacity:1"
           d="m -862.89687,84.978738 c 0,0.50291 0.40647,0.98536 1,1.07544 10,1.51767 12,4.60338 14,15.917662 0.14185,0.80244 0.5675,1.02857 1,1.02857 0.37521,0 2.05833,-0.22522 2.05833,-1.02857 0,-11.314152 0.0768,-22.628692 0,-33.942852 0,-0.15743 -1.23951,-1.02857 -2.05833,-1.02857 -0.69192,0 -0.91567,0.55152 -1,1.02857 -2,11.31429 -4.00003,14.4 -14.00003,15.91236 0,0 -0.99997,0.15284 -0.99997,1.03739 z"
           id="path239" /><path
           style="baseline-shift:baseline;display:inline;overflow:visible;vector-effect:none;stroke-width:1.03324;stroke-linecap:round;stroke-linejoin:round;stroke-miterlimit:3;paint-order:fill markers stroke;enable-background:accumulate;stop-color:#000000;stop-opacity:1"
           d="m -846.89648,65.529297 c -0.73662,0 -1.50567,0.409201 -1.89063,0.90625 -0.38495,0.497049 -0.49453,0.975505 -0.55859,1.33789 -0.98937,5.596979 -1.99185,8.939994 -3.67578,10.939454 -1.68394,1.999459 -4.22757,3.039152 -9.09571,3.77539 a 1.470467,1.470467 0 0 0 -0.002,0 c 0,0 -0.50419,0.06445 -1.0293,0.376953 -0.5251,0.312507 -1.21875,1.116949 -1.21875,2.113282 0,1.295153 0.98492,2.337296 2.25,2.529296 4.86823,0.738836 7.41158,1.779045 9.09571,3.779297 1.68412,2.000253 2.68641,5.344431 3.67578,10.941411 0.11068,0.62615 0.38314,1.23438 0.86914,1.66211 0.48599,0.42772 1.10758,0.58007 1.58008,0.58007 0.48179,0 0.96154,-0.0628 1.63671,-0.28906 0.33759,-0.11313 0.70267,-0.25985 1.08399,-0.57226 0.38131,-0.31242 0.80664,-0.92247 0.80664,-1.63672 0,-11.30425 0.0768,-22.61916 0,-33.943363 0,-0.49219 -0.14986,-0.676813 -0.23242,-0.810547 -0.0826,-0.133734 -0.14668,-0.205541 -0.20508,-0.269531 -0.11681,-0.127982 -0.21306,-0.209804 -0.31641,-0.292969 -0.20669,-0.166329 -0.43618,-0.320837 -0.70312,-0.474609 -0.53389,-0.307545 -1.13948,-0.652344 -2.07031,-0.652344 z m 0.36718,3.099609 c 0.10748,0.03888 0.11194,0.03552 0.22071,0.0957 0.068,10.886922 0.002,21.784018 0,32.689454 -0.0943,0.0213 -0.10705,0.0245 -0.20118,0.0391 -0.99225,-5.547718 -1.9878,-9.359805 -4.26171,-12.060555 -2.03785,-2.420372 -5.17329,-3.594296 -9.3418,-4.394531 4.1679,-0.798128 7.30399,-1.970989 9.3418,-4.390625 2.26131,-2.685029 3.25537,-6.481943 4.24218,-11.978516 z m -15.11132,16.75586 c -5.9e-4,4.64e-4 -0.003,0.0075 -0.004,0.0078 -0.0251,0.01495 -0.0293,0.002 -0.0293,0.002 0.0132,-0.002 0.02,-0.0078 0.0332,-0.0098 z"
           id="path240" /></g><g
         id="g242"
         style="opacity:1;stroke-width:1.03324"><path
           style="baseline-shift:baseline;display:inline;overflow:visible;vector-effect:none;stroke-width:1.03324;stroke-linecap:round;stroke-linejoin:round;stroke-miterlimit:3;paint-order:fill markers stroke;enable-background:accumulate;stop-color:#000000;stop-opacity:1"
           d="m -820.50345,38.000408 c 14.02938,0 37.68119,2.00001 37.68119,21.99959 0,20.6937 -25.51278,20.31448 -30.46929,20.19413 -6.35329,-0.15426 -8.47641,2.50669 -8.47641,4.80628 0,2.20267 1,4.86604 8.40503,4.81462 9.42886,-0.0655 30.55851,1.18538 30.55851,23.182272 0,7.41934 -0.87661,12.43465 4.97066,15.00311 3.16474,1.39013 3.48467,2.78349 0.25156,4.12334 -2.58297,1.07042 -4.22223,0.87666 -7.25156,0.87666 -11.96761,0 -16.57327,-10 -16.57327,-20 0,-10 -4.62665,-17.654032 -11.9559,-20.000002 -5.03908,-1.36497 -9.97065,-2.5 -9.97065,-8 0,-5.5 5.75417,-5.93153 10.04203,-6.67671 10.5031,-2.13076 11.76639,-8.32329 11.76639,-18.3237 0,-12.99958 -8.2629,-18.20822 -18.97829,-19.24403 -2.01423,-0.19471 -2.30096,-0.83794 -2.30096,-1.50981 0,-0.52715 0.71093,-1.24575 2.30096,-1.24575 z"
           id="path241" /><path
           style="baseline-shift:baseline;display:inline;overflow:visible;vector-effect:none;stroke-width:1.03324;stroke-linecap:round;stroke-linejoin:round;stroke-miterlimit:3;paint-order:fill markers stroke;enable-background:accumulate;stop-color:#000000;stop-opacity:1"
           d="m -820.50391,36.529297 c -1.01651,0 -1.8732,0.223419 -2.54882,0.664062 -0.67563,0.440643 -1.22266,1.128187 -1.22266,2.052735 0,0.545095 0.23185,1.487077 0.92578,2.064453 0.69394,0.577376 1.55027,0.796571 2.70508,0.908203 5.15879,0.498677 9.58091,1.998275 12.66601,4.767578 3.08511,2.769304 4.98243,6.825408 4.98243,13.013672 0,4.938293 -0.35765,8.763588 -1.77149,11.423828 -1.41301,2.658669 -3.82378,4.444232 -8.80859,5.457031 -0.003,5.99e-4 -0.005,0.0014 -0.008,0.002 -2.07554,0.358554 -4.66418,0.632382 -6.93946,1.65625 -2.28908,1.030081 -4.28125,3.198182 -4.28125,6.460938 0,3.189454 1.64159,5.482304 3.79883,6.804687 2.14153,1.312756 4.71798,1.927684 7.20313,2.59961 6.61125,2.120878 10.92578,9.053276 10.92578,18.595706 0,5.22573 1.1817,10.5087 4.06836,14.59766 2.88665,4.08895 7.58127,6.87304 13.97461,6.87304 2.96663,0 4.97025,0.1904 7.81445,-0.98828 0.89946,-0.37275 1.61441,-0.75759 2.19531,-1.28515 0.5809,-0.52757 1.07213,-1.36388 0.97852,-2.26758 -0.0936,-0.9037 -0.63929,-1.54369 -1.22852,-2.02539 -0.58923,-0.48171 -1.30233,-0.86977 -2.16797,-1.25 -2.57623,-1.13164 -3.38273,-2.44349 -3.83008,-4.63086 -0.44734,-2.18738 -0.26171,-5.25782 -0.26171,-9.02539 0,-11.46923 -5.75329,-17.965502 -12.58594,-21.195319 -6.83266,-3.229816 -14.66605,-3.490286 -19.45313,-3.457031 -3.52579,0.02448 -5.28599,-0.63295 -6.05468,-1.244141 -0.7687,-0.61119 -0.86915,-1.222733 -0.86914,-2.101562 0,-0.697299 0.25564,-1.434345 1.23046,-2.121094 0.97482,-0.686748 2.7707,-1.286897 5.73829,-1.214844 2.50199,0.06075 10.29229,0.219036 17.62109,-2.375 3.6644,-1.297017 7.24622,-3.29911 9.93555,-6.427734 2.68932,-3.128624 4.41992,-7.385782 4.41992,-12.861328 0,-5.289699 -1.60042,-9.545789 -4.24414,-12.800781 -2.64372,-3.254993 -6.27173,-5.504019 -10.26953,-7.06836 -7.99561,-3.128681 -17.55412,-3.601562 -24.63868,-3.601562 z m 2.03516,3.050781 c 6.68086,0.09688 14.83526,0.668922 21.53125,3.289063 3.66882,1.435609 6.82918,3.438702 9.05859,6.183593 2.22942,2.744891 3.58594,6.237175 3.58594,10.947266 0,4.871304 -1.45977,8.326745 -3.70898,10.943359 -2.24921,2.616615 -5.35414,4.39242 -8.6875,5.572266 -4.57852,1.620572 -8.92289,1.973467 -12.36719,2.085937 3.27713,-1.302959 5.52995,-3.249657 6.88477,-5.798828 1.84357,-3.468817 2.11718,-7.740617 2.11718,-12.802734 0,-6.811316 -2.23379,-11.859261 -5.95898,-15.203125 -3.29132,-2.954401 -7.65676,-4.51096 -12.45508,-5.216797 z m 4.13477,51.611328 c 0.36597,0.01123 0.58529,0.09649 0.98046,0.09375 4.64179,-0.03225 12.08835,0.299263 18.17774,3.177735 6.08938,2.878471 10.90039,8.007489 10.90039,18.535159 0,3.65176 -0.2539,6.798 0.32227,9.61523 0.57616,2.81723 2.2563,5.2956 5.52734,6.73242 0.68005,0.29872 1.14306,0.58245 1.41406,0.79297 -0.21856,0.1638 -0.52837,0.37647 -1.13281,0.62695 -2.32175,0.96217 -3.59743,0.76368 -6.68945,0.76368 -5.57428,0 -9.16419,-2.21591 -11.57227,-5.62696 -2.40808,-3.41104 -3.53125,-8.12807 -3.53125,-12.90234 0,-10.45351 -4.93409,-18.82613 -12.97656,-21.400391 a 1.470467,1.470467 0 0 0 -0.0645,-0.01758 c -0.47643,-0.129054 -0.89413,-0.262741 -1.35546,-0.390625 z"
           id="path242" /></g></g></g></svg>
