<?xml version="1.0" encoding="UTF-8" standalone="no"?>
<!-- Created with Inkscape (http://www.inkscape.org/) -->

<svg
   width="107.43853mm"
   height="95.819847mm"
   viewBox="0 0 107.43853 95.819847"
   version="1.1"
   id="svg1"
   xml:space="preserve"
   xmlns="http://www.w3.org/2000/svg"
   xmlns:svg="http://www.w3.org/2000/svg"><defs
     id="defs1" /><g
     id="layer4"
     transform="translate(1140.1388,306.23974)"><g
       id="g750"><path
         style="baseline-shift:baseline;display:inline;overflow:visible;vector-effect:none;stroke-width:0.75;stroke-linecap:round;stroke-linejoin:round;stroke-miterlimit:3;stroke-dasharray:none;paint-order:fill markers stroke;enable-background:accumulate;stop-color:#000000"
         d="m -1089.965,-305.84576 c 3.9633,-0.0298 5.5905,2.56986 5.4483,6.28754 l 1.0623,20.27872 c -0.021,1.72041 -3.0246,1.69449 -3.3725,-0.11597 -2.6691,-13.72285 -5.9755,-19.82381 -17.7482,-22.88085 -2.5927,-0.70325 -1.8703,-3.5694 -0.015,-3.52766 z"
         id="path668" /><g
         id="g677"
         style="stroke-width:0.75;stroke-dasharray:none"
         transform="translate(-120.18721,-465.84251)"><path
           style="baseline-shift:baseline;display:inline;overflow:visible;vector-effect:none;stroke-linecap:round;stroke-linejoin:round;stroke-miterlimit:3;paint-order:fill markers stroke;enable-background:accumulate;stop-color:#000000;stop-opacity:1"
           d="m -969.7863,255.02528 c 3.96325,0.0298 5.59046,-2.56986 5.44828,-6.28753 l 1.06233,-20.27873 c -0.0212,-1.72041 -3.02465,-1.6945 -3.37247,0.11597 -2.66911,13.72285 -5.97555,19.82381 -17.74818,22.88085 -2.59277,0.70325 -1.87036,3.5694 -0.0153,3.52766 z"
           id="path676" /><path
           style="baseline-shift:baseline;display:inline;overflow:visible;vector-effect:none;stroke-linecap:round;stroke-linejoin:round;stroke-miterlimit:3;paint-order:fill markers stroke;enable-background:accumulate;stop-color:#000000;stop-opacity:1"
           d="m -964.84766,226.81836 c -0.93504,0.0208 -1.95639,0.58424 -2.16796,1.68555 -1.33101,6.84316 -2.82059,11.74527 -5.39649,15.29101 -2.5759,3.54575 -6.24228,5.78342 -12.07812,7.29883 a 0.3750375,0.3750375 0 0 0 -0.004,0 c -1.4291,0.38762 -2.0588,1.47411 -1.95117,2.44727 0.10762,0.97315 0.92136,1.84359 2.04297,1.81835 l 14.61523,0.041 c 2.0629,0.015 3.59847,-0.6749 4.55859,-1.88086 0.96046,-1.20638 1.33893,-2.88011 1.26563,-4.79687 v 0.0352 l 1.0625,-20.27929 a 0.3750375,0.3750375 0 0 0 0,-0.0234 c -0.007,-0.5392 -0.26807,-0.99037 -0.64063,-1.26172 -0.37255,-0.27135 -0.83911,-0.3854 -1.30664,-0.375 z m 0.0156,0.75 c 0.32946,-0.007 0.64023,0.0813 0.84766,0.23242 0.20669,0.15054 0.32726,0.3412 0.33203,0.66016 l -1.06055,20.25781 a 0.3750375,0.3750375 0 0 0 0,0.0332 c 0.0689,1.80091 -0.2951,3.28537 -1.10352,4.30078 -0.80841,1.01542 -2.06754,1.61194 -3.96679,1.59766 a 0.3750375,0.3750375 0 0 0 -0.002,0 l -14.625,-0.041 a 0.3750375,0.3750375 0 0 0 -0.01,0 c -0.73345,0.0165 -1.21015,-0.52704 -1.2793,-1.15234 -0.0692,-0.62529 0.23672,-1.32304 1.40039,-1.63867 5.93461,-1.54164 9.80697,-3.88313 12.49414,-7.58203 2.68775,-3.69971 4.18729,-8.71016 5.52539,-15.58985 0.13625,-0.70916 0.78834,-1.06346 1.44727,-1.07812 z"
           id="path677" /></g><g
         id="g679"
         style="stroke-width:0.75;stroke-dasharray:none"
         transform="translate(-120.18721,-465.84251)"><path
           style="baseline-shift:baseline;display:inline;overflow:visible;vector-effect:none;stroke-linecap:round;stroke-linejoin:round;stroke-miterlimit:3;paint-order:fill markers stroke;enable-background:accumulate;stop-color:#000000;stop-opacity:1"
           d="m -1009.9911,159.99987 c -3.9633,-0.0298 -9.1174,-0.355 -9.5561,3.06574 -0.4387,3.42073 4.107,3.78799 4.107,10.46049 v 15.68587 c 0.021,1.7204 3.0246,1.69449 3.3724,-0.11598 2.6692,-13.72285 4.9173,-22.46964 16.68997,-25.52668 2.59278,-0.70324 1.87035,-3.5694 0.0155,-3.52766 z"
           id="path678" /><path
           style="baseline-shift:baseline;display:inline;overflow:visible;vector-effect:none;stroke-linecap:round;stroke-linejoin:round;stroke-miterlimit:3;paint-order:fill markers stroke;enable-background:accumulate;stop-color:#000000;stop-opacity:1"
           d="m -1009.9902,159.625 c -1.9722,-0.0149 -4.2655,-0.10872 -6.17,0.24609 -0.9525,0.17747 -1.8148,0.46587 -2.4902,0.9668 -0.6754,0.50093 -1.148,1.23187 -1.2695,2.17969 -0.1202,0.93707 0.1127,1.70843 0.5058,2.37695 0.3932,0.66852 0.9316,1.25117 1.4629,1.91602 1.0626,1.32969 2.1367,2.96375 2.1367,6.21484 v 15.6875 a 0.3750375,0.3750375 0 0 0 0,0.004 c 0.01,0.5392 0.2681,0.9884 0.6407,1.25976 0.3725,0.27136 0.8371,0.38736 1.3047,0.37696 0.9345,-0.0208 1.9575,-0.58543 2.1699,-1.68555 v -0.002 c 1.3335,-6.85578 2.5641,-12.44194 4.8906,-16.65235 2.3267,-4.21083 5.7177,-7.07392 11.5254,-8.58203 a 0.3750375,0.3750375 0 0 0 0.004,0 c 1.42911,-0.38762 2.05682,-1.47411 1.94922,-2.44727 -0.10759,-0.97315 -0.91949,-1.84359 -2.04101,-1.81835 l -14.61721,-0.041 z m 0,0.75 14.62892,0.041 a 0.3750375,0.3750375 0 0 0 0.01,0 c 0.73333,-0.0165 1.21016,0.52508 1.2793,1.15039 0.0691,0.6253 -0.23867,1.325 -1.40234,1.64062 h 0.004 c -5.96498,1.54893 -9.58448,4.58778 -11.99218,8.94531 -2.4078,4.35754 -3.6352,10.00496 -4.9707,16.8711 a 0.3750375,0.3750375 0 0 0 0,0.002 c -0.1363,0.70916 -0.7903,1.06346 -1.4493,1.07813 -0.3294,0.007 -0.6402,-0.0814 -0.8476,-0.23243 -0.2074,-0.15107 -0.3281,-0.34306 -0.3321,-0.66406 v -15.68164 c 0,-3.42141 -1.2001,-5.30635 -2.3007,-6.68359 -0.5503,-0.68862 -1.0666,-1.25524 -1.4024,-1.82618 -0.3357,-0.57093 -0.5074,-1.12904 -0.4082,-1.90234 0.098,-0.76255 0.4344,-1.27263 0.9727,-1.67187 0.5382,-0.39925 1.2954,-0.66888 2.1816,-0.83399 1.7725,-0.33021 4.0367,-0.24739 6.0274,-0.23242 z"
           id="path679" /></g><g
         id="g681"
         style="stroke-width:0.75;stroke-dasharray:none"
         transform="translate(-120.18721,-465.84251)"><path
           style="baseline-shift:baseline;display:inline;overflow:visible;vector-effect:none;stroke-linecap:round;stroke-linejoin:round;stroke-miterlimit:3;paint-order:fill markers stroke;enable-background:accumulate;stop-color:#000000;stop-opacity:1"
           d="m -1009.9911,255.02528 c -3.9633,0.0298 -9.1174,0.355 -9.5561,-3.06574 -0.4387,-3.42073 4.107,-3.78799 4.107,-10.46049 v -15.68586 c 0.021,-1.72041 3.0246,-1.6945 3.3724,0.11597 2.6692,13.72285 4.9173,22.46964 16.68997,25.52668 2.59278,0.70325 1.87035,3.5694 0.0155,3.52766 z"
           id="path680" /><path
           style="baseline-shift:baseline;display:inline;overflow:visible;vector-effect:none;stroke-linecap:round;stroke-linejoin:round;stroke-miterlimit:3;paint-order:fill markers stroke;enable-background:accumulate;stop-color:#000000;stop-opacity:1"
           d="m -1013.8691,224.17187 c -0.4676,-0.0104 -0.9322,0.10365 -1.3047,0.375 -0.3726,0.27136 -0.6341,0.72252 -0.6407,1.26172 a 0.3750375,0.3750375 0 0 0 0,0.004 V 241.5 c 0,3.25109 -1.0741,4.88515 -2.1367,6.21484 -0.5313,0.66485 -1.0697,1.2475 -1.4629,1.91602 -0.3931,0.66852 -0.626,1.43988 -0.5058,2.37695 0.1215,0.94782 0.5941,1.67876 1.2695,2.17969 0.6754,0.50093 1.5377,0.78934 2.4902,0.9668 1.9051,0.35492 4.1993,0.26092 6.1719,0.24609 l 14.61721,-0.041 c 1.12152,0.0252 1.93342,-0.8452 2.04101,-1.81835 0.1076,-0.97316 -0.52011,-2.05965 -1.94922,-2.44727 a 0.3750375,0.3750375 0 0 0 -0.004,0 c -5.8077,-1.50811 -9.1987,-4.3712 -11.5254,-8.58203 -2.3265,-4.21041 -3.5571,-9.79657 -4.8906,-16.65235 v -0.002 c -0.2124,-1.10012 -1.2354,-1.66475 -2.1699,-1.68555 z m -0.016,0.75 c 0.659,0.0147 1.313,0.36897 1.4493,1.07813 1.3355,6.86614 2.5629,12.51551 4.9707,16.87305 2.4077,4.35753 6.0272,7.39638 11.99214,8.94531 h -0.004 c 1.16367,0.31563 1.47148,1.01337 1.40234,1.63867 -0.0691,0.6253 -0.54597,1.16885 -1.2793,1.15234 a 0.3750375,0.3750375 0 0 0 -0.01,0 l -14.62888,0.041 c -1.9907,0.015 -4.2549,0.0978 -6.0274,-0.23242 -0.8862,-0.16511 -1.6434,-0.43474 -2.1816,-0.83399 -0.5383,-0.39924 -0.8749,-0.90932 -0.9727,-1.67187 -0.099,-0.7733 0.072,-1.33141 0.4082,-1.90234 0.3358,-0.57094 0.8521,-1.13755 1.4024,-1.82618 1.1006,-1.37724 2.3007,-3.26218 2.3007,-6.68359 v -15.68164 c 0,-0.321 0.1247,-0.51299 0.3321,-0.66406 0.2074,-0.15107 0.5182,-0.23976 0.8476,-0.23243 z"
           id="path681" /></g><g
         id="g695"
         style="stroke-width:0.75;stroke-dasharray:none"
         transform="translate(-120.18721,-465.84251)"><path
           style="baseline-shift:baseline;display:inline;overflow:visible;vector-effect:none;stroke-linecap:round;stroke-linejoin:round;stroke-miterlimit:3;paint-order:fill markers stroke;enable-background:accumulate;stop-color:#000000;stop-opacity:1"
           d="m -1000.4803,206.97832 c 0,0.50291 0.4065,0.98536 1.00001,1.07544 10,1.51767 12,4.60338 14,15.91766 0.14185,0.80244 0.5675,1.02857 1,1.02857 0.37521,0 2.05833,-0.22522 2.05833,-1.02857 0,-11.31415 0.0768,-22.62869 0,-33.94285 0,-0.15743 -1.23951,-1.02857 -2.05833,-1.02857 -0.69192,0 -0.91567,0.55152 -1,1.02857 -2,11.31429 -4.00003,14.4 -14.00003,15.91236 0,0 -0.99998,0.15284 -0.99998,1.03739 z"
           id="path694" /><path
           style="baseline-shift:baseline;display:inline;overflow:visible;vector-effect:none;stroke-linecap:round;stroke-linejoin:round;stroke-miterlimit:3;paint-order:fill markers stroke;enable-background:accumulate;stop-color:#000000;stop-opacity:1"
           d="m -984.48047,188.625 c -0.44559,0 -0.8113,0.20656 -1.02344,0.48047 -0.21213,0.27391 -0.29795,0.58731 -0.3457,0.85742 -0.99729,5.6418 -1.99857,9.17604 -3.91797,11.45508 -1.91939,2.27904 -4.80316,3.40125 -9.76953,4.15234 0,0 -0.3146,0.0458 -0.63479,0.23633 -0.3201,0.19054 -0.6836,0.58829 -0.6836,1.17188 0,0.70498 0.5536,1.32923 1.31839,1.44531 4.96639,0.75373 7.85009,1.87651 9.76953,4.15625 1.91944,2.27973 2.92068,5.81523 3.91797,11.45703 0.0811,0.45859 0.25501,0.80532 0.51172,1.03125 0.25671,0.22592 0.57582,0.30664 0.85742,0.30664 0.26264,0 0.76846,-0.058 1.28906,-0.23242 0.2603,-0.0872 0.51912,-0.20129 0.73829,-0.38086 0.21916,-0.17957 0.40625,-0.45923 0.40625,-0.79102 0,-11.31115 0.0768,-22.62515 0,-33.9414 0,-0.13286 -0.0423,-0.18907 -0.0703,-0.23438 -0.028,-0.0453 -0.0539,-0.0786 -0.082,-0.10937 -0.0562,-0.0616 -0.11895,-0.11591 -0.19336,-0.17578 -0.14881,-0.11976 -0.34282,-0.25124 -0.56445,-0.37891 -0.44326,-0.25534 -0.98104,-0.50586 -1.52344,-0.50586 z m 0,0.75 c 0.27642,0 0.76724,0.18471 1.14844,0.4043 0.1906,0.10979 0.35957,0.22659 0.46875,0.31445 0.033,0.0265 0.0463,0.0398 0.0664,0.0586 0.0754,11.27043 0,22.54289 0,33.81836 0,0.0699 -0.0227,0.12234 -0.13086,0.21094 -0.10815,0.0886 -0.29458,0.18051 -0.50196,0.25 -0.41476,0.13899 -0.93821,0.19336 -1.05078,0.19336 -0.15089,0 -0.26162,-0.0314 -0.36133,-0.11914 -0.0997,-0.0877 -0.20874,-0.25576 -0.26953,-0.59961 -1.00271,-5.67248 -2.00147,-9.33749 -4.08203,-11.80859 -2.08056,-2.47111 -5.19686,-3.65013 -10.23047,-4.41407 -0.42223,-0.0641 -0.68166,-0.40424 -0.68166,-0.70507 0,-0.30097 0.1366,-0.42228 0.31643,-0.5293 0.17983,-0.10702 0.36523,-0.13672 0.36523,-0.13672 5.03363,-0.76127 8.14985,-1.93968 10.23047,-4.41016 2.08062,-2.47047 3.07932,-6.1361 4.08203,-11.80859 0.0366,-0.20693 0.10542,-0.40818 0.19922,-0.5293 0.0938,-0.12111 0.18532,-0.18945 0.43164,-0.18945 z"
           id="path695" /></g><g
         id="g697"
         style="stroke-width:0.75;stroke-dasharray:none"
         transform="translate(-120.18721,-465.84251)"><path
           style="baseline-shift:baseline;display:inline;overflow:visible;vector-effect:none;stroke-linecap:round;stroke-linejoin:round;stroke-miterlimit:3;paint-order:fill markers stroke;enable-background:accumulate;stop-color:#000000;stop-opacity:1"
           d="m -958.08687,159.99999 c 14.02938,0 37.68119,2.00001 37.68119,21.99959 0,20.6937 -25.51278,20.31448 -30.46929,20.19413 -6.35329,-0.15426 -8.47641,2.50669 -8.47641,4.80628 0,2.20267 1,4.86604 8.40503,4.81462 9.42886,-0.0655 30.55851,1.18538 30.55851,23.18227 0,7.41934 -0.87661,12.43465 4.97066,15.00311 3.16474,1.39013 3.48467,2.78349 0.25156,4.12334 -2.58297,1.07042 -4.22223,0.87666 -7.25156,0.87666 -11.96761,0 -16.57327,-10 -16.57327,-20 0,-10 -4.62665,-17.65403 -11.9559,-20 -5.03908,-1.36497 -9.97065,-2.5 -9.97065,-8 0,-5.5 5.75417,-5.93153 10.04203,-6.67671 10.5031,-2.13076 11.76639,-8.32329 11.76639,-18.3237 0,-12.99958 -8.2629,-18.20822 -18.97829,-19.24403 -2.01423,-0.19471 -2.30096,-0.83794 -2.30096,-1.50981 0,-0.52715 0.71093,-1.24575 2.30096,-1.24575 z"
           id="path696" /><path
           style="baseline-shift:baseline;display:inline;overflow:visible;vector-effect:none;stroke-linecap:round;stroke-linejoin:round;stroke-miterlimit:3;paint-order:fill markers stroke;enable-background:accumulate;stop-color:#000000;stop-opacity:1"
           d="m -958.08594,159.625 c -0.85151,0 -1.50034,0.19102 -1.95312,0.48633 -0.45278,0.2953 -0.72461,0.70261 -0.72461,1.13476 0,0.38928 0.1133,0.87491 0.53125,1.22266 0.41795,0.34775 1.06459,0.55916 2.10937,0.66016 5.30697,0.513 9.96945,2.0577 13.29297,5.04101 3.32353,2.98332 5.3457,7.40974 5.34571,13.83008 0,4.98441 -0.32649,8.97608 -1.9004,11.9375 -1.5739,2.96142 -4.3794,4.96569 -9.56445,6.01758 -2.12618,0.36906 -4.65721,0.65874 -6.70898,1.58203 -2.05476,0.92463 -3.63477,2.58211 -3.63477,5.46289 0,2.86208 1.33751,4.68318 3.27539,5.87109 1.93383,1.18544 4.44721,1.80673 6.95703,2.48633 7.14735,2.28775 11.69532,9.75825 11.69532,19.64258 0,5.05757 1.15879,10.13035 3.86718,13.9668 2.7084,3.83645 6.99183,6.4082 13.08008,6.4082 3.01334,0 4.74689,0.19373 7.39649,-0.9043 0.83153,-0.3446 1.44928,-0.69557 1.87695,-1.08398 0.42767,-0.38841 0.67548,-0.85836 0.625,-1.3457 -0.0505,-0.48734 -0.36551,-0.90767 -0.83203,-1.28907 -0.46653,-0.38139 -1.10389,-0.73983 -1.91406,-1.0957 -2.83504,-1.24531 -3.96757,-2.99208 -4.4629,-5.41406 -0.49532,-2.42198 -0.28515,-5.52166 -0.28515,-9.2461 0,-11.11851 -5.40123,-17.10417 -11.95703,-20.20312 -6.55581,-3.09895 -14.24556,-3.3864 -18.97852,-3.35352 -3.65744,0.0254 -5.67035,-0.62824 -6.74219,-1.48047 -1.07184,-0.85222 -1.28515,-1.91439 -1.28515,-2.95898 0,-1.03439 0.46162,-2.14708 1.69726,-3.01758 1.23565,-0.87049 3.27121,-1.4899 6.39453,-1.41406 2.48431,0.0603 10.14633,0.19425 17.22852,-2.3125 3.54109,-1.25337 6.94531,-3.17146 9.4707,-6.10938 2.5254,-2.93791 4.1543,-6.896 4.1543,-12.14648 0,-5.07381 -1.50865,-9.04634 -3.99805,-12.11133 -2.4894,-3.06499 -5.94309,-5.22189 -9.81836,-6.73828 -7.75053,-3.03278 -17.20577,-3.52539 -24.23828,-3.52539 z m 0,0.75 c 6.99687,0 16.38213,0.50749 23.96485,3.47461 3.79136,1.48356 7.12603,3.57683 9.50976,6.51172 2.38373,2.93489 3.83008,6.71269 3.83008,11.63867 0,5.09637 -1.55951,8.85088 -3.97266,11.6582 -2.41314,2.80733 -5.69568,4.66714 -9.15234,5.89063 -6.91333,2.44698 -14.48678,2.32956 -16.95898,2.26953 -3.22997,-0.0784 -5.43147,0.55447 -6.84571,1.55078 -1.41424,0.99631 -2.01562,2.36566 -2.01562,3.63086 0,1.15808 0.28894,2.5296 1.56836,3.54687 1.27941,1.01728 3.46725,1.66861 7.21484,1.64258 4.6959,-0.0326 12.28611,0.27191 18.65234,3.28125 6.36624,3.00934 11.52735,8.64702 11.52735,19.52539 0,3.6949 -0.2274,6.81386 0.30078,9.39649 0.52818,2.58262 1.88229,4.62802 4.89453,5.95117 0.7722,0.33919 1.35968,0.67557 1.74219,0.98828 0.38251,0.31271 0.53959,0.58486 0.56055,0.78711 0.0209,0.20225 -0.0601,0.41977 -0.38282,0.71289 -0.32275,0.29312 -0.87513,0.61999 -1.66015,0.94531 -2.51635,1.04281 -4.06406,0.84766 -7.10938,0.84766 -5.87936,0 -9.88046,-2.42825 -12.4668,-6.0918 -2.58633,-3.66355 -3.73046,-8.59077 -3.73046,-13.5332 0,-10.11567 -4.70565,-17.95323 -12.2168,-20.35742 a 0.3750375,0.3750375 0 0 0 -0.0156,-0.004 c -2.52402,-0.6837 -4.98966,-1.31236 -6.77734,-2.4082 -1.78768,-1.09584 -2.91797,-2.59255 -2.91797,-5.23047 0,-2.61922 1.29906,-3.92687 3.19336,-4.7793 1.8943,-0.85243 4.37928,-1.152 6.53906,-1.52734 a 0.3750375,0.3750375 0 0 0 0.01,-0.002 c 5.31805,-1.07887 8.39461,-3.23471 10.07812,-6.40235 1.68352,-3.16764 1.98829,-7.27306 1.98829,-12.28906 0,-6.57924 -2.10698,-11.25882 -5.59375,-14.38867 -3.48678,-3.12986 -8.31424,-4.70571 -13.72266,-5.22852 -0.96945,-0.0937 -1.4722,-0.30167 -1.70117,-0.49219 -0.22898,-0.19051 -0.26172,-0.36194 -0.26172,-0.64453 0,-0.095 0.0846,-0.31007 0.38476,-0.50586 0.3002,-0.19578 0.80445,-0.36523 1.54297,-0.36523 z"
           id="path697" /></g></g></g></svg>
