<?xml version="1.0" encoding="UTF-8" standalone="no"?>
<!-- Created with Inkscape (http://www.inkscape.org/) -->

<svg
   width="107.43853mm"
   height="95.819862mm"
   viewBox="0 0 107.43853 95.819862"
   version="1.1"
   id="svg1"
   xml:space="preserve"
   xmlns="http://www.w3.org/2000/svg"
   xmlns:svg="http://www.w3.org/2000/svg"><defs
     id="defs1" /><g
     id="layer4"
     transform="translate(1140.1388,75.022293)"><g
       id="g616"
       transform="translate(0,-110.00492)"
       style="fill:#ffffff;fill-opacity:1"><path
         style="baseline-shift:baseline;display:inline;overflow:visible;opacity:1;vector-effect:none;fill:#ffffff;fill-opacity:1;stroke-width:0.75;stroke-linecap:round;stroke-linejoin:round;stroke-miterlimit:3;stroke-dasharray:none;paint-order:fill markers stroke;enable-background:accumulate;stop-color:#000000;stop-opacity:1"
         d="m -969.77778,159.99675 c 3.96327,-0.0298 5.59047,2.56986 5.44829,6.28754 l 1.06233,20.27872 c -0.0212,1.72041 -3.02464,1.69449 -3.37248,-0.11597 -2.6691,-13.72285 -5.97554,-19.82381 -17.7482,-22.88085 -2.59279,-0.70325 -1.87036,-3.5694 -0.0155,-3.52766 z"
         id="path564"
         transform="translate(-120.18721,-124.62014)" /><path
         style="baseline-shift:baseline;display:inline;overflow:visible;opacity:1;vector-effect:none;fill:#ffffff;fill-opacity:1;stroke-width:0.75;stroke-linecap:round;stroke-linejoin:round;stroke-miterlimit:3;stroke-dasharray:none;paint-order:fill markers stroke;enable-background:accumulate;stop-color:#000000;stop-opacity:1"
         d="m -969.78125,159.62109 -14.61328,0.043 c -1.12153,-0.0252 -1.93342,0.84521 -2.04102,1.81836 -0.10759,0.97315 0.52011,2.05769 1.94922,2.44531 a 0.3750375,0.3750375 0 0 0 0.004,0.002 c 5.83586,1.51541 9.50417,3.75113 12.08008,7.29687 2.5759,3.54575 4.06353,8.44981 5.39453,15.29297 0.21236,1.1001 1.23343,1.6628 2.16797,1.68359 0.46752,0.0104 0.93408,-0.10364 1.30664,-0.375 0.37255,-0.27135 0.63398,-0.72056 0.64062,-1.25976 a 0.3750375,0.3750375 0 0 0 0,-0.0254 l -1.0625,-20.27735 v 0.0332 c 0.0733,-1.91677 -0.30517,-3.59049 -1.26562,-4.79688 -0.96012,-1.20596 -2.49569,-1.89588 -4.5586,-1.88086 z m 0.004,0.75 a 0.3750375,0.3750375 0 0 0 0.002,0 c 1.89926,-0.0143 3.16033,0.58225 3.96875,1.59766 0.80841,1.01541 1.17044,2.49987 1.10156,4.30078 a 0.3750375,0.3750375 0 0 0 0.002,0.0352 l 1.05859,20.25586 c -0.005,0.31896 -0.12339,0.51156 -0.33008,0.66211 -0.20742,0.15107 -0.51819,0.23975 -0.84766,0.23242 -0.65893,-0.0147 -1.31296,-0.36896 -1.44921,-1.07813 a 0.3750375,0.3750375 0 0 0 0,-0.002 c -1.33811,-6.87969 -2.83764,-11.88818 -5.52539,-15.58789 -2.68708,-3.69878 -6.55793,-6.04039 -12.49219,-7.58203 l -0.004,-0.002 c -1.15908,-0.31634 -1.46746,-1.01437 -1.39844,-1.63867 0.0691,-0.6253 0.54597,-1.16689 1.2793,-1.15039 a 0.3750375,0.3750375 0 0 0 0.01,0 z"
         id="path565"
         transform="translate(-120.18721,-124.62014)" /><g
         id="g567"
         style="opacity:1;fill:#ffffff;fill-opacity:1;stroke-width:0.75;stroke-dasharray:none"
         transform="translate(-120.18721,-124.62014)"><path
           style="baseline-shift:baseline;display:inline;overflow:visible;vector-effect:none;fill:#ffffff;fill-opacity:1;stroke-linecap:round;stroke-linejoin:round;stroke-miterlimit:3;paint-order:fill markers stroke;enable-background:accumulate;stop-color:#000000;stop-opacity:1"
           d="m -969.7863,255.02528 c 3.96325,0.0298 5.59046,-2.56986 5.44828,-6.28753 l 1.06233,-20.27873 c -0.0212,-1.72041 -3.02465,-1.6945 -3.37247,0.11597 -2.66911,13.72285 -5.97555,19.82381 -17.74818,22.88085 -2.59277,0.70325 -1.87036,3.5694 -0.0153,3.52766 z"
           id="path566" /><path
           style="baseline-shift:baseline;display:inline;overflow:visible;vector-effect:none;fill:#ffffff;fill-opacity:1;stroke-linecap:round;stroke-linejoin:round;stroke-miterlimit:3;paint-order:fill markers stroke;enable-background:accumulate;stop-color:#000000;stop-opacity:1"
           d="m -964.84766,226.81836 c -0.93504,0.0208 -1.95639,0.58424 -2.16796,1.68555 -1.33101,6.84316 -2.82059,11.74527 -5.39649,15.29101 -2.5759,3.54575 -6.24228,5.78342 -12.07812,7.29883 a 0.3750375,0.3750375 0 0 0 -0.004,0 c -1.4291,0.38762 -2.0588,1.47411 -1.95117,2.44727 0.10762,0.97315 0.92136,1.84359 2.04297,1.81835 l 14.61523,0.041 c 2.0629,0.015 3.59847,-0.6749 4.55859,-1.88086 0.96046,-1.20638 1.33893,-2.88011 1.26563,-4.79687 v 0.0352 l 1.0625,-20.27929 a 0.3750375,0.3750375 0 0 0 0,-0.0234 c -0.007,-0.5392 -0.26807,-0.99037 -0.64063,-1.26172 -0.37255,-0.27135 -0.83911,-0.3854 -1.30664,-0.375 z m 0.0156,0.75 c 0.32946,-0.007 0.64023,0.0813 0.84766,0.23242 0.20669,0.15054 0.32726,0.3412 0.33203,0.66016 l -1.06055,20.25781 a 0.3750375,0.3750375 0 0 0 0,0.0332 c 0.0689,1.80091 -0.2951,3.28537 -1.10352,4.30078 -0.80841,1.01542 -2.06754,1.61194 -3.96679,1.59766 a 0.3750375,0.3750375 0 0 0 -0.002,0 l -14.625,-0.041 a 0.3750375,0.3750375 0 0 0 -0.01,0 c -0.73345,0.0165 -1.21015,-0.52704 -1.2793,-1.15234 -0.0692,-0.62529 0.23672,-1.32304 1.40039,-1.63867 5.93461,-1.54164 9.80697,-3.88313 12.49414,-7.58203 2.68775,-3.69971 4.18729,-8.71016 5.52539,-15.58985 0.13625,-0.70916 0.78834,-1.06346 1.44727,-1.07812 z"
           id="path567" /></g><g
         id="g569"
         style="opacity:1;fill:#ffffff;fill-opacity:1;stroke-width:0.75;stroke-dasharray:none"
         transform="translate(-120.18721,-124.62014)"><path
           style="baseline-shift:baseline;display:inline;overflow:visible;vector-effect:none;fill:#ffffff;fill-opacity:1;stroke-linecap:round;stroke-linejoin:round;stroke-miterlimit:3;paint-order:fill markers stroke;enable-background:accumulate;stop-color:#000000;stop-opacity:1"
           d="m -1009.9911,159.99987 c -3.9633,-0.0298 -9.1174,-0.355 -9.5561,3.06574 -0.4387,3.42073 4.107,3.78799 4.107,10.46049 v 15.68587 c 0.021,1.7204 3.0246,1.69449 3.3724,-0.11598 2.6692,-13.72285 4.9173,-22.46964 16.68997,-25.52668 2.59278,-0.70324 1.87035,-3.5694 0.0155,-3.52766 z"
           id="path568" /><path
           style="baseline-shift:baseline;display:inline;overflow:visible;vector-effect:none;fill:#ffffff;fill-opacity:1;stroke-linecap:round;stroke-linejoin:round;stroke-miterlimit:3;paint-order:fill markers stroke;enable-background:accumulate;stop-color:#000000;stop-opacity:1"
           d="m -1009.9902,159.625 c -1.9722,-0.0149 -4.2655,-0.10872 -6.17,0.24609 -0.9525,0.17747 -1.8148,0.46587 -2.4902,0.9668 -0.6754,0.50093 -1.148,1.23187 -1.2695,2.17969 -0.1202,0.93707 0.1127,1.70843 0.5058,2.37695 0.3932,0.66852 0.9316,1.25117 1.4629,1.91602 1.0626,1.32969 2.1367,2.96375 2.1367,6.21484 v 15.6875 a 0.3750375,0.3750375 0 0 0 0,0.004 c 0.01,0.5392 0.2681,0.9884 0.6407,1.25976 0.3725,0.27136 0.8371,0.38736 1.3047,0.37696 0.9345,-0.0208 1.9575,-0.58543 2.1699,-1.68555 v -0.002 c 1.3335,-6.85578 2.5641,-12.44194 4.8906,-16.65235 2.3267,-4.21083 5.7177,-7.07392 11.5254,-8.58203 a 0.3750375,0.3750375 0 0 0 0.004,0 c 1.42911,-0.38762 2.05682,-1.47411 1.94922,-2.44727 -0.10759,-0.97315 -0.91949,-1.84359 -2.04101,-1.81835 l -14.61721,-0.041 z m 0,0.75 14.62892,0.041 a 0.3750375,0.3750375 0 0 0 0.01,0 c 0.73333,-0.0165 1.21016,0.52508 1.2793,1.15039 0.0691,0.6253 -0.23867,1.325 -1.40234,1.64062 h 0.004 c -5.96498,1.54893 -9.58448,4.58778 -11.99218,8.94531 -2.4078,4.35754 -3.6352,10.00496 -4.9707,16.8711 a 0.3750375,0.3750375 0 0 0 0,0.002 c -0.1363,0.70916 -0.7903,1.06346 -1.4493,1.07813 -0.3294,0.007 -0.6402,-0.0814 -0.8476,-0.23243 -0.2074,-0.15107 -0.3281,-0.34306 -0.3321,-0.66406 v -15.68164 c 0,-3.42141 -1.2001,-5.30635 -2.3007,-6.68359 -0.5503,-0.68862 -1.0666,-1.25524 -1.4024,-1.82618 -0.3357,-0.57093 -0.5074,-1.12904 -0.4082,-1.90234 0.098,-0.76255 0.4344,-1.27263 0.9727,-1.67187 0.5382,-0.39925 1.2954,-0.66888 2.1816,-0.83399 1.7725,-0.33021 4.0367,-0.24739 6.0274,-0.23242 z"
           id="path569" /></g><g
         id="g571"
         style="opacity:1;fill:#ffffff;fill-opacity:1;stroke-width:0.75;stroke-dasharray:none"
         transform="translate(-120.18721,-124.62014)"><path
           style="baseline-shift:baseline;display:inline;overflow:visible;vector-effect:none;fill:#ffffff;fill-opacity:1;stroke-linecap:round;stroke-linejoin:round;stroke-miterlimit:3;paint-order:fill markers stroke;enable-background:accumulate;stop-color:#000000;stop-opacity:1"
           d="m -1009.9911,255.02528 c -3.9633,0.0298 -9.1174,0.355 -9.5561,-3.06574 -0.4387,-3.42073 4.107,-3.78799 4.107,-10.46049 v -15.68586 c 0.021,-1.72041 3.0246,-1.6945 3.3724,0.11597 2.6692,13.72285 4.9173,22.46964 16.68997,25.52668 2.59278,0.70325 1.87035,3.5694 0.0155,3.52766 z"
           id="path570" /><path
           style="baseline-shift:baseline;display:inline;overflow:visible;vector-effect:none;fill:#ffffff;fill-opacity:1;stroke-linecap:round;stroke-linejoin:round;stroke-miterlimit:3;paint-order:fill markers stroke;enable-background:accumulate;stop-color:#000000;stop-opacity:1"
           d="m -1013.8691,224.17187 c -0.4676,-0.0104 -0.9322,0.10365 -1.3047,0.375 -0.3726,0.27136 -0.6341,0.72252 -0.6407,1.26172 a 0.3750375,0.3750375 0 0 0 0,0.004 V 241.5 c 0,3.25109 -1.0741,4.88515 -2.1367,6.21484 -0.5313,0.66485 -1.0697,1.2475 -1.4629,1.91602 -0.3931,0.66852 -0.626,1.43988 -0.5058,2.37695 0.1215,0.94782 0.5941,1.67876 1.2695,2.17969 0.6754,0.50093 1.5377,0.78934 2.4902,0.9668 1.9051,0.35492 4.1993,0.26092 6.1719,0.24609 l 14.61721,-0.041 c 1.12152,0.0252 1.93342,-0.8452 2.04101,-1.81835 0.1076,-0.97316 -0.52011,-2.05965 -1.94922,-2.44727 a 0.3750375,0.3750375 0 0 0 -0.004,0 c -5.8077,-1.50811 -9.1987,-4.3712 -11.5254,-8.58203 -2.3265,-4.21041 -3.5571,-9.79657 -4.8906,-16.65235 v -0.002 c -0.2124,-1.10012 -1.2354,-1.66475 -2.1699,-1.68555 z m -0.016,0.75 c 0.659,0.0147 1.313,0.36897 1.4493,1.07813 1.3355,6.86614 2.5629,12.51551 4.9707,16.87305 2.4077,4.35753 6.0272,7.39638 11.99214,8.94531 h -0.004 c 1.16367,0.31563 1.47148,1.01337 1.40234,1.63867 -0.0691,0.6253 -0.54597,1.16885 -1.2793,1.15234 a 0.3750375,0.3750375 0 0 0 -0.01,0 l -14.62888,0.041 c -1.9907,0.015 -4.2549,0.0978 -6.0274,-0.23242 -0.8862,-0.16511 -1.6434,-0.43474 -2.1816,-0.83399 -0.5383,-0.39924 -0.8749,-0.90932 -0.9727,-1.67187 -0.099,-0.7733 0.072,-1.33141 0.4082,-1.90234 0.3358,-0.57094 0.8521,-1.13755 1.4024,-1.82618 1.1006,-1.37724 2.3007,-3.26218 2.3007,-6.68359 v -15.68164 c 0,-0.321 0.1247,-0.51299 0.3321,-0.66406 0.2074,-0.15107 0.5182,-0.23976 0.8476,-0.23243 z"
           id="path571" /></g><g
         id="g573"
         style="opacity:1;fill:#ffffff;fill-opacity:1;stroke-width:0.75;stroke-dasharray:none"
         transform="translate(-120.18721,-124.62014)"><path
           style="baseline-shift:baseline;display:inline;overflow:visible;vector-effect:none;fill:#ffffff;fill-opacity:1;stroke-linecap:round;stroke-linejoin:round;stroke-miterlimit:3;paint-order:fill markers stroke;enable-background:accumulate;stop-color:#000000;stop-opacity:1"
           d="m -1000.4803,206.97832 c 0,0.50291 0.4065,0.98536 1.00001,1.07544 10,1.51767 12,4.60338 14,15.91766 0.14185,0.80244 0.5675,1.02857 1,1.02857 0.37521,0 2.05833,-0.22522 2.05833,-1.02857 0,-11.31415 0.0768,-22.62869 0,-33.94285 0,-0.15743 -1.23951,-1.02857 -2.05833,-1.02857 -0.69192,0 -0.91567,0.55152 -1,1.02857 -2,11.31429 -4.00003,14.4 -14.00003,15.91236 0,0 -0.99998,0.15284 -0.99998,1.03739 z"
           id="path572" /><path
           style="baseline-shift:baseline;display:inline;overflow:visible;vector-effect:none;fill:#ffffff;fill-opacity:1;stroke-linecap:round;stroke-linejoin:round;stroke-miterlimit:3;paint-order:fill markers stroke;enable-background:accumulate;stop-color:#000000;stop-opacity:1"
           d="m -984.48047,188.625 c -0.44559,0 -0.8113,0.20656 -1.02344,0.48047 -0.21213,0.27391 -0.29795,0.58731 -0.3457,0.85742 -0.99729,5.6418 -1.99857,9.17604 -3.91797,11.45508 -1.91939,2.27904 -4.80316,3.40125 -9.76953,4.15234 0,0 -0.3146,0.0458 -0.63479,0.23633 -0.3201,0.19054 -0.6836,0.58829 -0.6836,1.17188 0,0.70498 0.5536,1.32923 1.31839,1.44531 4.96639,0.75373 7.85009,1.87651 9.76953,4.15625 1.91944,2.27973 2.92068,5.81523 3.91797,11.45703 0.0811,0.45859 0.25501,0.80532 0.51172,1.03125 0.25671,0.22592 0.57582,0.30664 0.85742,0.30664 0.26264,0 0.76846,-0.058 1.28906,-0.23242 0.2603,-0.0872 0.51912,-0.20129 0.73829,-0.38086 0.21916,-0.17957 0.40625,-0.45923 0.40625,-0.79102 0,-11.31115 0.0768,-22.62515 0,-33.9414 0,-0.13286 -0.0423,-0.18907 -0.0703,-0.23438 -0.028,-0.0453 -0.0539,-0.0786 -0.082,-0.10937 -0.0562,-0.0616 -0.11895,-0.11591 -0.19336,-0.17578 -0.14881,-0.11976 -0.34282,-0.25124 -0.56445,-0.37891 -0.44326,-0.25534 -0.98104,-0.50586 -1.52344,-0.50586 z m 0,0.75 c 0.27642,0 0.76724,0.18471 1.14844,0.4043 0.1906,0.10979 0.35957,0.22659 0.46875,0.31445 0.033,0.0265 0.0463,0.0398 0.0664,0.0586 0.0754,11.27043 0,22.54289 0,33.81836 0,0.0699 -0.0227,0.12234 -0.13086,0.21094 -0.10815,0.0886 -0.29458,0.18051 -0.50196,0.25 -0.41476,0.13899 -0.93821,0.19336 -1.05078,0.19336 -0.15089,0 -0.26162,-0.0314 -0.36133,-0.11914 -0.0997,-0.0877 -0.20874,-0.25576 -0.26953,-0.59961 -1.00271,-5.67248 -2.00147,-9.33749 -4.08203,-11.80859 -2.08056,-2.47111 -5.19686,-3.65013 -10.23047,-4.41407 -0.42223,-0.0641 -0.68166,-0.40424 -0.68166,-0.70507 0,-0.30097 0.1366,-0.42228 0.31643,-0.5293 0.17983,-0.10702 0.36523,-0.13672 0.36523,-0.13672 5.03363,-0.76127 8.14985,-1.93968 10.23047,-4.41016 2.08062,-2.47047 3.07932,-6.1361 4.08203,-11.80859 0.0366,-0.20693 0.10542,-0.40818 0.19922,-0.5293 0.0938,-0.12111 0.18532,-0.18945 0.43164,-0.18945 z"
           id="path573" /></g><g
         id="g575"
         style="opacity:1;fill:#ffffff;fill-opacity:1;stroke-width:0.75;stroke-dasharray:none"
         transform="translate(-120.18721,-124.62014)"><path
           style="baseline-shift:baseline;display:inline;overflow:visible;vector-effect:none;fill:#ffffff;fill-opacity:1;stroke-linecap:round;stroke-linejoin:round;stroke-miterlimit:3;paint-order:fill markers stroke;enable-background:accumulate;stop-color:#000000;stop-opacity:1"
           d="m -958.08687,159.99999 c 14.02938,0 37.68119,2.00001 37.68119,21.99959 0,20.6937 -25.51278,20.31448 -30.46929,20.19413 -6.35329,-0.15426 -8.47641,2.50669 -8.47641,4.80628 0,2.20267 1,4.86604 8.40503,4.81462 9.42886,-0.0655 30.55851,1.18538 30.55851,23.18227 0,7.41934 -0.87661,12.43465 4.97066,15.00311 3.16474,1.39013 3.48467,2.78349 0.25156,4.12334 -2.58297,1.07042 -4.22223,0.87666 -7.25156,0.87666 -11.96761,0 -16.57327,-10 -16.57327,-20 0,-10 -4.62665,-17.65403 -11.9559,-20 -5.03908,-1.36497 -9.97065,-2.5 -9.97065,-8 0,-5.5 5.75417,-5.93153 10.04203,-6.67671 10.5031,-2.13076 11.76639,-8.32329 11.76639,-18.3237 0,-12.99958 -8.2629,-18.20822 -18.97829,-19.24403 -2.01423,-0.19471 -2.30096,-0.83794 -2.30096,-1.50981 0,-0.52715 0.71093,-1.24575 2.30096,-1.24575 z"
           id="path574" /><path
           style="baseline-shift:baseline;display:inline;overflow:visible;vector-effect:none;fill:#ffffff;fill-opacity:1;stroke-linecap:round;stroke-linejoin:round;stroke-miterlimit:3;paint-order:fill markers stroke;enable-background:accumulate;stop-color:#000000;stop-opacity:1"
           d="m -958.08594,159.625 c -0.85151,0 -1.50034,0.19102 -1.95312,0.48633 -0.45278,0.2953 -0.72461,0.70261 -0.72461,1.13476 0,0.38928 0.1133,0.87491 0.53125,1.22266 0.41795,0.34775 1.06459,0.55916 2.10937,0.66016 5.30697,0.513 9.96945,2.0577 13.29297,5.04101 3.32353,2.98332 5.3457,7.40974 5.34571,13.83008 0,4.98441 -0.32649,8.97608 -1.9004,11.9375 -1.5739,2.96142 -4.3794,4.96569 -9.56445,6.01758 -2.12618,0.36906 -4.65721,0.65874 -6.70898,1.58203 -2.05476,0.92463 -3.63477,2.58211 -3.63477,5.46289 0,2.86208 1.33751,4.68318 3.27539,5.87109 1.93383,1.18544 4.44721,1.80673 6.95703,2.48633 7.14735,2.28775 11.69532,9.75825 11.69532,19.64258 0,5.05757 1.15879,10.13035 3.86718,13.9668 2.7084,3.83645 6.99183,6.4082 13.08008,6.4082 3.01334,0 4.74689,0.19373 7.39649,-0.9043 0.83153,-0.3446 1.44928,-0.69557 1.87695,-1.08398 0.42767,-0.38841 0.67548,-0.85836 0.625,-1.3457 -0.0505,-0.48734 -0.36551,-0.90767 -0.83203,-1.28907 -0.46653,-0.38139 -1.10389,-0.73983 -1.91406,-1.0957 -2.83504,-1.24531 -3.96757,-2.99208 -4.4629,-5.41406 -0.49532,-2.42198 -0.28515,-5.52166 -0.28515,-9.2461 0,-11.11851 -5.40123,-17.10417 -11.95703,-20.20312 -6.55581,-3.09895 -14.24556,-3.3864 -18.97852,-3.35352 -3.65744,0.0254 -5.67035,-0.62824 -6.74219,-1.48047 -1.07184,-0.85222 -1.28515,-1.91439 -1.28515,-2.95898 0,-1.03439 0.46162,-2.14708 1.69726,-3.01758 1.23565,-0.87049 3.27121,-1.4899 6.39453,-1.41406 2.48431,0.0603 10.14633,0.19425 17.22852,-2.3125 3.54109,-1.25337 6.94531,-3.17146 9.4707,-6.10938 2.5254,-2.93791 4.1543,-6.896 4.1543,-12.14648 0,-5.07381 -1.50865,-9.04634 -3.99805,-12.11133 -2.4894,-3.06499 -5.94309,-5.22189 -9.81836,-6.73828 -7.75053,-3.03278 -17.20577,-3.52539 -24.23828,-3.52539 z m 0,0.75 c 6.99687,0 16.38213,0.50749 23.96485,3.47461 3.79136,1.48356 7.12603,3.57683 9.50976,6.51172 2.38373,2.93489 3.83008,6.71269 3.83008,11.63867 0,5.09637 -1.55951,8.85088 -3.97266,11.6582 -2.41314,2.80733 -5.69568,4.66714 -9.15234,5.89063 -6.91333,2.44698 -14.48678,2.32956 -16.95898,2.26953 -3.22997,-0.0784 -5.43147,0.55447 -6.84571,1.55078 -1.41424,0.99631 -2.01562,2.36566 -2.01562,3.63086 0,1.15808 0.28894,2.5296 1.56836,3.54687 1.27941,1.01728 3.46725,1.66861 7.21484,1.64258 4.6959,-0.0326 12.28611,0.27191 18.65234,3.28125 6.36624,3.00934 11.52735,8.64702 11.52735,19.52539 0,3.6949 -0.2274,6.81386 0.30078,9.39649 0.52818,2.58262 1.88229,4.62802 4.89453,5.95117 0.7722,0.33919 1.35968,0.67557 1.74219,0.98828 0.38251,0.31271 0.53959,0.58486 0.56055,0.78711 0.0209,0.20225 -0.0601,0.41977 -0.38282,0.71289 -0.32275,0.29312 -0.87513,0.61999 -1.66015,0.94531 -2.51635,1.04281 -4.06406,0.84766 -7.10938,0.84766 -5.87936,0 -9.88046,-2.42825 -12.4668,-6.0918 -2.58633,-3.66355 -3.73046,-8.59077 -3.73046,-13.5332 0,-10.11567 -4.70565,-17.95323 -12.2168,-20.35742 a 0.3750375,0.3750375 0 0 0 -0.0156,-0.004 c -2.52402,-0.6837 -4.98966,-1.31236 -6.77734,-2.4082 -1.78768,-1.09584 -2.91797,-2.59255 -2.91797,-5.23047 0,-2.61922 1.29906,-3.92687 3.19336,-4.7793 1.8943,-0.85243 4.37928,-1.152 6.53906,-1.52734 a 0.3750375,0.3750375 0 0 0 0.01,-0.002 c 5.31805,-1.07887 8.39461,-3.23471 10.07812,-6.40235 1.68352,-3.16764 1.98829,-7.27306 1.98829,-12.28906 0,-6.57924 -2.10698,-11.25882 -5.59375,-14.38867 -3.48678,-3.12986 -8.31424,-4.70571 -13.72266,-5.22852 -0.96945,-0.0937 -1.4722,-0.30167 -1.70117,-0.49219 -0.22898,-0.19051 -0.26172,-0.36194 -0.26172,-0.64453 0,-0.095 0.0846,-0.31007 0.38476,-0.50586 0.3002,-0.19578 0.80445,-0.36523 1.54297,-0.36523 z"
           id="path575" /></g><path
         style="baseline-shift:baseline;display:inline;overflow:visible;opacity:1;vector-effect:none;fill:#ffffff;fill-opacity:1;stroke-linecap:round;stroke-linejoin:round;stroke-miterlimit:3;paint-order:fill markers stroke;enable-background:accumulate;stop-color:#000000;stop-opacity:1"
         d="m -1110.3242,41.548828 c -0.9972,0.04818 -2.0023,0.185604 -3.0039,0.416016 -8.0134,1.843268 -13.5651,9.155073 -13.1895,17.36914 0.3756,8.214044 6.5726,14.987468 14.7207,16.091797 a 0.2,0.2 0 0 0 0.2246,-0.171875 0.2,0.2 0 0 0 -0.1718,-0.224609 c -7.9593,-1.078727 -14.0062,-7.691231 -14.3731,-15.714844 -0.3669,-8.023636 5.0513,-15.15845 12.8789,-16.958984 7.8276,-1.800559 15.8203,2.249484 18.9961,9.626953 3.1758,7.377485 0.6255,15.968037 -6.0625,20.416015 a 0.2,0.2 0 0 0 -0.057,0.277344 0.2,0.2 0 0 0 0.2773,0.05469 c 6.8467,-4.553547 9.4602,-13.353669 6.209,-20.90625 -2.8448,-6.608494 -9.4691,-10.612616 -16.4492,-10.275391 z"
         id="path576" /><path
         style="baseline-shift:baseline;display:inline;overflow:visible;opacity:1;vector-effect:none;fill:#ffffff;fill-opacity:1;stroke-linecap:round;stroke-linejoin:round;stroke-miterlimit:3;paint-order:fill markers stroke;enable-background:accumulate;stop-color:#000000;stop-opacity:1"
         d="m -1111.6328,90.488281 c -8.1601,1.025296 -14.4236,7.739418 -14.877,15.951169 -0.4534,8.21174 5.0317,15.57672 13.0293,17.49414 7.9977,1.91742 16.2256,-2.15891 19.545,-9.68359 3.3193,-7.52466 0.7827,-16.349038 -6.0254,-20.962891 a 0.2,0.2 0 0 0 -0.2774,0.05273 0.2,0.2 0 0 0 0.053,0.277343 c 6.6503,4.506889 9.1271,13.120488 5.8847,20.470708 -3.2424,7.35022 -11.2737,11.32999 -19.0859,9.45703 -7.8122,-1.87297 -13.1656,-9.06067 -12.7227,-17.08203 0.4429,-8.021383 6.5545,-14.576603 14.5254,-15.578129 a 0.2,0.2 0 0 0 0.1738,-0.222657 0.2,0.2 0 0 0 -0.2226,-0.173828 z"
         id="path577" /><path
         style="baseline-shift:baseline;display:inline;overflow:visible;opacity:1;vector-effect:none;fill:#ffffff;fill-opacity:1;stroke-linecap:round;stroke-linejoin:round;stroke-miterlimit:3;paint-order:fill markers stroke;enable-background:accumulate;stop-color:#000000;stop-opacity:1"
         d="m 82.886719,1123.4863 c -8.139634,0 -14.777343,5.491 -14.777344,12.3067 a 0.20002,0.20002 0 0 0 0.201172,0.1992 h 14.576172 14.574218 a 0.20002,0.20002 0 0 0 0.201172,-0.1992 c -10e-7,-6.8157 -6.635756,-12.3067 -14.77539,-12.3067 z m 0,0.4004 c 7.876456,0 14.216735,5.2441 14.349609,11.7051 H 82.886719 68.535156 c 0.132874,-6.461 6.475106,-11.7051 14.351563,-11.7051 z"
         id="path578"
         transform="rotate(90)" /><path
         style="baseline-shift:baseline;display:inline;overflow:visible;opacity:1;vector-effect:none;fill:#ffffff;fill-opacity:1;stroke-linecap:round;stroke-linejoin:round;stroke-miterlimit:3;paint-order:fill markers stroke;enable-background:accumulate;stop-color:#000000;stop-opacity:1"
         d="m -14.986328,1064.3672 c -9.235529,0 -16.718745,7.7206 -16.71875,17.2324 a 0.20002,0.20002 0 0 0 0.199219,0.1992 h 16.519531 16.5214842 a 0.20002,0.20002 0 0 0 0.1992188,-0.1992 c -5.4e-6,-9.5118 -7.485174,-17.2324 -16.720703,-17.2324 z m 0,0.3984 c 8.9458906,0 16.1955697,7.426 16.3027342,16.6328 H -14.986328 -31.287109 c 0.107164,-9.2068 7.35489,-16.6328 16.300781,-16.6328 z"
         id="path579"
         transform="rotate(86.138079)" /><path
         style="baseline-shift:baseline;display:inline;overflow:visible;opacity:1;vector-effect:none;fill:#ffffff;fill-opacity:1;stroke-linecap:round;stroke-linejoin:round;stroke-miterlimit:3;paint-order:fill markers stroke;enable-background:accumulate;stop-color:#000000;stop-opacity:1"
         d="m -82.623047,-1051.3867 c -5.842905,0 -10.570344,5.0762 -10.570312,11.3164 a 0.20002,0.20002 0 0 0 0.199218,0.1992 h 10.371094 10.369141 a 0.20002,0.20002 0 0 0 0.199219,-0.1992 c 3.1e-5,-6.2402 -4.725455,-11.3164 -10.56836,-11.3164 z m 0,0.4004 c 5.544871,0 10.026883,4.7753 10.132813,10.7148 h -10.132813 -10.132812 c 0.105938,-5.9395 4.587947,-10.7148 10.132812,-10.7148 z"
         id="path580"
         transform="rotate(-90)" /><path
         style="baseline-shift:baseline;display:inline;overflow:visible;opacity:1;vector-effect:none;fill:#ffffff;fill-opacity:1;stroke-linecap:round;stroke-linejoin:round;stroke-miterlimit:3;paint-order:fill markers stroke;enable-background:accumulate;stop-color:#000000;stop-opacity:1"
         d="m -1084.2246,66.117187 c -1.6804,0.169773 -3.3527,0.591915 -4.9609,1.277344 -6.4329,2.7417 -10.5365,9.140752 -10.3438,16.13086 0.1927,6.990125 4.6426,13.152108 11.2168,15.535156 6.5742,2.383063 13.9393,0.502754 18.5664,-4.740235 a 0.2,0.2 0 0 0 -0.018,-0.28125 0.2,0.2 0 0 0 -0.2832,0.01758 c -4.5191,5.120712 -11.708,6.956388 -18.1289,4.628906 -6.4209,-2.327471 -10.7649,-8.344772 -10.9531,-15.171875 -0.1882,-6.827087 3.8168,-13.072241 10.0996,-15.75 6.2829,-2.677774 13.5629,-1.24089 18.3574,3.623047 a 0.2,0.2 0 0 0 0.2832,0.002 0.2,0.2 0 0 0 0,-0.283203 c -3.6817,-3.735061 -8.7967,-5.4976 -13.8379,-4.988282 z"
         id="path581" /><path
         style="baseline-shift:baseline;display:inline;overflow:visible;opacity:1;vector-effect:none;fill:#ffffff;fill-opacity:1;stroke-linecap:round;stroke-linejoin:round;stroke-miterlimit:3;paint-order:fill markers stroke;enable-background:accumulate;stop-color:#000000;stop-opacity:1"
         d="m -1074.6875,80.679687 c -0.9383,0 -1.6992,0.760873 -1.6992,1.699219 0,0.938347 0.7609,1.701172 1.6992,1.701172 h 27.5 c 0.9383,0 1.7012,-0.762825 1.7012,-1.701172 0,-0.938346 -0.7629,-1.699219 -1.7012,-1.699219 z m 0,0.400391 h 27.5 c 0.7237,0 1.3008,0.575161 1.3008,1.298828 0,0.723668 -0.5771,1.300781 -1.3008,1.300781 h -27.5 c -0.7237,0 -1.2988,-0.577113 -1.2988,-1.300781 0,-0.723667 0.5751,-1.298828 1.2988,-1.298828 z"
         id="path582" /><path
         style="baseline-shift:baseline;display:inline;overflow:visible;opacity:1;vector-effect:none;fill:#ffffff;fill-opacity:1;stroke-linecap:round;stroke-linejoin:round;stroke-miterlimit:3;paint-order:fill markers stroke;enable-background:accumulate;stop-color:#000000;stop-opacity:1"
         d="m -1116.1875,106.39258 c -4.0633,-4e-5 -7.3613,3.29801 -7.3613,7.36133 0,4.06332 3.298,7.36332 7.3613,7.36328 4.0633,-2e-5 7.3613,-3.3 7.3613,-7.36328 0,-4.06328 -3.298,-7.36131 -7.3613,-7.36133 z m 0,0.40039 c 3.8471,2e-5 6.9609,3.11383 6.9609,6.96094 0,3.8471 -3.1138,6.96287 -6.9609,6.96289 -3.8471,3e-5 -6.9609,-3.11575 -6.9609,-6.96289 0,-3.84715 3.1138,-6.96098 6.9609,-6.96094 z"
         id="path583" /><path
         style="baseline-shift:baseline;display:inline;overflow:visible;opacity:1;vector-effect:none;fill:#ffffff;fill-opacity:1;stroke-linecap:round;stroke-linejoin:round;stroke-miterlimit:3;paint-order:fill markers stroke;enable-background:accumulate;stop-color:#000000;stop-opacity:1"
         d="m -1070.5195,-131.17773 c -4.2638,0 -7.6953,3.56961 -7.6953,7.98632 v 22.38282 c 0,4.416711 3.4315,7.986324 7.6953,7.986324 4.2638,0 7.6953,-3.569613 7.6953,-7.986324 v -22.38282 c 0,-4.41671 -3.4315,-7.98632 -7.6953,-7.98632 z m 0,0.40039 c 4.0408,0 7.2949,3.37589 7.2949,7.58593 v 22.38282 c 0,4.210041 -3.2541,7.585934 -7.2949,7.585934 -4.0408,0 -7.295,-3.375893 -7.295,-7.585934 v -22.38282 c 0,-4.21004 3.2542,-7.58593 7.295,-7.58593 z"
         id="path584"
         transform="matrix(0.97841055,-0.20667076,0.21263886,0.97713086,0,0)" /><path
         style="baseline-shift:baseline;display:inline;overflow:visible;opacity:1;vector-effect:none;fill:#ffffff;fill-opacity:1;stroke-linecap:round;stroke-linejoin:round;stroke-miterlimit:3;paint-order:fill markers stroke;enable-background:accumulate;stop-color:#000000;stop-opacity:1"
         d="m -1066.1152,79.28125 a 0.2,0.2 0 0 0 -0.1524,0.238281 c 0.3927,1.803867 0.483,3.660866 0.2656,5.494141 a 0.2,0.2 0 0 0 0.1739,0.222656 0.2,0.2 0 0 0 0.2226,-0.175781 c 0.2227,-1.877385 0.1307,-3.777731 -0.2715,-5.625 a 0.2,0.2 0 0 0 -0.2382,-0.154297 z"
         id="path585" /><path
         style="baseline-shift:baseline;display:inline;overflow:visible;opacity:1;vector-effect:none;fill:#ffffff;fill-opacity:1;stroke-linecap:round;stroke-linejoin:round;stroke-miterlimit:3;paint-order:fill markers stroke;enable-background:accumulate;stop-color:#000000;stop-opacity:1"
         d="m -1079.7383,106.63867 a 0.20002,0.20002 0 0 0 -0.334,0.14063 l -1.1367,23.77929 a 0.20002,0.20002 0 0 0 0.1992,0.20899 h 27.6446 a 0.20002,0.20002 0 0 0 0.1347,-0.34766 z m 0.047,0.58008 25.8027,23.14844 h -26.9121 z"
         id="path586" /><path
         style="baseline-shift:baseline;display:inline;overflow:visible;opacity:1;vector-effect:none;fill:#ffffff;fill-opacity:1;stroke-linecap:round;stroke-linejoin:round;stroke-miterlimit:6;paint-order:fill markers stroke;enable-background:accumulate;stop-color:#000000;stop-opacity:1"
         d="m -1057.1094,35.003906 a 0.20002,0.20002 0 0 0 -0.047,0.394531 c 6.401,1.560784 12.4342,4.457689 16.6368,10.232422 a 0.20002,0.20002 0 0 0 0.3613,-0.11914 V 35.203125 a 0.20002,0.20002 0 0 0 -0.2012,-0.199219 z m 1.334,0.400391 h 15.2168 v 9.59375 c -3.9601,-5.188866 -9.408,-7.992327 -15.2168,-9.59375 z"
         id="path587" /><path
         style="baseline-shift:baseline;display:inline;overflow:visible;opacity:1;vector-effect:none;fill:#ffffff;fill-opacity:1;stroke-linecap:round;stroke-linejoin:round;stroke-miterlimit:3;paint-order:fill markers stroke;enable-background:accumulate;stop-color:#000000;stop-opacity:1"
         d="m -1109.2656,113.54688 v 16.98828 a 0.2002,0.2002 0 0 0 0.4004,0 v -16.98828 a 0.2002,0.2002 0 0 0 -0.4004,0 z"
         id="path588" /><path
         style="baseline-shift:baseline;display:inline;overflow:visible;opacity:1;vector-effect:none;fill:#ffffff;fill-opacity:1;stroke-linecap:round;stroke-linejoin:round;stroke-miterlimit:3;paint-order:fill markers stroke;enable-background:accumulate;stop-color:#000000;stop-opacity:1"
         d="m -1111.3477,113.54688 v 16.98437 a 0.2002,0.2002 0 0 0 0.4004,0 v -16.98437 a 0.2002,0.2002 0 0 0 -0.4004,0 z"
         id="path589" /><path
         style="baseline-shift:baseline;display:inline;overflow:visible;opacity:1;vector-effect:none;fill:#ffffff;fill-opacity:1;stroke-linecap:round;stroke-linejoin:round;stroke-miterlimit:3;paint-order:fill markers stroke;enable-background:accumulate;stop-color:#000000;stop-opacity:1"
         d="m -1116.1875,108.55469 c -2.8696,-5e-5 -5.1992,2.32966 -5.1992,5.19922 0,2.86955 2.3296,5.20121 5.1992,5.20117 2.8695,-2e-5 5.2012,-2.33166 5.2012,-5.20117 0,-2.86952 -2.3317,-5.19921 -5.2012,-5.19922 z m 0,0.40039 c 2.6533,1e-5 4.8008,2.14548 4.8008,4.79883 0,2.65333 -2.1475,4.80077 -4.8008,4.80078 -2.6534,4e-5 -4.7988,-2.14741 -4.7988,-4.80078 0,-2.65338 2.1454,-4.79887 4.7988,-4.79883 z"
         id="path590" /><path
         style="baseline-shift:baseline;display:inline;overflow:visible;opacity:1;vector-effect:none;fill:#ffffff;fill-opacity:1;stroke-linecap:round;stroke-linejoin:round;stroke-miterlimit:3;paint-order:fill markers stroke;enable-background:accumulate;stop-color:#000000;stop-opacity:1"
         d="m -1095.8477,52.882812 a 0.2,0.2 0 0 0 -0.1113,0.259766 c 2.3752,5.956147 0.585,12.761434 -4.414,16.777344 a 0.2,0.2 0 0 0 -0.031,0.28125 0.2,0.2 0 0 0 0.2813,0.03125 c 5.1347,-4.124937 6.9748,-11.12043 4.5351,-17.238281 a 0.2,0.2 0 0 0 -0.2598,-0.111329 z"
         id="path591" /><path
         style="baseline-shift:baseline;display:inline;overflow:visible;opacity:1;vector-effect:none;fill:#ffffff;fill-opacity:1;stroke-linecap:round;stroke-linejoin:round;stroke-miterlimit:3;paint-order:fill markers stroke;enable-background:accumulate;stop-color:#000000;stop-opacity:1"
         d="m -1108.2285,43.611328 c -4.272,-0.366398 -8.5794,1.113158 -11.7481,4.203125 -4.2249,4.119954 -5.6395,10.336568 -3.6132,15.878906 2.0263,5.542328 7.1179,9.381223 13.0039,9.804688 a 0.2,0.2 0 0 0 0.2129,-0.185547 0.2,0.2 0 0 0 -0.1856,-0.212891 c -5.7299,-0.412237 -10.6837,-4.147596 -12.6562,-9.542968 -1.9726,-5.395383 -0.5953,-11.444364 3.5175,-15.455079 4.1129,-4.010717 10.1949,-5.234437 15.5391,-3.126953 a 0.2,0.2 0 0 0 0.2598,-0.113281 0.2,0.2 0 0 0 -0.1133,-0.259766 c -1.3725,-0.541221 -2.7928,-0.868101 -4.2168,-0.990234 z"
         id="path592" /><path
         style="baseline-shift:baseline;display:inline;overflow:visible;opacity:1;vector-effect:none;fill:#ffffff;fill-opacity:1;stroke-linecap:round;stroke-linejoin:round;stroke-miterlimit:3;paint-order:fill markers stroke;enable-background:accumulate;stop-color:#000000;stop-opacity:1"
         d="m -1135.6641,83.5625 -0.2578,0.304687 27.1192,22.947263 0.2578,-0.30468 z"
         id="path593" /><path
         style="baseline-shift:baseline;display:inline;overflow:visible;opacity:1;vector-effect:none;fill:#ffffff;fill-opacity:1;stroke-linecap:round;stroke-linejoin:round;stroke-miterlimit:3;paint-order:fill markers stroke;enable-background:accumulate;stop-color:#000000;stop-opacity:1"
         d="m -1135.6641,81.912109 -0.2578,0.304688 27.1192,22.947263 0.2578,-0.30664 z"
         id="path594" /><path
         style="baseline-shift:baseline;display:inline;overflow:visible;opacity:1;vector-effect:none;fill:#ffffff;fill-opacity:1;stroke-linecap:round;stroke-linejoin:round;stroke-miterlimit:3;paint-order:fill markers stroke;enable-background:accumulate;stop-color:#000000;stop-opacity:1"
         d="m -1135.6621,80.236328 -0.2598,0.304688 41,34.750004 0.2598,-0.30469 z"
         id="path595" /><path
         style="baseline-shift:baseline;display:inline;overflow:visible;opacity:1;vector-effect:none;fill:#ffffff;fill-opacity:1;stroke-linecap:round;stroke-linejoin:round;stroke-miterlimit:3;paint-order:fill markers stroke;enable-background:accumulate;stop-color:#000000;stop-opacity:1"
         d="m -1102.9551,44.554687 c -4.1021,-2.7e-5 -7.4316,3.329548 -7.4316,7.431641 0,4.102094 3.3295,7.431669 7.4316,7.431641 4.1021,-2.9e-5 7.4317,-3.329587 7.4317,-7.431641 0,-4.102053 -3.3296,-7.431612 -7.4317,-7.431641 z m 0,0.400391 c 3.8859,2.8e-5 7.0313,3.145372 7.0313,7.03125 0,3.885878 -3.1454,7.031223 -7.0313,7.03125 -3.8859,2.6e-5 -7.0312,-3.145333 -7.0312,-7.03125 0,-3.885916 3.1453,-7.031276 7.0312,-7.03125 z"
         id="path596" /><path
         style="baseline-shift:baseline;display:inline;overflow:visible;opacity:1;vector-effect:none;fill:#ffffff;fill-opacity:1;stroke-linecap:round;stroke-linejoin:round;stroke-miterlimit:3;paint-order:fill markers stroke;enable-background:accumulate;stop-color:#000000;stop-opacity:1"
         d="m -1063.7266,61.5625 -15.1308,12.287109 a 0.2,0.2 0 0 0 -0.027,0.28125 0.2,0.2 0 0 0 0.2813,0.0293 l 15.1308,-12.287109 a 0.2,0.2 0 0 0 0.027,-0.28125 0.2,0.2 0 0 0 -0.2813,-0.0293 z"
         id="path597" /><path
         style="baseline-shift:baseline;display:inline;overflow:visible;opacity:1;vector-effect:none;fill:#ffffff;fill-opacity:1;stroke-linecap:round;stroke-linejoin:round;stroke-miterlimit:3;paint-order:fill markers stroke;enable-background:accumulate;stop-color:#000000;stop-opacity:1"
         d="m -1063.3672,59.623047 -35.0469,28.460937 a 0.2,0.2 0 0 0 -0.029,0.28125 0.2,0.2 0 0 0 0.2813,0.0293 l 35.0469,-28.460937 a 0.2,0.2 0 0 0 0.029,-0.28125 0.2,0.2 0 0 0 -0.2813,-0.0293 z"
         id="path598" /><path
         style="baseline-shift:baseline;display:inline;overflow:visible;opacity:1;vector-effect:none;fill:#ffffff;fill-opacity:1;stroke-linecap:round;stroke-linejoin:round;stroke-miterlimit:3;paint-order:fill markers stroke;enable-background:accumulate;stop-color:#000000;stop-opacity:1"
         d="m -1043.0859,35.015625 c -0.8141,-0.06678 -1.6554,0.176981 -2.3262,0.746094 -1.3417,1.138181 -1.5072,3.154327 -0.3692,4.496093 1.1381,1.341749 3.1562,1.50703 4.4981,0.369141 1.3419,-1.137927 1.5069,-3.154111 0.3691,-4.496094 -0.5691,-0.670821 -1.3577,-1.048458 -2.1718,-1.115234 z m -0.033,0.396484 c 0.7112,0.05834 1.3992,0.388159 1.8984,0.976563 0.9981,1.177105 0.8528,2.935474 -0.3242,3.933594 -1.177,0.998085 -2.9334,0.85268 -3.9316,-0.324219 -0.9982,-1.176915 -0.8546,-2.933298 0.3223,-3.931641 0.5884,-0.499191 1.3219,-0.712635 2.0332,-0.654297 z"
         id="path599" /><path
         style="baseline-shift:baseline;display:inline;overflow:visible;opacity:1;vector-effect:none;fill:#ffffff;fill-opacity:1;stroke-linecap:round;stroke-linejoin:round;stroke-miterlimit:3;paint-order:fill markers stroke;enable-background:accumulate;stop-color:#000000;stop-opacity:1"
         d="m -1063.3672,57.943359 -35.5703,28.890625 a 0.2,0.2 0 0 0 -0.029,0.28125 0.2,0.2 0 0 0 0.2813,0.0293 l 35.5703,-28.890625 a 0.2,0.2 0 0 0 0.029,-0.28125 0.2,0.2 0 0 0 -0.2813,-0.0293 z"
         id="path600" /><path
         style="baseline-shift:baseline;display:inline;overflow:visible;opacity:1;vector-effect:none;fill:#ffffff;fill-opacity:1;stroke-linecap:round;stroke-linejoin:round;stroke-miterlimit:3;paint-order:fill markers stroke;enable-background:accumulate;stop-color:#000000;stop-opacity:1"
         d="m -1110.1875,38.667969 a 0.2,0.2 0 0 0 -0.1992,0.201172 v 13.214843 a 0.2,0.2 0 0 0 0.1992,0.199219 0.2,0.2 0 0 0 0.2012,-0.199219 V 38.869141 a 0.2,0.2 0 0 0 -0.2012,-0.201172 z"
         id="path601" /><path
         style="baseline-shift:baseline;display:inline;overflow:visible;opacity:1;vector-effect:none;fill:#ffffff;fill-opacity:1;stroke-linecap:round;stroke-linejoin:round;stroke-miterlimit:3;paint-order:fill markers stroke;enable-background:accumulate;stop-color:#000000;stop-opacity:1"
         d="m -1100.252,69.876953 a 0.2,0.2 0 0 0 -0.1953,0.205078 l 0.053,2.486328 a 0.2,0.2 0 0 0 0.205,0.195313 0.2,0.2 0 0 0 0.1954,-0.203125 l -0.055,-2.488281 a 0.2,0.2 0 0 0 -0.2032,-0.195313 z"
         id="path602" /><path
         style="baseline-shift:baseline;display:inline;overflow:visible;opacity:1;vector-effect:none;fill:#ffffff;fill-opacity:1;stroke-linecap:round;stroke-linejoin:round;stroke-miterlimit:3;paint-order:fill markers stroke;enable-background:accumulate;stop-color:#000000;stop-opacity:1"
         d="m -1110.5,73.111328 a 0.2,0.2 0 0 0 -0.2598,0.115234 c -0.2544,0.661795 -0.5235,1.283429 -1.1465,1.853516 a 0.2,0.2 0 0 0 -0.012,0.283203 0.2,0.2 0 0 0 0.2813,0.01172 c 0.6882,-0.629873 0.9916,-1.3318 1.25,-2.003906 a 0.2,0.2 0 0 0 -0.1133,-0.259766 z"
         id="path603" /><path
         style="baseline-shift:baseline;display:inline;overflow:visible;opacity:1;vector-effect:none;fill:#ffffff;fill-opacity:1;stroke-linecap:round;stroke-linejoin:round;stroke-miterlimit:3;paint-order:fill markers stroke;enable-background:accumulate;stop-color:#000000;stop-opacity:1"
         d="m -1128.3887,60.597656 a 0.2,0.2 0 0 0 -0.1758,0.222656 c 0.9573,8.089355 6.9194,14.694592 14.8692,16.470704 a 0.2,0.2 0 0 0 0.2402,-0.152344 0.2,0.2 0 0 0 -0.1523,-0.238281 c -7.7855,-1.739394 -13.6231,-8.204835 -14.5606,-16.126954 a 0.2,0.2 0 0 0 -0.2207,-0.175781 z"
         id="path604" /><path
         style="baseline-shift:baseline;display:inline;overflow:visible;opacity:1;vector-effect:none;fill:#ffffff;fill-opacity:1;stroke-linecap:round;stroke-linejoin:round;stroke-miterlimit:3;paint-order:fill markers stroke;enable-background:accumulate;stop-color:#000000;stop-opacity:1"
         d="m -1092.6875,58.355469 a 0.2,0.2 0 0 0 -0.1992,0.201172 v 25.134765 a 0.2,0.2 0 0 0 0.1992,0.201172 0.2,0.2 0 0 0 0.2012,-0.201172 V 58.556641 a 0.2,0.2 0 0 0 -0.2012,-0.201172 z"
         id="path605" /><path
         style="baseline-shift:baseline;display:inline;overflow:visible;opacity:1;vector-effect:none;fill:#ffffff;fill-opacity:1;stroke-linecap:round;stroke-linejoin:round;stroke-miterlimit:3;paint-order:fill markers stroke;enable-background:accumulate;stop-color:#000000;stop-opacity:1"
         d="m -1097.8613,46.755859 -30.5879,13.859375 a 0.20002,0.20002 0 0 0 -0.1153,0.154297 l -3.2558,23.125 a 0.20002,0.20002 0 0 0 0.3457,0.164063 l 33.8437,-36.986328 a 0.20002,0.20002 0 0 0 -0.2304,-0.316407 z m -0.7227,0.765625 -32.75,35.791016 3.1504,-22.378906 z"
         id="path606" /><path
         style="baseline-shift:baseline;display:inline;overflow:visible;opacity:1;vector-effect:none;fill:#ffffff;fill-opacity:1;stroke-linecap:round;stroke-linejoin:round;stroke-miterlimit:6;paint-order:fill markers stroke;enable-background:accumulate;stop-color:#000000;stop-opacity:1"
         d="m -1092.498,83.625 a 0.20002,0.20002 0 0 0 -0.3809,0.01172 l -7.5,26.68945 a 0.20002,0.20002 0 0 0 0.3203,0.20703 l 13,-10.999996 a 0.20002,0.20002 0 0 0 0.061,-0.21875 z m -0.168,0.734375 5.2441,14.957031 -12.3945,10.488284 z"
         id="path607" /><path
         style="baseline-shift:baseline;display:inline;overflow:visible;opacity:1;vector-effect:none;fill:#ffffff;fill-opacity:1;stroke-linecap:round;stroke-linejoin:round;stroke-miterlimit:6;paint-order:fill markers stroke;enable-background:accumulate;stop-color:#000000;stop-opacity:1"
         d="m -1108.6738,103.17969 a 0.2,0.2 0 0 0 -0.2012,0.19922 v 3.2832 a 0.2,0.2 0 0 0 0.2012,0.19922 0.2,0.2 0 0 0 0.1992,-0.19922 v -3.2832 a 0.2,0.2 0 0 0 -0.1992,-0.19922 z"
         id="path608" /><path
         style="baseline-shift:baseline;display:inline;overflow:visible;opacity:1;vector-effect:none;fill:#ffffff;fill-opacity:1;stroke-linecap:round;stroke-linejoin:round;stroke-miterlimit:3;paint-order:fill markers stroke;enable-background:accumulate;stop-color:#000000;stop-opacity:1"
         d="m -1081.8164,-201.53711 c -1.6615,0 -3.1545,0.89989 -4.2207,2.33203 -1.0663,1.43215 -1.7168,3.39971 -1.7168,5.57422 v 22.15234 c 0,2.17451 0.6505,4.14208 1.7168,5.57422 1.0662,1.43215 2.5592,2.33203 4.2207,2.33203 1.6614,0 3.1544,-0.89988 4.2207,-2.33203 1.0663,-1.43214 1.7168,-3.39971 1.7168,-5.57422 v -22.15234 c 0,-2.17451 -0.6505,-4.14208 -1.7168,-5.57422 -1.0663,-1.43214 -2.5593,-2.33203 -4.2207,-2.33203 z m 0,0.40039 c 1.5168,0 2.8908,0.81848 3.8984,2.17188 1.0077,1.35339 1.6367,3.23964 1.6367,5.33398 v 22.15234 c 0,2.09435 -0.629,3.98059 -1.6367,5.33399 -1.0076,1.35339 -2.3816,2.17187 -3.8984,2.17187 -1.5168,0 -2.8928,-0.81848 -3.9004,-2.17187 -1.0076,-1.3534 -1.6367,-3.23964 -1.6367,-5.33399 v -22.15234 c 0,-2.09434 0.6291,-3.98059 1.6367,-5.33398 1.0076,-1.3534 2.3836,-2.17188 3.9004,-2.17188 z"
         id="path609"
         transform="matrix(0.96289577,-0.26987354,0.16184638,0.98681597,0,0)" /><path
         style="baseline-shift:baseline;display:inline;overflow:visible;opacity:1;vector-effect:none;fill:#ffffff;fill-opacity:1;stroke-linecap:round;stroke-linejoin:round;stroke-miterlimit:6;paint-order:fill markers stroke;enable-background:accumulate;stop-color:#000000;stop-opacity:1"
         d="m -1081.1621,41.378906 a 0.2,0.2 0 0 0 -0.209,0.191406 c -0.2132,4.762522 1.6825,9.377503 5.1816,12.615235 3.4992,3.237739 8.2469,4.771113 12.9786,4.189453 a 0.2,0.2 0 0 0 0.1738,-0.224609 0.2,0.2 0 0 0 -0.2227,-0.173829 c -4.615,0.567329 -9.2452,-0.926018 -12.6582,-4.083984 -3.4129,-3.157958 -5.2606,-7.659507 -5.0527,-12.304687 a 0.2,0.2 0 0 0 -0.1914,-0.208985 z"
         id="path610" /><path
         style="baseline-shift:baseline;display:inline;overflow:visible;opacity:1;vector-effect:none;fill:#ffffff;fill-opacity:1;stroke-linecap:round;stroke-linejoin:round;stroke-miterlimit:6;paint-order:fill markers stroke;enable-background:accumulate;stop-color:#000000;stop-opacity:1"
         d="m -1048.6855,75.757812 a 0.2,0.2 0 0 0 -0.088,0.269532 l 8.4082,16.443359 a 0.2,0.2 0 0 0 0.2695,0.08789 0.2,0.2 0 0 0 0.086,-0.269532 l -8.4082,-16.443359 a 0.2,0.2 0 0 0 -0.2675,-0.08789 z"
         id="path611" /><path
         style="baseline-shift:baseline;display:inline;overflow:visible;opacity:1;vector-effect:none;fill:#ffffff;fill-opacity:1;stroke-linecap:round;stroke-linejoin:round;stroke-miterlimit:6;paint-order:fill markers stroke;enable-background:accumulate;stop-color:#000000;stop-opacity:1"
         d="m -814.95312,770.29102 c -1.26216,0 -2.26758,1.10409 -2.26758,2.44921 v 13.5 c 0,1.34512 1.00542,2.45118 2.26758,2.45118 1.26215,0 2.26757,-1.10606 2.26757,-2.45118 v -13.5 c 0,-1.34512 -1.00542,-2.44921 -2.26757,-2.44921 z m 0,0.40039 c 1.0285,0 1.86718,0.90095 1.86718,2.04882 v 13.5 c 0,1.14787 -0.83868,2.05079 -1.86718,2.05079 -1.02851,0 -1.86719,-0.90292 -1.86719,-2.05079 v -13.5 c 0,-1.14787 0.83868,-2.04882 1.86719,-2.04882 z"
         id="path612"
         transform="rotate(38.976317)" /><path
         style="baseline-shift:baseline;display:inline;overflow:visible;opacity:1;vector-effect:none;fill:#ffffff;fill-opacity:1;stroke-linecap:round;stroke-linejoin:round;stroke-miterlimit:6;paint-order:fill markers stroke;enable-background:accumulate;stop-color:#000000;stop-opacity:1"
         d="m -1112.1777,35 a 0.20002,0.20002 0 0 0 -0.1778,0.291016 l 1.9903,3.912109 a 0.20002,0.20002 0 0 0 0.3554,0 l 1.9922,-3.912109 A 0.20002,0.20002 0 0 0 -1108.1973,35 Z m 0.3261,0.400391 h 3.3282 l -1.6641,3.271484 z"
         id="path613" /><path
         style="baseline-shift:baseline;display:inline;overflow:visible;opacity:1;vector-effect:none;fill:#ffffff;fill-opacity:1;stroke-linecap:round;stroke-linejoin:round;stroke-miterlimit:6;paint-order:fill markers stroke;enable-background:accumulate;stop-color:#000000;stop-opacity:1"
         d="m -1078.1621,41.330078 a 0.2,0.2 0 0 0 -0.207,0.191406 c -0.3388,8.810168 6.4349,16.27735 15.2363,16.794922 a 0.2,0.2 0 0 0 0.2109,-0.1875 0.2,0.2 0 0 0 -0.1875,-0.210937 c -8.5885,-0.50505 -15.1919,-7.783837 -14.8613,-16.38086 a 0.2,0.2 0 0 0 -0.1914,-0.207031 z"
         id="path614" /><path
         style="baseline-shift:baseline;display:inline;overflow:visible;opacity:1;vector-effect:none;fill:#ffffff;fill-opacity:1;stroke-linecap:round;stroke-linejoin:round;stroke-miterlimit:3;paint-order:fill markers stroke;enable-background:accumulate;stop-color:#000000;stop-opacity:1"
         d="m -82.65625,-1052.7441 c -2.122921,0.01 -4.241667,0.6413 -6.068359,1.8945 a 0.2,0.2 0 0 0 -0.05273,0.2773 0.2,0.2 0 0 0 0.277344,0.053 c 3.518685,-2.4139 8.167976,-2.4332 11.707031,-0.049 a 0.2,0.2 0 0 0 0.277344,-0.055 0.2,0.2 0 0 0 -0.05469,-0.2774 c -1.837258,-1.2378 -3.963017,-1.8526 -6.085938,-1.8437 z"
         id="path615"
         transform="rotate(-90)" /><path
         style="baseline-shift:baseline;display:inline;overflow:visible;opacity:1;vector-effect:none;fill:#ffffff;fill-opacity:1;stroke-linecap:round;stroke-linejoin:round;stroke-miterlimit:6;paint-order:fill markers stroke;enable-background:accumulate;stop-color:#000000;stop-opacity:1"
         d="m -1080.082,56.601562 a 0.2,0.2 0 0 0 -0.2832,0.01758 0.2,0.2 0 0 0 0.017,0.283203 c 2.5077,2.220532 3.1828,5.859638 1.6387,8.832031 -1.5441,2.972394 -4.9095,4.511571 -8.168,3.736328 -3.2584,-0.775223 -5.569,-3.666282 -5.6093,-7.015625 a 0.2,0.2 0 0 0 -0.2032,-0.197266 0.2,0.2 0 0 0 -0.1972,0.203125 c 0.042,3.530723 2.483,6.581226 5.9179,7.398438 3.435,0.817232 6.9875,-0.80804 8.6153,-3.941406 1.6277,-3.133365 0.9149,-6.975612 -1.7285,-9.316407 z"
         id="path616" /></g></g></svg>
