<?xml version="1.0" encoding="UTF-8" standalone="no"?>
<!-- Created with Inkscape (http://www.inkscape.org/) -->

<svg
   version="1.1"
   id="svg1"
   width="1363.7867"
   height="1363.7866"
   viewBox="0 0 1363.7867 1363.7866"
   xmlns="http://www.w3.org/2000/svg"
   xmlns:svg="http://www.w3.org/2000/svg">
  <defs
     id="defs1" />
  <path
     id="rect1"
     style="fill:#5de2a9;stroke-width:8.31496;stroke-linecap:round;stroke-linejoin:round;stroke-miterlimit:6;paint-order:fill markers stroke"
     d="m 349.99997,2.8868644e-6 h 663.78663 c 193.9,0 350,156.0999971131356 350,349.9999971131356 v 663.7866 c 0,193.9 -156.1,350 -350,350 H 349.99997 c -193.9,0 -350.000004258246,-156.1 -350.000004258246,-350 V 350 C -3.4258246e-5,156.1 156.09997,2.8868644e-6 349.99997,2.8868644e-6 Z" />
  <g
     id="g1"
     transform="matrix(1.0263624,0,0,1.0263624,156.40578,1290.6632)"
     style="stroke-width:0.974313">
    <g
       id="g38"
       style="stroke-width:0.974313">
      <path
         style="fill:#f6ec8a;fill-opacity:1;stroke:#f6ec8a;stroke-width:8.10139;stroke-linecap:round;stroke-linejoin:round;stroke-miterlimit:6;stroke-opacity:1;paint-order:fill markers stroke"
         d="m 188.77425,-378.22447 c -5.00914,-4.81472 -19.90983,-19.59757 -38.17347,-37.8716 l -17.00318,-17.01284 17.21117,-17.21141 17.21116,-17.2114 29.2037,29.19886 29.2037,29.19885 -10.29617,10.30576 c -14.85253,14.86635 -23.7756,23.59393 -24.12242,23.59393 -0.068,0 -1.5235,-1.34557 -3.23449,-2.99015 z"
         id="path17" />
      <path
         style="fill:#ebb45a;fill-opacity:1;stroke:#ebb45a;stroke-width:8.10139;stroke-linecap:round;stroke-linejoin:round;stroke-miterlimit:6;stroke-opacity:1;paint-order:fill markers stroke"
         d="m 245.94493,-433.09126 c -3.92216,-3.72215 -9.84254,-9.59499 -32.903,-32.63873 l -23.42011,-23.40314 17.18902,-17.18926 17.18901,-17.18926 29.20129,29.20129 29.20129,29.20129 -11.19461,11.201 c -13.41161,13.41927 -22.89735,22.70015 -23.20123,22.70015 -0.0424,0 -0.97016,-0.8475 -2.06166,-1.88334 z"
         id="path18" />
      <g
         id="g35"
         style="fill:#5f6670;fill-opacity:1;stroke:#5f6670;stroke-width:0.974313;stroke-opacity:1">
        <path
           style="fill:#5f6670;fill-opacity:1;stroke:#5f6670;stroke-width:8.10137;stroke-linecap:round;stroke-linejoin:round;stroke-miterlimit:6;stroke-opacity:1;paint-order:fill markers stroke"
           d="m 366.96635,-312.09108 c -3.88879,-3.64154 -19.04028,-18.64577 -40.00765,-39.6188 l -17.3813,-17.386 13.21804,-13.21788 13.21804,-13.21788 29.19452,29.19903 29.19452,29.19903 -8.04203,8.07299 c -4.42311,4.44015 -9.20165,9.21207 -10.61896,10.60427 -4.33135,4.25461 -7.53651,7.27333 -7.72253,7.27333 -0.0456,0 -0.51929,-0.40864 -1.05265,-0.90809 z"
           id="path19" />
        <path
           style="fill:#5f6670;fill-opacity:1;stroke:#5f6670;stroke-width:8.10137;stroke-linecap:round;stroke-linejoin:round;stroke-miterlimit:6;stroke-opacity:1;paint-order:fill markers stroke"
           d="m 463.36165,-407.72683 c -2.60098,-2.33704 -13.29685,-12.915 -36.61454,-36.21091 l -21.1712,-21.15142 13.21794,-13.22056 13.21794,-13.22055 29.18047,29.18039 c 16.04925,16.04922 29.18046,29.19766 29.18046,29.21876 0,0.0772 -18.33134,18.40967 -20.68699,20.68832 -2.559,2.47537 -4.7244,4.51724 -5.31432,5.01114 l -0.35264,0.29525 z"
           id="path20" />
        <path
           style="fill:#5f6670;fill-opacity:1;stroke:#5f6670;stroke-width:8.10137;stroke-linecap:round;stroke-linejoin:round;stroke-miterlimit:6;stroke-opacity:1;paint-order:fill markers stroke"
           d="m 671.23741,-615.84314 c -3.13546,-2.87759 -16.27909,-15.88928 -38.28584,-37.90153 l -19.36027,-19.36511 13.21804,-13.21789 13.21805,-13.21788 29.19452,29.19903 29.19453,29.19903 -8.04203,8.07299 c -4.42312,4.44014 -9.20166,9.21206 -10.61897,10.60426 -4.37219,4.29473 -7.53648,7.27334 -7.72675,7.27334 -0.0479,0 -0.404,-0.29081 -0.79128,-0.64624 z"
           id="path21" />
        <path
           style="fill:#5f6670;fill-opacity:1;stroke:#5f6670;stroke-width:8.10137;stroke-linecap:round;stroke-linejoin:round;stroke-miterlimit:6;stroke-opacity:1;paint-order:fill markers stroke"
           d="m 815.16346,-759.91106 c -3.15843,-2.89991 -13.75393,-13.3799 -36.96618,-36.56322 l -20.63349,-20.60778 13.22131,-13.22131 13.22131,-13.22131 29.19405,29.19906 29.19405,29.19906 -7.74282,7.78021 c -7.76585,7.80335 -12.01664,12.01308 -15.21328,15.06631 -1.95441,1.86672 -3.31327,3.10406 -3.40892,3.10406 -0.036,0 -0.42569,-0.33079 -0.86603,-0.73508 z"
           id="path22" />
      </g>
      <g
         id="g36"
         style="fill:#c5ccd7;fill-opacity:1;stroke:#c5ccd7;stroke-width:0.974313;stroke-opacity:1">
        <path
           style="fill:#c5ccd7;fill-opacity:1;stroke:#c5ccd7;stroke-width:8.10139;stroke-linecap:round;stroke-linejoin:round;stroke-miterlimit:6;stroke-opacity:1;paint-order:fill markers stroke"
           d="m 399.34974,-183.66328 c -4.7491,-4.66446 -37.66952,-37.49679 -73.15648,-72.96074 l -64.52174,-64.47992 13.18065,-13.18616 13.18066,-13.18616 39.99015,39.98994 39.99015,39.98994 11.98574,-11.98574 11.98573,-11.98574 33.19395,33.19395 33.19395,33.19395 -6.19791,6.21138 c -11.41688,11.44168 -42.64221,42.39713 -43.42064,43.04536 l -0.76947,0.64077 z"
           id="path24" />
        <path
           style="fill:#c5ccd7;fill-opacity:1;stroke:#c5ccd7;stroke-width:8.10139;stroke-linecap:round;stroke-linejoin:round;stroke-miterlimit:6;stroke-opacity:1;paint-order:fill markers stroke"
           d="m 542.75941,-375.92867 -33.15665,-33.15689 12.02269,-12.02338 12.02269,-12.02338 -39.98992,-39.99013 -39.98992,-39.99012 13.18095,-13.18032 13.18095,-13.18032 73.18408,73.1842 73.18409,73.1842 -25.16619,25.16652 c -13.8414,13.84159 -25.19993,25.16653 -25.24116,25.16653 -0.0412,0 -14.99546,-14.92061 -33.23161,-33.15691 z"
           id="path26" />
        <path
           style="fill:#c5ccd7;fill-opacity:1;stroke:#c5ccd7;stroke-width:8.10139;stroke-linecap:round;stroke-linejoin:round;stroke-miterlimit:6;stroke-opacity:1;paint-order:fill markers stroke"
           d="m 705.13855,-485.8895 c -3.71273,-3.63356 -36.61041,-36.44688 -73.10597,-72.91851 l -66.35555,-66.31204 13.18465,-13.18527 13.18464,-13.18528 39.99013,39.98992 39.99012,39.98992 11.98617,-11.98547 11.98617,-11.98548 33.20204,33.2023 33.20206,33.2023 -20.28528,20.22966 c -19.32113,19.26818 -29.8021,29.56441 -30.09487,29.56441 -0.0736,0 -3.17158,-2.97292 -6.88431,-6.60646 z"
           id="path28" />
        <path
           style="fill:#c5ccd7;fill-opacity:1;stroke:#c5ccd7;stroke-width:8.10139;stroke-linecap:round;stroke-linejoin:round;stroke-miterlimit:6;stroke-opacity:1;paint-order:fill markers stroke"
           d="m 846.36853,-632.63404 c -5.24012,-5.15455 -38.14489,-37.96709 -73.12172,-72.91674 l -63.59422,-63.54482 13.1864,-13.18704 13.1864,-13.18703 39.99013,39.98992 39.99013,39.98992 11.98617,-11.98548 11.98617,-11.98547 33.20232,33.20257 33.20233,33.20258 -20.43556,20.37874 c -19.05253,18.99956 -29.651,29.41477 -29.93235,29.41477 -0.0653,0 -4.40607,-4.21736 -9.6462,-9.37192 z"
           id="path30" />
      </g>
      <g
         id="g37"
         style="fill:#e2e6ea;fill-opacity:1;stroke:#e2e6ea;stroke-width:0.974313;stroke-opacity:1">
        <path
           style="fill:#e2e6ea;fill-opacity:1;stroke:#e2e6ea;stroke-width:8.10139;stroke-linecap:round;stroke-linejoin:round;stroke-miterlimit:6;stroke-opacity:1;paint-order:fill markers stroke"
           d="m 327.46278,-128.59732 c -14.21901,-1.48241 -26.1945,-10.01851 -59.06608,-42.10212 -2.13808,-2.08684 -20.73555,-20.56963 -41.32771,-41.07287 l -37.44028,-37.27863 25.1931,-25.21508 25.1931,-25.21507 73.14241,73.23299 c 40.22833,40.27815 73.1277,73.27082 73.1097,73.31706 -0.0635,0.16326 -7.07448,6.63127 -8.67931,8.00712 -7.5639,6.48477 -16.77446,11.28293 -26.15331,13.62435 -3.13831,0.78348 -10.18271,1.99735 -14.41284,2.4836 -2.42793,0.27908 -7.80041,0.40197 -9.55878,0.21865 z"
           id="path23" />
        <path
           style="fill:#e2e6ea;fill-opacity:1;stroke:#e2e6ea;stroke-width:8.10139;stroke-linecap:round;stroke-linejoin:round;stroke-miterlimit:6;stroke-opacity:1;paint-order:fill markers stroke"
           d="m 446.8354,-279.93035 -33.19426,-33.19451 11.9857,-11.9857 11.98569,-11.98569 -39.98993,-39.99014 -39.98993,-39.99014 13.18056,-13.18055 13.18055,-13.18055 39.99002,39.98981 39.99002,39.98981 12.02343,-12.02272 12.02342,-12.02273 33.19416,33.19415 33.19415,33.19416 -37.18966,37.18965 -37.18966,37.18966 z"
           id="path25" />
        <path
           style="fill:#e2e6ea;fill-opacity:1;stroke:#e2e6ea;stroke-width:8.10139;stroke-linecap:round;stroke-linejoin:round;stroke-miterlimit:6;stroke-opacity:1;paint-order:fill markers stroke"
           d="m 644.4382,-418.65983 c -1.95365,-1.91373 -6.9462,-6.84198 -11.09456,-10.95167 -10.45764,-10.36016 -131.58253,-131.42626 -131.58253,-131.51866 0,-0.0412 9.51026,-9.58507 21.13392,-21.20852 l 21.13393,-21.13353 73.18457,73.18426 73.18457,73.18425 -14.8104,14.78624 c -13.46325,13.4413 -25.07732,24.88947 -26.89285,26.50874 l -0.70456,0.62839 z"
           id="path27" />
        <path
           style="fill:#e2e6ea;fill-opacity:1;stroke:#e2e6ea;stroke-width:8.10139;stroke-linecap:round;stroke-linejoin:round;stroke-miterlimit:6;stroke-opacity:1;paint-order:fill markers stroke"
           d="m 777.47374,-557.05013 c -3.57242,-3.59937 -16.14071,-16.22266 -27.92955,-28.05176 -11.78883,-11.8291 -23.78633,-23.87662 -26.66112,-26.77227 l -5.22688,-5.26482 11.91056,-11.91125 c 6.5508,-6.55119 11.91056,-11.97827 11.91056,-12.06016 0,-0.0819 -17.96187,-18.11086 -39.91526,-40.06437 l -39.91526,-39.91547 13.1806,-13.18059 13.18059,-13.1806 73.17476,73.18433 73.17477,73.18432 -25.19423,25.28847 -25.19422,25.28848 z"
           id="path29" />
        <path
           style="fill:#e2e6ea;fill-opacity:1;stroke:#e2e6ea;stroke-width:8.10139;stroke-linecap:round;stroke-linejoin:round;stroke-miterlimit:6;stroke-opacity:1;paint-order:fill markers stroke"
           d="m 922.19164,-700.8137 c -3.15915,-3.05912 -18.07697,-17.87602 -33.15072,-32.92643 l -27.4068,-27.36439 11.98581,-11.99224 11.98582,-11.99224 -39.98996,-39.99018 -39.98997,-39.99017 25.20429,-25.20378 25.20429,-25.20379 8.92259,8.96136 c 4.90742,4.92874 16.21957,16.28726 25.13812,25.24114 44.29802,44.47359 54.18542,54.52741 63.01949,64.08023 15.55344,16.81889 20.90637,25.19038 22.32525,34.91461 0.56454,3.86901 0.59187,11.32234 0.0702,19.14567 -1.10766,16.61144 -5.5275,25.0077 -22.83966,43.38789 -1.35402,1.43755 -6.4959,6.67065 -11.42641,11.62911 -8.6512,8.70025 -12.91893,12.86525 -13.18261,12.86525 -0.0692,0 -2.71059,-2.50292 -5.86975,-5.56204 z"
           id="path31" />
      </g>
      <path
         style="fill:#afdbd2;fill-opacity:1;stroke:#afdbd2;stroke-width:8.10139;stroke-linecap:round;stroke-linejoin:round;stroke-miterlimit:6;stroke-opacity:1;paint-order:fill markers stroke"
         d="m 366.12052,-616.8596 c -1.01283,-0.93237 -6.93528,-6.77017 -13.16101,-12.97288 l -11.3195,-11.27767 61.16701,-61.16115 61.16701,-61.16115 13.18067,13.1807 13.18068,13.1807 -45.01666,44.99333 c -38.77782,38.75772 -70.53667,70.35535 -75.83769,75.45271 l -1.519,1.46064 z"
         id="path32" />
      <path
         style="fill:#765e4c;fill-opacity:1;stroke:#765e4c;stroke-width:8.10138;stroke-linecap:round;stroke-linejoin:round;stroke-miterlimit:6;stroke-opacity:1;paint-order:fill markers stroke"
         d="m 377.34654,-545.52067 c -1.5374,-0.16659 -13.78472,-2.66651 -17.53136,-3.57848 -20.75011,-5.05079 -35.04075,-14.55244 -64.42086,-42.83261 -4.87816,-4.69553 -49.63854,-48.98555 -49.63854,-49.11691 0,-0.0623 49.11808,-49.23121 109.15129,-109.26434 l 109.15129,-109.15114 24.20049,24.45155 c 32.18345,32.51731 37.66474,38.26231 45.79923,48.0027 10.75392,12.87697 15.5087,21.68881 20.72527,38.40932 4.05544,12.99882 4.62924,17.39011 4.62734,35.41246 -0.002,18.96035 -0.64141,23.3988 -5.52284,38.33663 -7.39871,22.64106 -14.88764,32.63286 -53.10046,70.84722 -11.18129,11.18175 -19.90767,19.65694 -25.46938,24.73617 -16.99665,15.52226 -27.2494,22.11375 -42.54362,27.35128 -3.56287,1.2201 -11.92889,3.67318 -14.04575,4.11847 -3.78373,0.79593 -14.41772,1.77713 -23.92081,2.20718 -4.50823,0.20402 -15.80831,0.24964 -17.46129,0.0705 z m 24.8531,-60.24214 c 18.68459,-18.57681 55.90467,-55.71749 82.71129,-82.53486 l 48.7393,-48.75885 -34.85159,-34.85111 -34.85159,-34.85111 -82.7985,82.79831 -82.79851,82.79831 26.9834,27.00023 c 27.61881,27.63604 42.33646,42.17509 42.69317,42.17509 0.11058,0 15.48845,-15.1992 34.17303,-33.77601 z"
         id="path33" />
      <g
         id="g34"
         style="fill:#ecb86c;fill-opacity:1;stroke:#ecb86c;stroke-width:0.974313;stroke-opacity:1">
        <path
           style="fill:#ecb86c;fill-opacity:1;stroke:#ecb86c;stroke-width:8.1014;stroke-linecap:round;stroke-linejoin:round;stroke-miterlimit:6;stroke-opacity:1;paint-order:fill markers stroke"
           d="m 159.1752,-279.54547 c -18.88555,-18.20977 -84.389795,-85.26368 -98.678827,-101.01333 -3.439274,-3.79084 -3.781314,-4.28334 -5.704968,-8.21458 -4.537847,-9.27367 -6.531383,-17.8759 -6.543622,-28.23609 -0.0063,-5.35131 0.266774,-8.27655 1.226309,-13.13549 1.458354,-7.38489 5.705551,-17.52601 9.015404,-21.52628 7.198828,-8.70045 24.125641,-25.94158 108.135594,-110.14364 l 57.309,-57.44005 23.44227,23.23755 c 12.89324,12.78065 26.49213,26.17671 30.21976,29.76902 28.87281,27.82474 40.59996,35.93888 63.05655,43.62947 12.12842,4.15357 23.70592,6.56507 39.75678,8.28102 8.25971,0.88303 21.99017,0.97212 26.25443,0.17036 1.54306,-0.29012 2.85461,-0.47846 2.91453,-0.41853 0.44386,0.44385 -4.71474,6.10215 -18.43744,20.22338 -12.4438,12.8052 -199.5031,199.8819 -214.07678,214.09669 l -9.26452,9.03636 z m 105.63279,-124.57904 61.08656,-60.92255 -50.78068,-50.80459 c -27.92936,-27.94252 -50.91535,-50.80459 -51.07996,-50.80459 -0.16461,0 -30.34195,30.04289 -67.06076,66.76198 l -66.761477,66.76197 35.845057,35.86686 c 19.71478,19.72678 42.60221,42.52446 50.86095,50.66151 l 15.01589,14.79465 5.89393,-5.69634 c 3.24166,-3.13299 33.38288,-33.11149 66.98049,-66.6189 z"
           id="path16" />
        <path
           style="fill:#ecb86c;fill-opacity:1;stroke:#ecb86c;stroke-width:8.1014;stroke-linecap:round;stroke-linejoin:round;stroke-miterlimit:6;stroke-opacity:1;paint-order:fill markers stroke"
           d="m 590.55048,-696.52118 c 4.02066,-15.62209 -1.85078,-54.18169 -11.79188,-77.44103 -4.75969,-11.13631 -9.85561,-19.73052 -16.82647,-28.37762 -7.70342,-9.55581 -13.79187,-15.9529 -48.95367,-51.43527 l -27.14151,-27.38897 60.57269,-60.43752 c 68.1065,-67.95451 82.45928,-82.17351 92.0943,-91.23591 14.40311,-13.5472 19.12393,-17.1384 26.33642,-20.0344 7.36555,-2.9575 13.38141,-3.815 25.18384,-3.5898 11.34297,0.2165 16.75169,1.3477 24.49437,5.1229 9.38828,4.5776 14.61535,9.4537 80.50282,75.09798 l 39.2806,39.13558 -86.16115,86.12687 c -86.72901,86.69449 -143.31475,142.98426 -149.6718,148.88896 -4.06401,3.77482 -7.23852,6.38968 -7.75724,6.38968 -0.25874,0 -0.30808,-0.25124 -0.16132,-0.82145 z m 38.31733,-122.27873 c 8.66589,-2.86313 12.85098,-12.8961 8.83093,-21.17054 -1.10953,-2.28374 -4.23191,-5.33726 -6.68853,-6.54103 -6.10383,-2.99094 -12.81429,-2.08289 -17.44122,2.36011 -3.11732,2.99342 -4.64504,6.62576 -4.64504,11.04423 0,2.61468 0.55978,5.03161 1.67514,7.23266 0.93192,1.83906 3.66813,4.7941 5.35438,5.78261 3.75889,2.20353 8.66863,2.6947 12.91434,1.29196 z M 579.96937,-866.442 c 4.26617,-1.25309 7.81926,-4.30025 9.74668,-8.35884 1.00028,-2.1063 1.10617,-2.58084 1.22625,-5.49524 0.10019,-2.4318 0.01,-3.61035 -0.37938,-4.9592 -1.50169,-5.20162 -5.12964,-8.86616 -10.29483,-10.39867 -1.847,-0.548 -6.03526,-0.62942 -8.08568,-0.15719 -4.61419,1.0627 -8.8003,4.93374 -10.47074,9.68266 -0.79581,2.26243 -1.06693,6.03042 -0.59671,8.29301 1.05201,5.06197 5.03747,9.51928 10.05439,11.24476 2.22542,0.76539 6.45707,0.8369 8.80002,0.14871 z m 97.06087,-0.27424 c 8.75083,-3.53529 12.52583,-13.06017 8.46164,-21.34997 -2.5438,-5.18864 -7.40349,-8.07435 -13.58286,-8.06557 -4.04743,0.006 -7.10428,1.1194 -9.94222,3.62208 -5.4148,4.77511 -6.71703,13.66208 -2.87848,19.64395 1.77254,2.76227 4.91314,5.19432 8.2117,6.35906 2.03959,0.72019 7.73231,0.5976 9.73022,-0.20955 z m -50.1317,-47.47596 c 5.63311,-1.1939 10.31374,-5.61216 11.73792,-11.07994 1.80136,-6.9159 -1.50519,-14.39572 -7.65135,-17.30826 -9.00086,-4.26532 -19.17444,0.23975 -21.60377,9.56658 -0.56212,2.15814 -0.58664,6.04959 -0.0507,8.05281 1.24891,4.66842 4.96216,8.63552 9.60019,10.25649 2.95804,1.03382 4.91382,1.15957 7.96774,0.51232 z m 97.79213,-0.46873 c 6.4065,-2.20416 10.31867,-7.66111 10.32851,-14.40689 0.007,-4.48489 -1.34065,-7.85611 -4.33411,-10.84563 -7.02615,-7.01692 -19.34967,-5.23066 -23.92025,3.46717 -3.39415,6.45907 -2.09815,14.37011 3.08052,18.80409 4.17807,3.57726 9.81989,4.71027 14.84533,2.98126 z m -49.69144,-47.52109 c 3.67464,-0.7663 7.69561,-3.56345 9.77036,-6.79666 4.66025,-7.26237 2.11073,-17.45918 -5.34492,-21.37701 -7.57901,-3.98266 -16.75233,-1.4018 -20.58654,5.7919 -2.53402,4.75431 -2.67951,9.70544 -0.4216,14.34794 2.94963,6.06476 9.89338,9.4288 16.5827,8.03383 z"
           id="path34" />
      </g>
      <path
         style="fill:#1f1915;fill-opacity:1;stroke-width:0.974313"
         d="m 327.5,-98.21301 c -15.24597,-1.1658 -30.67988,-6.7398 -43.73795,-15.79604 -12.2015,-8.46219 -247.108994,-244.36028 -253.128233,-254.19567 -19.052888,-31.13226 -18.517032,-70.15827 1.373641,-100.04139 6.130794,-9.21072 593.708472,-596.98779 603.754592,-603.95949 30.59645,-21.233 72.2941,-21.5934 103.37515,-0.8934 9.14382,6.0898 245.07199,241.82242 251.96095,251.75214 21.23105,30.60237 21.59165,72.28023 0.89439,103.37515 -7.17964,10.78647 -594.05328,597.34114 -605.14068,604.81178 -17.34407,11.68632 -37.05977,16.65152 -59.35186,14.94692 z m 21.16203,-32.37772 c 10.93661,-2.06765 22.18698,-7.86297 30.83797,-15.88535 l 7,-6.49136 -73.24919,-73.31907 -73.24919,-73.31907 -25.25081,25.26614 -25.25081,25.26614 54.5,54.34865 c 67.97072,67.78196 72.07223,70.29525 104.66203,64.13392 z m 109.82859,-94.5238 -66.47685,-66.47685 -12.01236,11.98107 -12.01237,11.98107 -39.99451,-39.98513 -39.9945,-39.98514 -13.24637,13.24638 -13.24637,13.24637 72.99378,72.99892 c 40.14659,40.14941 73.22332,72.99893 73.50386,72.99893 0.40964,0 8.49374,-7.98847 50.48569,-50.00562 z m 96.00243,-95.99757 -66.47928,-66.47928 -12.01236,11.98107 -12.01237,11.98107 -39.99451,-39.98513 -39.9945,-39.98514 -13.24531,13.24532 -13.24532,13.24531 39.98514,39.9945 39.98513,39.99451 -11.97917,12.01046 -11.97917,12.01046 66.48253,66.50251 z m -264.74459,-71.24527 c 121.58485,-121.58175 123.46977,-123.5251 118.63466,-122.31156 -11.26441,2.82719 -42.89162,-0.29151 -61.38312,-6.05288 -30.2227,-9.41643 -40.50501,-16.84342 -86.27983,-62.32056 l -36.77983,-36.54065 -81.82224,81.98706 c -61.588344,61.7124 -82.70259,83.4708 -85.382223,87.98705 -11.677065,19.68053 -11.673749,45.35724 0.0084,65 3.099663,5.21188 109.216583,113.5 111.224303,113.5 0.29059,0 55.09154,-54.56181 121.77988,-121.24846 z m -148.74985,9.74707 -50.493961,-50.50139 66.747531,-66.74752 66.74752,-66.74753 50.74813,50.74812 50.74812,50.74812 -66.49516,66.5008 c -36.57233,36.57543 -66.72309,66.50079 -67.00168,66.50079 -0.2786,0 -23.22882,-22.72562 -51.0005,-50.50139 z m 68.50583,-9.50306 16.98239,-17.00445 -29.24267,-29.24267 -29.24267,-29.24267 -17.2457,17.2457 -17.2457,17.2457 28.98849,29.00142 c 15.94367,15.95078 29.22136,29.00142 29.50599,29.00142 0.28462,0 8.15957,-7.652 17.49987,-17.00445 z m 56,-56 16.98239,-17.00445 -29.24267,-29.24267 -29.24267,-29.24267 -17.2457,17.2457 -17.2457,17.2457 28.98849,29.00142 c 15.94367,15.95078 29.22136,29.00142 29.50599,29.00142 0.28462,0 8.15957,-7.652 17.49987,-17.00445 z m 116.0017,123.9983 12.97728,-13.00616 -29.24042,-29.24042 -29.24042,-29.24042 -13.2457,13.2457 -13.2457,13.2457 28.98795,29.00088 c 15.94336,15.95048 29.22234,29.00087 29.50883,29.00087 0.28649,0 6.36067,-5.85277 13.49818,-13.00615 z m 244.9855,-69.0005 -73.24389,-73.24389 -73.24389,-73.24389 -13.24723,13.24723 -13.24723,13.24723 39.98514,39.9945 39.98513,39.99451 -11.97917,12.01046 -11.97917,12.01046 L 576,-342.53561 Z m -148.9855,-26.9995 12.97728,-13.00616 -29.24042,-29.24042 -29.24042,-29.24042 -13.2457,13.2457 -13.2457,13.2457 28.98795,29.00088 c 15.94336,15.95048 29.22234,29.00087 29.50883,29.00087 0.28649,0 6.36067,-5.85277 13.49818,-13.00615 z m 191.9979,-15.99789 20.98617,-21.00404 -73.24406,-73.24406 -73.24406,-73.24407 -21.24829,21.24829 -21.24829,21.24829 72.99468,72.99982 c 40.14707,40.14989 73.22485,72.99981 73.50617,72.99981 0.28133,0 9.95528,-9.45182 21.49768,-21.00404 z m 67.99877,-67.99877 24.98781,-25.00281 -66.47685,-66.47685 -24.02473,23.96214 -79.98901,-79.97027 -13.24637,13.24638 -13.24637,13.24637 72.99378,72.99892 c 40.14659,40.14941 73.22332,72.99893 73.50386,72.99893 0.28054,0 11.75459,-11.25127 25.49788,-25.00281 z M 420,-547.95471 c 30.34688,-8.19907 39.52092,-14.54679 81.06417,-56.09003 38.28183,-38.28184 45.893,-48.51533 53.22591,-71.56417 4.75563,-14.94794 5.20992,-18.21784 5.20992,-37.5 0,-19.28216 -0.45429,-22.55206 -5.20992,-37.5 -7.41866,-23.31837 -14.52473,-32.75649 -56.46842,-75 l -33.75869,-34 -109.28148,109.28695 -109.28149,109.28695 34,33.74221 c 46.12245,45.77274 58.84208,54.41173 88.5,60.10787 3.025,0.58098 6.4,1.26061 7.5,1.51028 5.69713,1.29308 37.26066,-0.32415 44.5,-2.28006 z m -87.00234,-58.65654 -34.49147,-34.50234 82.74638,-82.74638 82.74639,-82.74639 34.74848,34.74849 34.74849,34.74849 -82.49569,82.50023 c -45.37263,45.37513 -82.72416,82.50024 -83.0034,82.50024 -0.27924,0 -16.02887,-15.52605 -34.99918,-34.50234 z m 96.50152,-69.49684 60.99303,-60.99918 -13.24795,-13.24795 -13.24796,-13.24795 -61.24042,61.24042 -61.24042,61.24042 12.97784,13.00671 c 7.13782,7.15369 13.21072,13.00671 13.49535,13.00671 0.28462,0 27.96436,-27.44963 61.51053,-60.99918 z m 404.99246,74.99253 -73.24389,-73.24389 -73.24389,-73.24389 -13.24723,13.24723 -13.24723,13.24723 79.97027,79.98901 -23.95834,24.02092 66.48125,66.71269 z m -148.9855,-26.9995 12.97728,-13.00616 -29.24042,-29.24042 -29.24042,-29.24042 -13.2457,13.2457 -13.2457,13.2457 28.98795,29.00088 c 15.94336,15.95048 29.22234,29.00087 29.50883,29.00087 0.28649,0 6.36067,-5.85277 13.49818,-13.00615 z m 195.99667,-19.99666 24.98781,-25.00281 -33.23843,-33.23843 -33.23842,-33.23842 -12.01236,11.98107 -12.01237,11.98107 -79.98901,-79.97027 -13.24637,13.24638 -13.24637,13.24637 72.99378,72.99892 c 40.14659,40.14941 73.22332,72.99893 73.50386,72.99893 0.28054,0 11.75459,-11.25127 25.49788,-25.00281 z M 713.00154,-815.62226 834.5,-937.13562 l -54,-53.83134 c -56.67654,-56.49954 -58.86547,-58.41054 -72.5,-63.29434 -9.50809,-3.4057 -30.49191,-3.4057 -40,0 -14.07256,5.0407 -14.19548,5.1524 -100.4991,91.28254 l -81.99911,81.83428 35.59527,35.76778 c 41.81677,42.01944 48.0111,49.69532 57.36328,71.08329 10.00425,22.87923 15.98545,61.60721 11.97964,77.56762 -1.21363,4.83549 0.73157,2.94845 122.56156,-118.89647 z m -96.76068,-4.48125 c -4.55758,-2.77879 -7.23338,-7.5898 -7.23338,-13.0054 0,-5.4156 2.6758,-10.22661 7.23338,-13.0054 6.82374,-4.16049 16.52336,-1.70983 20.76454,5.24626 6.00568,9.8501 -1.36917,22.75166 -13.0054,22.75166 -2.73019,0 -5.78179,-0.78151 -7.75914,-1.98712 z m -48,-48 c -13.00783,-7.93097 -7.44662,-27.99792 7.75914,-27.99792 8.53216,0 14.99252,6.46036 14.99252,14.99252 0,11.63623 -12.90156,19.01108 -22.75166,13.0054 z m 96,0 c -13.00783,-7.93097 -7.44662,-27.99792 7.75914,-27.99792 8.53216,0 14.99252,6.46036 14.99252,14.99252 0,11.63623 -12.90156,19.01108 -22.75166,13.0054 z m -48,-48 c -13.00783,-7.93097 -7.44662,-27.99792 7.75914,-27.99792 8.53216,0 14.99252,6.46036 14.99252,14.99252 0,11.63623 -12.90156,19.01108 -22.75166,13.0054 z m 96,0 c -13.00783,-7.93097 -7.44662,-27.99792 7.75914,-27.99792 8.53216,0 14.99252,6.46036 14.99252,14.99252 0,11.63623 -12.90156,19.01108 -22.75166,13.0054 z m -48,-48 c -13.00783,-7.93097 -7.44662,-27.99792 7.75914,-27.99792 8.53216,0 14.99252,6.46036 14.99252,14.99252 0,11.63623 -12.90156,19.01108 -22.75166,13.0054 z m 281.89214,251.2446 c 24.40304,-24.79317 28.84043,-32.84673 29.6457,-53.80488 1.05546,-27.46936 0.75213,-27.90682 -65.48762,-94.44512 l -54.25547,-54.5 -25.26422,25.24889 -25.26423,25.2489 79.97251,79.99125 -11.97917,12.01046 -11.97917,12.01046 32.98365,32.99502 c 18.14101,18.14726 33.24773,32.99502 33.57049,32.99502 0.32276,0 8.44865,-7.9875 18.05753,-17.75 z m -116.62686,-59.25615 12.97728,-13.00616 -29.24042,-29.24042 -29.24042,-29.24042 -13.2457,13.2457 -13.2457,13.2457 28.98795,29.00088 c 15.94336,15.95048 29.22234,29.00087 29.50883,29.00087 0.28649,0 6.36067,-5.85277 13.49818,-13.00615 z"
         id="path15" />
    </g>
  </g>
</svg>
