<?xml version="1.0" encoding="UTF-8" standalone="no"?>
<!-- Created with Inkscape (http://www.inkscape.org/) -->

<svg
   width="123.90303mm"
   height="123.90307mm"
   viewBox="0 0 123.90303 123.90307"
   version="1.1"
   id="svg1"
   xml:space="preserve"
   xmlns="http://www.w3.org/2000/svg"
   xmlns:svg="http://www.w3.org/2000/svg"><defs
     id="defs1" /><g
     id="layer6"
     transform="translate(892.77235,463.90305)"><path
       id="rect244"
       style="fill:#fbf7ee;fill-opacity:1;stroke-width:3;stroke-linecap:round;stroke-linejoin:round;stroke-miterlimit:6;paint-order:fill markers stroke"
       d="m -861.6417,-463.90305 h 61.64167 c 17.24641,0 31.1307,13.88429 31.1307,31.1307 v 61.64168 c 0,17.2464 -13.88429,31.13069 -31.1307,31.13069 h -61.64167 c -17.24641,0 -31.1307,-13.88429 -31.1307,-31.13069 v -61.64168 c 0,-17.24641 13.88429,-31.1307 31.1307,-31.1307 z" /><g
       id="g256"
       transform="matrix(1.0201503,0,0,0.9181886,17.100548,-479.57511)"
       style="fill:#24140f;fill-opacity:1;stroke:#000000;stroke-width:2.27313;stroke-dasharray:none;stroke-opacity:1"><g
         id="g245"
         style="opacity:1;fill:#24140f;fill-opacity:1;stroke:#000000;stroke-width:2.27313;stroke-dasharray:none;stroke-opacity:1"><g
           id="path244"
           style="opacity:1;fill:#24140f;fill-opacity:1"><path
             style="baseline-shift:baseline;display:inline;overflow:visible;vector-effect:none;fill:#24140f;fill-opacity:1;stroke:none;stroke-linecap:round;stroke-linejoin:round;stroke-miterlimit:3;paint-order:fill markers stroke;enable-background:accumulate;stop-color:#000000;stop-opacity:1"
             d="m -832.19436,37.997168 c 3.96327,-0.0298 5.59047,2.56986 5.44829,6.28754 l 1.06233,20.27872 c -0.0212,1.72041 -3.02464,1.69449 -3.37248,-0.11597 -2.6691,-13.72285 -5.97554,-19.82381 -17.7482,-22.88085 -2.59279,-0.70325 -1.87036,-3.5694 -0.0155,-3.52766 z"
             id="path257" /><path
             style="baseline-shift:baseline;display:inline;overflow:visible;vector-effect:none;fill:#24140f;fill-opacity:1;stroke:none;stroke-linecap:round;stroke-linejoin:round;stroke-miterlimit:3;paint-order:fill markers stroke;enable-background:accumulate;stop-color:#000000;stop-opacity:1"
             d="m -832.20312,36.861328 -14.5918,0.04102 c -1.51572,-0.03411 -2.66781,1.169725 -2.81445,2.496093 -0.14665,1.326369 0.80918,2.804901 2.50781,3.265625 a 1.1366786,1.1366786 0 0 0 0.0117,0.002 c 5.73335,1.488797 9.19196,3.620354 11.65429,7.009765 2.46233,3.389411 3.93989,8.182209 5.26368,14.988281 0.28887,1.49829 1.6835,2.273745 2.89843,2.300782 0.60771,0.01352 1.23125,-0.126051 1.77149,-0.519532 0.54023,-0.39348 0.9457,-1.106428 0.95508,-1.867187 a 1.1366786,1.1366786 0 0 0 -0.002,-0.07422 l -1.0625,-20.279297 0.002,0.103516 c 0.0778,-2.034408 -0.3168,-3.900476 -1.43165,-5.300781 -1.11379,-1.398982 -2.92785,-2.181267 -5.15625,-2.166016 z m 0.0117,2.271484 a 1.1366786,1.1366786 0 0 0 0.006,0 c 1.73198,-0.01302 2.71121,0.489052 3.36524,1.310547 0.65403,0.821496 1.00383,2.115557 0.93945,3.798828 a 1.1366786,1.1366786 0 0 0 0,0.101563 l 1.05859,20.210937 c 0.002,0.06128 0.0182,0.02668 -0.0176,0.05273 -0.0398,0.02895 -0.19354,0.09015 -0.38282,0.08594 -0.37855,-0.0084 -0.65705,-0.149957 -0.71679,-0.460937 a 1.1366786,1.1366786 0 0 0 -0.002,-0.002 c -1.34531,-6.916777 -2.85492,-12.034584 -5.65625,-15.890625 -2.80132,-3.856042 -6.88257,-6.304804 -12.92187,-7.873047 l 0.0117,0.002 c -0.89416,-0.242525 -0.87188,-0.548229 -0.8418,-0.820313 0.0301,-0.272083 0.16476,-0.480288 0.50391,-0.472656 a 1.1366786,1.1366786 0 0 0 0.0293,0 z"
             id="path258" /></g><g
           id="path245"
           style="opacity:1;fill:#24140f;fill-opacity:1"><path
             style="baseline-shift:baseline;display:inline;overflow:visible;vector-effect:none;fill:#24140f;fill-opacity:1;stroke:none;stroke-linecap:round;stroke-linejoin:round;stroke-miterlimit:3;paint-order:fill markers stroke;enable-background:accumulate;stop-color:#000000;stop-opacity:1"
             d="m -832.20508,36.527344 -14.58203,0.04102 c -1.68846,-0.038 -2.99053,1.311804 -3.1543,2.792969 -0.16376,1.481166 0.93521,3.132238 2.75196,3.625 a 1.470467,1.470467 0 0 0 0.0156,0.0039 c 5.68844,1.477132 9.05619,3.559962 11.46875,6.88086 2.41205,3.320199 3.88467,8.065986 5.20508,14.853515 0.32162,1.673983 1.88241,2.544437 3.2207,2.574219 0.66915,0.01489 1.3609,-0.136981 1.97461,-0.583984 0.61372,-0.447003 1.08123,-1.274955 1.0918,-2.132813 a 1.470467,1.470467 0 0 0 -0.002,-0.0957 l -1.0625,-20.279297 v 0.134766 c 0.0798,-2.085965 -0.32141,-4.036195 -1.50391,-5.521485 -1.18143,-1.483946 -3.11611,-2.30876 -5.41797,-2.292968 z m 0.0156,2.939453 a 1.470467,1.470467 0 0 0 0.006,0 c 1.65867,-0.01247 2.51714,0.449036 3.10351,1.185547 0.58637,0.736511 0.92764,1.944456 0.86524,3.576172 a 1.470467,1.470467 0 0 0 0,0.132812 l 1.04687,19.992188 c -0.0263,0.0042 -0.0131,0.0066 -0.0469,0.0059 -0.25569,-0.0057 -0.37222,-0.05298 -0.39844,-0.189453 a 1.470467,1.470467 0 0 0 0,-0.0039 c -1.34848,-6.933032 -2.86179,-12.098883 -5.71289,-16.023438 -2.84842,-3.920863 -7.01884,-6.413998 -13.09375,-7.994141 l -0.002,-0.002 c -0.76648,-0.209182 -0.61058,-0.344074 -0.59766,-0.460937 0.013,-0.117287 -3.8e-4,-0.179526 0.16601,-0.175781 a 1.470467,1.470467 0 0 0 0.0371,0 z"
             id="path259" /><path
             style="baseline-shift:baseline;display:inline;overflow:visible;vector-effect:none;fill:#24140f;fill-opacity:1;stroke:none;stroke-linecap:round;stroke-linejoin:round;stroke-miterlimit:3;paint-order:fill markers stroke;enable-background:accumulate;stop-color:#000000;stop-opacity:1"
             d="m -832.20898,35.390625 -14.55274,0.04102 c -2.30687,-0.05192 -4.08079,1.744431 -4.30859,3.804687 -0.23494,2.124903 1.25994,4.217299 3.58398,4.847656 a 1.1366786,1.1366786 0 0 0 0.0156,0.0039 c 0.009,0.0024 0.0181,0.0036 0.0273,0.0059 5.53164,1.438727 8.57091,3.351694 10.81836,6.445312 2.23865,3.081507 3.70064,7.672822 5.00977,14.402344 0.43718,2.27013 2.49995,3.453848 4.31054,3.494141 0.85841,0.0191 1.82671,-0.188568 2.66992,-0.802735 0.93156,-0.678501 1.54305,-1.775421 1.5586,-3.037109 6.5e-4,-0.05593 -9.6e-4,-0.112113 -0.004,-0.167969 v -0.002 l -1.0625,-20.277344 a 1.1366786,1.1366786 0 0 0 -0.0254,-0.02344 c 0.0435,-2.168567 -0.37321,-4.314283 -1.72461,-6.011719 -1.42982,-1.795942 -3.7356,-2.739831 -6.3125,-2.722656 a 1.1366786,1.1366786 0 0 0 -0.004,0 z m 0.004,2.273437 h 0.004 0.002 a 1.1366786,1.1366786 0 0 0 0.008,0 c 2.02601,-0.0139 3.58883,0.691804 4.52149,1.863282 0.95857,1.204021 1.32906,2.857977 1.25586,4.771484 v 0.04297 a 1.1366786,1.1366786 0 0 0 0.006,0.0059 l 1.05859,20.197266 a 1.1366786,1.1366786 0 0 0 0,0.002 c 3.9e-4,0.0072 9e-5,0.01424 0,0.02148 -0.006,0.454029 -0.32912,1.013011 -0.625,1.228516 -0.3842,0.279839 -0.79941,0.375913 -1.2793,0.365234 -0.86547,-0.01926 -1.92401,-0.575755 -2.13086,-1.652343 a 1.1366786,1.1366786 0 0 0 0,-0.002 c -1.33169,-6.845536 -2.81493,-11.745796 -5.40039,-15.304687 -2.57535,-3.544984 -6.26913,-5.797471 -12.10351,-7.3125 a 1.1366786,1.1366786 0 0 0 -0.004,-0.002 c -1.30945,-0.355167 -2.01251,-1.564914 -1.91992,-2.402344 0.0997,-0.902074 0.92996,-1.805332 2,-1.78125 a 1.1366786,1.1366786 0 0 0 0.0293,0 z m 0.0117,0.666016 -14.62695,0.04297 a 1.1366786,1.1366786 0 0 0 -0.008,0 h -0.002 c -0.11183,-0.0025 -0.25053,-0.0054 -0.46289,0.0625 -0.21324,0.06814 -0.50802,0.269703 -0.6582,0.503906 -0.30037,0.468406 -0.1979,0.626764 -0.19727,0.621094 0.0216,-0.195188 0.0119,-0.151714 -0.0176,0.0625 -0.0295,0.214214 0.0389,0.663982 0.24024,0.935547 0.40269,0.543128 0.74309,0.557512 1.20508,0.683593 l -0.26367,-0.152343 a 1.1366786,1.1366786 0 0 0 0.27929,0.158203 c 5.91568,1.538725 9.78596,3.883073 12.45899,7.5625 2.68448,3.695201 4.17942,8.690938 5.51757,15.570312 1.4e-4,7.04e-4 -1.3e-4,0.0012 0,0.002 a 1.1366786,1.1366786 0 0 0 0,0.002 c 0.0674,0.350727 0.42879,0.811479 0.75391,0.960937 0.32512,0.149458 0.54037,0.146066 0.73438,0.150391 a 1.1366786,1.1366786 0 0 0 0.002,0 c 0.0326,6.74e-4 0.14802,-0.0095 0.25781,-0.02734 a 1.1366786,1.1366786 0 0 0 0.94727,-1.173828 l -1.04688,-19.984375 v -0.0078 c -1.7e-4,-0.0075 -3.4e-4,-0.0159 0,-0.02344 a 1.1366786,1.1366786 0 0 0 0.002,-0.0078 c 0.0693,-1.811246 -0.28359,-3.284028 -1.11329,-4.326172 -0.77803,-0.977254 -2.12515,-1.627734 -3.99414,-1.615234 h -0.002 a 1.1366786,1.1366786 0 0 0 -0.006,0 z m 0.002,2.273438 h 0.006 c 0.001,-10e-7 0.002,3e-6 0.004,0 a 1.1366786,1.1366786 0 0 0 0.006,0 c 1.44491,-0.01086 1.81324,0.261243 2.20703,0.755859 0.34304,0.430879 0.67468,1.373986 0.61914,2.826172 -0.003,0.07584 -0.003,0.150729 0,0.226562 a 1.1366786,1.1366786 0 0 0 0,0.0078 l 0.53906,10.3125 c -0.93475,-2.756488 -2.07371,-5.162782 -3.5957,-7.257813 -2.19991,-3.028182 -5.18994,-5.23239 -9.04297,-6.84375 z m 5.69336,23.349609 c 1.4e-4,6.89e-4 0.002,0.0013 0.002,0.002 l 0.0117,0.138672 a 1.1366786,1.1366786 0 0 0 -0.0137,-0.140625 z"
             id="path260" /></g></g><g
         id="g247"
         style="opacity:1;fill:#24140f;fill-opacity:1;stroke:#000000;stroke-width:2.27313;stroke-dasharray:none;stroke-opacity:1"><g
           id="path246"
           style="opacity:1;fill:#24140f;fill-opacity:1"><path
             style="baseline-shift:baseline;display:inline;overflow:visible;vector-effect:none;fill:#24140f;fill-opacity:1;stroke:none;stroke-linecap:round;stroke-linejoin:round;stroke-miterlimit:3;paint-order:fill markers stroke;enable-background:accumulate;stop-color:#000000;stop-opacity:1"
             d="m -832.20288,133.0257 c 3.96325,0.0298 5.59046,-2.56986 5.44828,-6.28753 l 1.06233,-20.27873 c -0.0212,-1.72041 -3.02465,-1.6945 -3.37247,0.11597 -2.66911,13.72285 -5.97555,19.82381 -17.74818,22.88085 -2.59277,0.70325 -1.87036,3.5694 -0.0153,3.52766 z"
             id="path261" /><path
             style="baseline-shift:baseline;display:inline;overflow:visible;vector-effect:none;fill:#24140f;fill-opacity:1;stroke:none;stroke-linecap:round;stroke-linejoin:round;stroke-miterlimit:3;paint-order:fill markers stroke;enable-background:accumulate;stop-color:#000000;stop-opacity:1"
             d="m -827.28125,104.05664 c -1.21461,0.027 -2.60908,0.8052 -2.89844,2.30274 -1.32379,6.80607 -2.80329,11.59886 -5.26562,14.98828 -2.46233,3.38941 -5.91901,5.51901 -11.65235,7.00781 a 1.1366786,1.1366786 0 0 0 -0.0137,0.004 c -1.69862,0.46073 -2.6545,1.93924 -2.50781,3.26563 0.14669,1.32639 1.30065,2.5302 2.81641,2.49609 l 14.5957,0.041 c 2.22935,0.0158 4.04211,-0.7666 5.15625,-2.16602 1.11484,-1.4003 1.50944,-3.26637 1.43164,-5.30078 v 0.10157 l 1.0625,-20.27735 a 1.1366786,1.1366786 0 0 0 0,-0.0742 c -0.009,-0.76076 -0.41289,-1.4737 -0.95313,-1.86718 -0.54023,-0.39349 -1.16377,-0.53501 -1.77148,-0.52149 z m 0.0508,2.27344 c 0.18928,-0.004 0.34307,0.057 0.38281,0.0859 0.0328,0.0239 0.019,0.007 0.0156,0.0469 l -1.05664,20.2168 a 1.1366786,1.1366786 0 0 0 -0.002,0.10156 c 0.0644,1.68327 -0.28348,2.97733 -0.9375,3.79883 -0.65403,0.82149 -1.63327,1.32161 -3.36524,1.30859 a 1.1366786,1.1366786 0 0 0 -0.006,0 l -14.625,-0.041 a 1.1366786,1.1366786 0 0 0 -0.0293,0 c -0.3393,0.008 -0.47577,-0.20059 -0.50585,-0.47266 -0.0301,-0.27207 -0.0504,-0.57974 0.84375,-0.82227 6.03228,-1.56837 10.1108,-4.01581 12.91015,-7.86914 2.80133,-3.85604 4.31093,-8.97384 5.65625,-15.89062 a 1.1366786,1.1366786 0 0 0 0,-0.004 c 0.0598,-0.31098 0.34019,-0.45056 0.71875,-0.45898 z"
             id="path262" /></g><g
           id="path247"
           style="opacity:1;fill:#24140f;fill-opacity:1"><path
             style="baseline-shift:baseline;display:inline;overflow:visible;vector-effect:none;fill:#24140f;fill-opacity:1;stroke:none;stroke-linecap:round;stroke-linejoin:round;stroke-miterlimit:3;paint-order:fill markers stroke;enable-background:accumulate;stop-color:#000000;stop-opacity:1"
             d="m -827.28906,103.72266 c -1.3383,0.0298 -2.89715,0.90218 -3.21875,2.57617 -1.32042,6.78753 -2.79499,11.53136 -5.20703,14.85156 -2.41256,3.3209 -5.77838,5.40568 -11.4668,6.88281 a 1.470467,1.470467 0 0 0 -0.0156,0.004 c -1.81674,0.49276 -2.91576,2.14186 -2.75195,3.62305 0.16381,1.48119 1.46582,2.83096 3.1543,2.79296 l -0.0371,0.002 14.61719,0.041 c 2.30459,0.0173 4.24327,-0.80768 5.42578,-2.29297 1.1825,-1.48528 1.58368,-3.43552 1.5039,-5.52148 l -0.002,0.13281 1.0625,-20.27734 a 1.470467,1.470467 0 0 0 0.002,-0.0957 c -0.0106,-0.85786 -0.47808,-1.68581 -1.09179,-2.13282 -0.61372,-0.447 -1.30546,-0.60082 -1.97461,-0.58593 z m 0.0664,2.9414 c 0.0337,-7.5e-4 0.0206,0.002 0.0469,0.006 l -1.04688,19.99219 a 1.470467,1.470467 0 0 0 -0.002,0.13281 c 0.0624,1.63171 -0.27886,2.83966 -0.86523,3.57617 -0.58637,0.73651 -1.44291,1.19607 -3.10157,1.1836 a 1.470467,1.470467 0 0 0 -0.008,0 l -14.625,-0.041 a 1.470467,1.470467 0 0 0 -0.0371,0 c -0.16658,0.004 -0.15305,-0.0585 -0.16601,-0.17578 -0.013,-0.11726 -0.17642,-0.2524 0.59961,-0.46289 6.07522,-1.58013 10.24328,-4.0751 13.09179,-7.99609 2.8511,-3.92456 4.36636,-9.09041 5.71485,-16.02344 a 1.470467,1.470467 0 0 0 0,-0.002 c 0.0262,-0.13648 0.14275,-0.18377 0.39843,-0.18946 z"
             id="path303" /><path
             style="baseline-shift:baseline;display:inline;overflow:visible;vector-effect:none;fill:#24140f;fill-opacity:1;stroke:none;stroke-linecap:round;stroke-linejoin:round;stroke-miterlimit:3;paint-order:fill markers stroke;enable-background:accumulate;stop-color:#000000;stop-opacity:1"
             d="m -827.31445,102.58594 c -1.81222,0.0404 -3.87242,1.22764 -4.3086,3.49804 -1.30898,6.7281 -2.77302,11.31686 -5.01172,14.39844 -2.25006,3.09722 -5.28985,5.01202 -10.83203,6.45117 -0.006,0.002 -0.0134,0.002 -0.0195,0.004 a 1.1366786,1.1366786 0 0 0 -0.008,0.002 c -2.32329,0.63016 -3.81898,2.72085 -3.58398,4.84571 0.22489,2.03349 1.96145,3.7952 4.2246,3.79101 a 1.1366786,1.1366786 0 0 0 0.0176,0.0156 l 14.61719,0.041 c 2.57895,0.0183 4.88731,-0.92323 6.31836,-2.7207 1.35227,-1.69852 1.77263,-3.84761 1.72852,-6.01758 a 1.1366786,1.1366786 0 0 0 0.0195,-0.0195 l 0.002,-0.043 1.06055,-20.23437 c 0.003,-0.0565 0.005,-0.11335 0.004,-0.16993 -0.0156,-1.26163 -0.62704,-2.35859 -1.55859,-3.0371 -0.84195,-0.61323 -1.80931,-0.82384 -2.66992,-0.80469 z m 0.0508,2.27344 c 0.47768,-0.0106 0.8938,0.0864 1.2793,0.36718 0.29587,0.21551 0.61938,0.77443 0.625,1.22852 8e-5,0.007 3.8e-4,0.0143 0,0.0215 a 1.1366786,1.1366786 0 0 0 0,0.002 l -1.05665,20.17968 a 1.1366786,1.1366786 0 0 0 -0.006,0.006 l -0.002,0.0977 c 0.0665,1.89648 -0.30206,3.53881 -1.2539,4.73437 -0.93322,1.17217 -2.50071,1.87851 -4.5293,1.86328 a 1.1366786,1.1366786 0 0 0 -0.004,0 l -14.60742,-0.041 a 1.1366786,1.1366786 0 0 0 -0.002,-0.002 c -1.07009,0.0241 -1.90023,-0.8791 -2,-1.78125 -0.0926,-0.83753 0.60973,-2.04503 1.91992,-2.40039 l -0.008,0.002 c 0,0 0.002,-0.002 0.002,-0.002 a 1.1366786,1.1366786 0 0 0 0.006,0 1.1366786,1.1366786 0 0 0 0.004,-0.002 c 5.83465,-1.5151 9.5265,-3.76987 12.10156,-7.31445 2.58515,-3.55848 4.07059,-8.45695 5.40234,-15.30273 a 1.1366786,1.1366786 0 0 0 0,-0.002 c 0.20702,-1.07758 1.26452,-1.63505 2.12891,-1.65429 z m 0.0156,0.66796 c -0.19402,0.004 -0.40923,9.2e-4 -0.73437,0.15039 -0.32514,0.14948 -0.68852,0.61013 -0.75586,0.96094 a 1.1366786,1.1366786 0 0 0 -0.002,0.0117 c -1.33755,6.87318 -2.83252,11.86722 -5.51563,15.56055 -2.67339,3.67994 -6.54327,6.02581 -12.45898,7.56445 a 1.1366786,1.1366786 0 0 0 -0.01,0.002 c -0.46678,0.12661 -0.81087,0.13878 -1.2168,0.69532 -0.20296,0.27826 -0.26319,0.73587 -0.23046,0.94726 0.0327,0.21139 0.0385,0.2491 0.0156,0.043 h -0.002 c -6.9e-4,-0.006 -0.10103,0.15191 0.19922,0.62109 0.15012,0.2346 0.44437,0.43573 0.6582,0.50391 0.21206,0.0676 0.35106,0.0652 0.46289,0.0625 9.3e-4,-2e-5 0.003,2e-5 0.004,0 a 1.1366786,1.1366786 0 0 0 0.006,0 l 14.625,0.041 a 1.1366786,1.1366786 0 0 0 0.004,0 c 1.87152,0.0141 3.21924,-0.63311 3.99805,-1.61133 0.8297,-1.04215 1.18059,-2.51689 1.11133,-4.32813 l 0.002,0.01 c -3e-4,-0.0101 -6.1e-4,-0.0212 0,-0.0312 a 1.1366786,1.1366786 0 0 0 0,-0.008 l 1.04687,-19.99219 a 1.1366786,1.1366786 0 0 0 -0.95703,-1.17578 c -0.10286,-0.0154 -0.21691,-0.0281 -0.25,-0.0273 z m -1.56836,10.75196 -0.54101,10.32422 c -0.004,0.0752 -0.006,0.1513 -0.004,0.22656 a 1.1366786,1.1366786 0 0 0 0,0.008 c 0.0555,1.45218 -0.27415,2.3953 -0.61719,2.82617 -0.39393,0.49481 -0.75927,0.76478 -2.20507,0.75391 a 1.1366786,1.1366786 0 0 0 -0.004,0 c -0.002,-1e-5 -0.005,0 -0.008,0 h -0.008 l -9.25391,-0.0254 c 3.85186,-1.61194 6.84152,-3.81809 9.04101,-6.8457 1.52356,-2.09719 2.6638,-4.50735 3.59961,-7.26758 z m -17.31445,15.6914 c 0.004,-0.001 -0.004,0.003 0,0.002 l -0.0117,0.002 c 0.004,-0.001 0.008,-0.003 0.0117,-0.004 z"
             id="path505" /></g></g><g
         id="g249"
         style="opacity:1;fill:#24140f;fill-opacity:1;stroke:#000000;stroke-width:2.27313;stroke-dasharray:none;stroke-opacity:1"><g
           id="path248"
           style="opacity:1;fill:#24140f;fill-opacity:1"><path
             style="baseline-shift:baseline;display:inline;overflow:visible;vector-effect:none;fill:#24140f;fill-opacity:1;stroke:none;stroke-linecap:round;stroke-linejoin:round;stroke-miterlimit:3;paint-order:fill markers stroke;enable-background:accumulate;stop-color:#000000;stop-opacity:1"
             d="m -872.40768,38.000288 c -3.96326,-0.0298 -9.11731,-0.355 -9.55602,3.06574 -0.4387,3.42073 4.10693,3.78799 4.10693,10.46049 l -0.003,15.68587 c 0.0212,1.7204 3.02464,1.69449 3.37248,-0.11598 2.66911,-13.72285 4.91722,-22.46964 16.68988,-25.52668 2.59278,-0.70324 1.87035,-3.5694 0.0155,-3.52766 z"
             id="path546" /><path
             style="baseline-shift:baseline;display:inline;overflow:visible;vector-effect:none;fill:#24140f;fill-opacity:1;stroke:none;stroke-linecap:round;stroke-linejoin:round;stroke-miterlimit:3;paint-order:fill markers stroke;enable-background:accumulate;stop-color:#000000;stop-opacity:1"
             d="m -872.4043,36.863281 c -1.95312,-0.01485 -4.27267,-0.121851 -6.31054,0.257813 -1.01989,0.190007 -1.99012,0.501283 -2.80469,1.105468 -0.81457,0.604186 -1.42658,1.559362 -1.57227,2.695313 -0.1415,1.103363 0.15404,2.091762 0.60547,2.859375 0.45143,0.767613 1.01145,1.365154 1.52344,2.005859 1.02399,1.281411 1.96875,2.662079 1.96875,5.740235 l -0.002,15.685547 a 1.1366786,1.1366786 0 0 0 0,0.01367 c 0.009,0.760759 0.41484,1.473709 0.95507,1.867188 0.54024,0.393479 1.16182,0.535008 1.76954,0.521484 1.21493,-0.02704 2.61152,-0.804441 2.90039,-2.302734 v -0.002 c 1.33162,-6.846191 2.56636,-12.366277 4.81054,-16.427735 2.24441,-4.061865 5.4007,-6.746224 11.04883,-8.21289 a 1.1366786,1.1366786 0 0 0 0.0117,-0.0039 c 1.69863,-0.46072 2.65446,-1.937305 2.50781,-3.263672 -0.14665,-1.326367 -1.29874,-2.530202 -2.81445,-2.496094 l -14.5918,-0.04297 z m -0.0117,2.273438 a 1.1366786,1.1366786 0 0 0 0.006,0 l 14.625,0.04102 a 1.1366786,1.1366786 0 0 0 0.0293,0 c 0.33914,-0.0076 0.47382,0.202522 0.50391,0.47461 0.0301,0.272088 0.0504,0.577792 -0.84375,0.820312 -6.11712,1.591529 -9.96672,4.807178 -12.45508,9.310547 -2.49009,4.506502 -3.7154,10.219999 -5.05274,17.095703 a 1.1366786,1.1366786 0 0 0 0,0.0039 c -0.0597,0.310989 -0.34019,0.45056 -0.71875,0.458985 -0.18927,0.0042 -0.34111,-0.05699 -0.38085,-0.08594 -0.0398,-0.02895 -0.0183,0.0428 -0.0195,-0.05664 l 0.002,-15.671875 c 0,-3.594345 -1.32765,-5.73463 -2.4668,-7.160157 -0.56958,-0.712763 -1.06235,-1.266437 -1.33984,-1.738281 -0.27749,-0.471844 -0.38644,-0.810967 -0.3086,-1.417969 0.0737,-0.574419 0.27087,-0.862212 0.66992,-1.158203 0.39906,-0.295991 1.04831,-0.542752 1.86719,-0.695312 1.63776,-0.30512 3.8738,-0.235809 5.88281,-0.220703 z"
             id="path547" /></g><g
           id="path249"
           style="opacity:1;fill:#24140f;fill-opacity:1"><path
             style="baseline-shift:baseline;display:inline;overflow:visible;vector-effect:none;fill:#24140f;fill-opacity:1;stroke:none;stroke-linecap:round;stroke-linejoin:round;stroke-miterlimit:3;paint-order:fill markers stroke;enable-background:accumulate;stop-color:#000000;stop-opacity:1"
             d="m -872.4043,36.529297 c -1.94478,-0.01485 -4.27682,-0.126862 -6.37304,0.263672 -1.0494,0.195506 -2.06584,0.516578 -2.94141,1.166015 -0.87557,0.649437 -1.54687,1.701524 -1.70312,2.919922 -0.15086,1.176242 0.16951,2.261226 0.64648,3.072266 0.47697,0.811039 1.04919,1.412843 1.55273,2.042969 1.00708,1.26025 1.89649,2.530837 1.89649,5.533203 l -0.004,15.685547 a 1.470467,1.470467 0 0 0 0,0.01758 c 0.0106,0.857857 0.47808,1.685811 1.0918,2.132812 0.61372,0.447002 1.30546,0.600829 1.97461,0.585938 1.33701,-0.02975 2.89507,-0.901423 3.21875,-2.572266 v -0.002 c 1.33081,-6.841991 2.56728,-12.3339 4.77539,-16.330078 2.20833,-3.996581 5.26361,-6.604232 10.8418,-8.052735 a 1.470467,1.470467 0 0 0 0.0156,-0.0039 c 1.81675,-0.492756 2.91572,-2.141884 2.75195,-3.623047 -0.16376,-1.481162 -1.46583,-2.830964 -3.15429,-2.792968 l -14.58203,-0.04297 z m -0.0137,2.941406 a 1.470467,1.470467 0 0 0 0.006,0 l 14.62695,0.04102 a 1.470467,1.470467 0 0 0 0.0371,0 c 0.16639,-0.0037 0.1511,0.05849 0.16407,0.175781 0.013,0.117293 0.17837,0.252407 -0.59766,0.462891 l 0.0156,-0.0039 c -6.19447,1.608538 -10.15156,4.904777 -12.67773,9.476563 -2.52617,4.571786 -3.74779,10.313462 -5.08594,17.193359 a 1.470467,1.470467 0 0 0 -0.002,0.002 c -0.0262,0.136486 -0.1408,0.183763 -0.39648,0.189453 -0.0431,9.6e-4 -0.0302,-0.0017 -0.0606,-0.0078 l 0.002,-15.472656 c 0,-3.670135 -1.383,-5.922454 -2.53906,-7.369141 -0.57803,-0.723343 -1.0625,-1.270801 -1.31445,-1.699219 -0.25196,-0.428417 -0.33413,-0.670955 -0.26563,-1.205078 0.0631,-0.491972 0.20101,-0.682854 0.53906,-0.933594 0.33805,-0.250739 0.93915,-0.487704 1.72852,-0.634765 1.57873,-0.294123 3.80326,-0.23001 5.82031,-0.214844 z"
             id="path548" /><path
             style="baseline-shift:baseline;display:inline;overflow:visible;vector-effect:none;fill:#24140f;fill-opacity:1;stroke:none;stroke-linecap:round;stroke-linejoin:round;stroke-miterlimit:3;paint-order:fill markers stroke;enable-background:accumulate;stop-color:#000000;stop-opacity:1"
             d="m -872.41016,35.392578 c -1.90615,-0.01501 -4.297,-0.141415 -6.57617,0.283203 -1.13975,0.212339 -2.3405,0.5777 -3.41015,1.371094 -1.12405,0.833739 -1.95435,2.143596 -2.15235,3.6875 -0.18791,1.465102 0.2042,2.791827 0.79297,3.792969 0.55379,0.941661 1.18282,1.598004 1.64453,2.175781 0.97824,1.224153 1.64844,2.046314 1.64844,4.824219 l -0.004,15.685547 c -3e-5,0.0083 -5e-5,0.01513 0,0.02344 a 1.1366786,1.1366786 0 0 0 0,0.0078 c 0.0156,1.261634 0.62702,2.358598 1.5586,3.037109 0.84194,0.613226 1.80929,0.823839 2.66992,0.804687 1.811,-0.0403 3.86943,-1.225227 4.30859,-3.492187 a 1.1366786,1.1366786 0 0 0 0,-0.002 v -0.002 c 1.32723,-6.823384 2.57272,-12.228912 4.6543,-15.996094 2.09432,-3.790251 4.77726,-6.109389 10.12891,-7.5 0.002,-4.01e-4 0.002,-0.0016 0.004,-0.002 0.004,-9.82e-4 0.008,-9.54e-4 0.0117,-0.002 a 1.1366786,1.1366786 0 0 0 0.0156,-0.0039 c 2.32331,-0.630152 3.81892,-2.720905 3.58398,-4.845703 -0.22779,-2.06026 -2.00172,-3.8566 -4.30859,-3.804687 l -14.55274,-0.04297 a 1.1366786,1.1366786 0 0 0 -0.004,0 z m -0.002,2.273438 a 1.1366786,1.1366786 0 0 0 0.0137,0 h 0.004 l 14.57617,0.04297 a 1.1366786,1.1366786 0 0 0 0.0293,0 c 1.07004,-0.02408 1.90026,0.879186 2,1.78125 0.0926,0.837529 -0.60974,2.045031 -1.91992,2.400391 a 1.1366786,1.1366786 0 0 0 -0.004,0.002 c -5.80165,1.50653 -9.22905,4.401698 -11.55078,8.603516 -2.33443,4.224791 -3.56225,9.802494 -4.89649,16.662109 a 1.1366786,1.1366786 0 0 0 0,0.002 c -0.20819,1.074727 -1.26589,1.633141 -2.1289,1.652344 -0.47768,0.01063 -0.8938,-0.08641 -1.2793,-0.367188 -0.29549,-0.215218 -0.6186,-0.772793 -0.625,-1.226562 a 1.1366786,1.1366786 0 0 0 0,-0.0059 l 0.004,-15.685547 c 0,-3.226828 -1.10861,-4.94584 -2.14453,-6.242188 -0.54538,-0.682474 -1.06079,-1.229739 -1.46094,-1.910156 -0.36517,-0.620938 -0.61381,-1.46418 -0.5,-2.351563 0.1145,-0.892892 0.62681,-1.687208 1.2539,-2.152343 0.68149,-0.505481 1.51361,-0.782265 2.47266,-0.960938 1.90854,-0.355569 4.17477,-0.259271 6.15625,-0.24414 z m -0.004,0.667968 c -1.99778,-0.01515 -4.23604,-0.100078 -6.03125,0.234375 -0.90335,0.168296 -1.61663,0.409174 -2.19726,0.839844 -0.44094,0.327052 -0.90332,1.038728 -0.98828,1.701172 -0.0886,0.690931 0.11986,1.428867 0.41211,1.925781 0.36021,0.612507 0.84697,1.132157 1.40625,1.832031 1.07288,1.342598 2.29101,3.275546 2.29101,6.660157 L -877.52539,67 a 1.1366786,1.1366786 0 0 0 0.91406,1.115234 c -0.0465,-0.0093 -0.1478,-0.03132 0.004,0.002 0.15171,0.03327 0.2623,0.02829 0.30469,0.02734 0.19406,-0.0043 0.40983,8.39e-4 0.73632,-0.15039 0.32649,-0.151229 0.6856,-0.615257 0.75196,-0.960938 1.33602,-6.868974 2.55847,-12.50636 4.96484,-16.861328 2.39131,-4.327728 6.01686,-7.372509 11.94336,-8.917969 l 0.0117,-0.002 c 0.002,-3.91e-4 0.002,-0.0016 0.004,-0.002 0.002,-5.56e-4 0.004,-0.0014 0.006,-0.002 8.7e-4,-2.25e-4 10e-4,-0.0017 0.002,-0.002 5.6e-4,-1.53e-4 0.001,1.52e-4 0.002,0 0.4648,-0.125552 0.81023,-0.135597 1.21484,-0.695313 0.20294,-0.280729 0.25827,-0.741381 0.22461,-0.951172 -0.0336,-0.20979 -0.0368,-0.246265 -0.0137,-0.03711 10e-4,0.01166 0.10713,-0.136948 -0.18945,-0.611328 -0.14829,-0.23719 -0.4449,-0.442361 -0.66016,-0.511719 -0.21438,-0.06907 -0.35506,-0.06694 -0.46679,-0.06445 a 1.1366786,1.1366786 0 0 0 -0.01,0 l -14.62695,-0.04102 a 1.1366786,1.1366786 0 0 0 -0.002,0 c -10e-4,-9e-6 -0.003,10e-6 -0.004,0 z m -2.39843,28.699219 -0.31446,0.589844 0.004,-0.0039 a 1.1366786,1.1366786 0 0 0 0.31055,-0.585938 z m 2.39648,-26.431641 -0.002,0.0059 c 0.004,7e-6 0.006,7e-6 0.01,0 l 9.54493,0.02734 c -4.0598,1.928314 -6.97619,4.826304 -8.97266,8.439453 -1.52289,2.756087 -2.53899,5.96356 -3.41211,9.417968 V 51.52738 c 0,-3.95566 -1.54787,-6.527349 -2.78711,-8.078125 -0.59678,-0.746811 -1.07897,-1.322077 -1.22266,-1.566407 -0.21167,-0.359919 -0.16753,-0.107059 -0.11914,-0.484375 0.0412,-0.3215 -0.14532,0.0084 0.0899,-0.166015 0.0955,-0.07081 0.58437,-0.303861 1.25976,-0.429688 1.36051,-0.253467 3.56867,-0.210612 5.60352,-0.195312 a 1.1366786,1.1366786 0 0 0 0.008,-0.0059 z"
             id="path549" /></g></g><g
         id="g251"
         style="opacity:1;fill:#24140f;fill-opacity:1;stroke:#000000;stroke-width:2.27313;stroke-dasharray:none;stroke-opacity:1"><g
           id="path250"
           style="opacity:1;fill:#24140f;fill-opacity:1"><path
             style="baseline-shift:baseline;display:inline;overflow:visible;vector-effect:none;fill:#24140f;fill-opacity:1;stroke:none;stroke-linecap:round;stroke-linejoin:round;stroke-miterlimit:3;paint-order:fill markers stroke;enable-background:accumulate;stop-color:#000000;stop-opacity:1"
             d="m -872.40768,133.0257 c -3.96326,0.0298 -9.11731,0.355 -9.55602,-3.06574 -0.4387,-3.42073 4.10693,-3.78799 4.10693,-10.46049 l -0.003,-15.68586 c 0.0212,-1.72041 3.02464,-1.6945 3.37248,0.11597 2.66911,13.72285 4.91722,22.46964 16.68988,25.52668 2.59278,0.70325 1.87035,3.5694 0.0155,3.52766 z"
             id="path550" /><path
             style="baseline-shift:baseline;display:inline;overflow:visible;vector-effect:none;fill:#24140f;fill-opacity:1;stroke:none;stroke-linecap:round;stroke-linejoin:round;stroke-miterlimit:3;paint-order:fill markers stroke;enable-background:accumulate;stop-color:#000000;stop-opacity:1"
             d="m -876.27148,101.41211 c -0.60772,-0.0135 -1.2293,0.128 -1.76954,0.52148 -0.54023,0.39348 -0.9457,1.10448 -0.95507,1.86524 a 1.1366786,1.1366786 0 0 0 0,0.0156 l 0.002,15.68555 c 0,3.07816 -0.94476,4.45882 -1.96875,5.74023 -0.51199,0.64071 -1.07201,1.2363 -1.52344,2.00391 -0.45143,0.76761 -0.74697,1.75797 -0.60547,2.86133 0.14569,1.13595 0.7577,2.08917 1.57227,2.69336 0.81457,0.60418 1.7848,0.91546 2.80469,1.10547 2.03976,0.38001 4.36215,0.2725 6.3164,0.25781 l 14.5918,-0.041 c 1.51571,0.0341 2.6678,-1.16972 2.81445,-2.49609 0.14665,-1.32637 -0.80918,-2.8049 -2.50781,-3.26563 a 1.1366786,1.1366786 0 0 0 -0.0117,-0.004 c -5.64813,-1.46667 -8.80442,-4.15103 -11.04883,-8.21289 -2.24418,-4.06146 -3.47892,-9.58154 -4.81054,-16.42774 v -0.002 c -0.28887,-1.49829 -1.68546,-2.27375 -2.90039,-2.30078 z m -0.0508,2.27148 c 0.37856,0.008 0.65901,0.14995 0.71875,0.46094 a 1.1366786,1.1366786 0 0 0 0,0.002 c 1.33734,6.87571 2.56265,12.58921 5.05274,17.09571 2.48836,4.50337 6.33796,7.71902 12.45508,9.31054 0.89415,0.24253 0.87383,0.55018 0.84375,0.82227 -0.0301,0.27209 -0.16477,0.48029 -0.50391,0.47266 a 1.1366786,1.1366786 0 0 0 -0.0293,0 l -14.625,0.041 a 1.1366786,1.1366786 0 0 0 -0.006,0 c -2.00901,0.0151 -4.24505,0.0864 -5.88281,-0.21875 -0.81888,-0.15256 -1.46813,-0.40127 -1.86719,-0.69726 -0.39905,-0.29599 -0.59625,-0.58379 -0.66992,-1.15821 -0.0778,-0.607 0.0311,-0.94612 0.3086,-1.41797 0.27749,-0.47184 0.77026,-1.02551 1.33984,-1.73828 1.13915,-1.42552 2.4668,-3.56386 2.4668,-7.1582 l -0.002,-15.67187 c 10e-4,-0.0995 -0.0202,-0.0297 0.0195,-0.0586 0.0397,-0.029 0.19158,-0.0902 0.38085,-0.0859 z"
             id="path551" /></g><g
           id="path251"
           style="opacity:1;fill:#24140f;fill-opacity:1"><path
             style="baseline-shift:baseline;display:inline;overflow:visible;vector-effect:none;fill:#24140f;fill-opacity:1;stroke:none;stroke-linecap:round;stroke-linejoin:round;stroke-miterlimit:3;paint-order:fill markers stroke;enable-background:accumulate;stop-color:#000000;stop-opacity:1"
             d="m -876.26367,101.07813 c -0.66915,-0.0149 -1.36089,0.13698 -1.97461,0.58398 -0.61372,0.447 -1.08123,1.27495 -1.0918,2.13281 a 1.470467,1.470467 0 0 0 0,0.0195 l 0.004,15.68555 c 0,3.00237 -0.88941,4.271 -1.89649,5.53125 -0.50354,0.63013 -1.07576,1.23388 -1.55273,2.04492 -0.47697,0.81104 -0.79734,1.89407 -0.64648,3.07031 0.15625,1.2184 0.82755,2.27049 1.70312,2.91993 0.87557,0.64943 1.89201,0.97051 2.94141,1.16601 2.09878,0.39101 4.43465,0.27831 6.38086,0.26367 l 14.61914,-0.041 -0.0371,-0.002 c 1.68846,0.038 2.99053,-1.3118 3.15429,-2.79296 0.16377,-1.48117 -0.9352,-3.13029 -2.75195,-3.62305 a 1.470467,1.470467 0 0 0 -0.0156,-0.004 c -5.57819,-1.4485 -8.63347,-4.0542 -10.8418,-8.05078 -2.20784,-3.99568 -3.44282,-9.48926 -4.77344,-16.33008 l -0.002,-0.002 c -0.3229,-1.67203 -1.88125,-2.5425 -3.21875,-2.57226 z m -0.0644,2.93945 c 0.25568,0.006 0.37026,0.053 0.39648,0.18945 a 1.470467,1.470467 0 0 0 0.002,0.004 c 1.33815,6.87989 2.55977,12.62157 5.08594,17.19336 2.52617,4.57178 6.48326,7.86607 12.67773,9.47461 l -0.0156,-0.004 c 0.77603,0.21049 0.61062,0.3456 0.59766,0.46289 -0.013,0.11729 0.002,0.17953 -0.16407,0.17578 a 1.470467,1.470467 0 0 0 -0.0371,0 l -14.62695,0.041 a 1.470467,1.470467 0 0 0 -0.006,0 c -2.01705,0.0152 -4.24158,0.0812 -5.82031,-0.21289 -0.78937,-0.14706 -1.39047,-0.38598 -1.72852,-0.63672 -0.33805,-0.25074 -0.47596,-0.43967 -0.53906,-0.93164 -0.0685,-0.53413 0.0137,-0.77862 0.26563,-1.20703 0.25195,-0.42842 0.73642,-0.97588 1.31445,-1.69922 1.15606,-1.44669 2.53906,-3.69706 2.53906,-7.36719 l -0.002,-15.47461 c 0.0304,-0.006 0.0174,-0.009 0.0606,-0.008 z"
             id="path552" /><path
             style="baseline-shift:baseline;display:inline;overflow:visible;vector-effect:none;fill:#24140f;fill-opacity:1;stroke:none;stroke-linecap:round;stroke-linejoin:round;stroke-miterlimit:3;paint-order:fill markers stroke;enable-background:accumulate;stop-color:#000000;stop-opacity:1"
             d="m -876.23828,99.941406 c -0.85843,-0.01911 -1.82671,0.188584 -2.66992,0.802734 -0.93156,0.6785 -1.54305,1.77542 -1.5586,3.03711 a 1.1366786,1.1366786 0 0 0 0,0.006 c -7e-5,0.0115 -7e-5,0.0236 0,0.0352 l 0.004,15.67773 c 0,2.77791 -0.66985,3.59766 -1.64844,4.82227 -0.46242,0.57867 -1.09114,1.23675 -1.64453,2.17773 -0.58836,1.00045 -0.98086,2.32607 -0.79297,3.79102 0.198,1.5439 1.0283,2.85375 2.15235,3.6875 1.06964,0.79338 2.27039,1.15876 3.41015,1.37109 2.28671,0.42602 4.68848,0.29756 6.59766,0.2832 l 14.61523,-0.041 a 1.1366786,1.1366786 0 0 0 0.0176,-0.0156 c 2.26316,0.004 3.99978,-1.75748 4.22461,-3.79101 0.23493,-2.1248 -1.26067,-4.21555 -3.58398,-4.84571 a 1.1366786,1.1366786 0 0 0 -0.008,-0.002 c -0.009,-0.002 -0.0181,-0.005 -0.0273,-0.008 -5.3488,-1.39081 -8.03136,-3.70903 -10.125,-7.49805 -2.08133,-3.76673 -3.32512,-9.17271 -4.65234,-15.99609 a 1.1366786,1.1366786 0 0 0 -0.008,-0.0156 c -0.44528,-2.25693 -2.49677,-3.43833 -4.30273,-3.478514 z m -0.0508,2.273434 c 0.86436,0.0192 1.92117,0.57471 2.1289,1.65039 a 1.1366786,1.1366786 0 0 0 0.002,0.004 c 1.33401,6.85825 2.56018,12.43748 4.89453,16.66211 2.32181,4.20195 5.74937,7.0951 11.55078,8.60156 a 1.1366786,1.1366786 0 0 0 0.004,0.002 1.1366786,1.1366786 0 0 0 0.006,0 c 0,0 0.002,0.002 0.002,0.002 l -0.008,-0.002 c 1.31018,0.35536 2.01252,1.56285 1.91992,2.40039 -0.0997,0.90206 -0.92996,1.80533 -2,1.78125 a 1.1366786,1.1366786 0 0 0 -0.002,0.002 l -14.60937,0.041 a 1.1366786,1.1366786 0 0 0 -0.004,0 c -1.98324,0.0149 -4.25321,0.11186 -6.16406,-0.24414 -0.95904,-0.17866 -1.79116,-0.45545 -2.47266,-0.96093 -0.62709,-0.46514 -1.1394,-1.25945 -1.2539,-2.15235 -0.11383,-0.88753 0.13442,-1.72798 0.5,-2.34961 0.40055,-0.6811 0.91627,-1.23052 1.46094,-1.91211 1.03556,-1.29589 2.14453,-3.0134 2.14453,-6.24023 l -0.004,-15.68555 a 1.1366786,1.1366786 0 0 0 0,-0.006 v -0.002 c 0.006,-0.45372 0.3295,-1.01133 0.625,-1.22656 0.38423,-0.27985 0.79943,-0.37592 1.2793,-0.36524 z m -0.0137,0.66602 c -0.0439,-0.001 -0.16087,-0.003 -0.30664,0.0293 a 1.1366786,1.1366786 0 0 0 0,0.002 1.1366786,1.1366786 0 0 0 -0.91602,1.11328 l 0.002,15.47461 c 0,3.38461 -1.21782,5.31521 -2.29101,6.6582 -0.55928,0.69988 -1.04604,1.21953 -1.40625,1.83203 -0.29295,0.49817 -0.50077,1.23642 -0.41211,1.92774 0.085,0.66282 0.54961,1.37385 0.98828,1.69922 0.57837,0.42899 1.29213,0.67317 2.19726,0.84179 1.79605,0.33458 4.03417,0.24761 6.03125,0.23243 0,0 0.002,0 0.002,0 0.001,-1e-5 0.003,1e-5 0.004,0 a 1.1366786,1.1366786 0 0 0 0.002,0 l 14.62695,-0.041 a 1.1366786,1.1366786 0 0 0 0.01,0 c 0.11184,0.003 0.25239,0.005 0.46679,-0.0644 0.21529,-0.0694 0.51195,-0.27508 0.66016,-0.51172 0.29641,-0.47328 0.19065,-0.62213 0.18945,-0.61133 -0.0231,0.20933 -0.018,0.17262 0.0156,-0.0371 0.0336,-0.20972 -0.0236,-0.67043 -0.22657,-0.95117 -0.40459,-0.55973 -0.75004,-0.56976 -1.21484,-0.69531 -6.4e-4,-1.7e-4 -10e-4,1.6e-4 -0.002,0 -8.7e-4,-2.3e-4 -10e-4,-0.002 -0.002,-0.002 -0.005,-0.001 -0.009,-0.003 -0.0137,-0.004 -5.93164,-1.54483 -9.5588,-4.58834 -11.95117,-8.91797 -2.40637,-4.35497 -3.62882,-9.99236 -4.96484,-16.86133 a 1.1366786,1.1366786 0 0 0 -0.002,-0.002 c -0.0664,-0.34577 -0.42387,-0.81005 -0.75,-0.96094 -0.32613,-0.15089 -0.54093,-0.14585 -0.73437,-0.15039 a 1.1366786,1.1366786 0 0 0 -0.002,0 z m 1.05273,9.6543 c 0.87312,3.4544 1.88922,6.66188 3.41211,9.41797 1.99652,3.61323 4.91291,6.50976 8.97266,8.43749 l -9.55079,0.0273 c -10e-4,0 -0.002,0 -0.004,0 a 1.1366786,1.1366786 0 0 0 -0.006,0 c -2.03555,0.0153 -4.24385,0.0599 -5.60352,-0.19336 -0.6736,-0.12549 -1.16203,-0.35915 -1.25976,-0.43164 -0.23744,-0.17611 -0.0487,0.15706 -0.0899,-0.16406 -0.0483,-0.37694 -0.0918,-0.12768 0.11914,-0.48633 0.14369,-0.24433 0.62588,-0.8196 1.22266,-1.56641 1.23893,-1.55039 2.78711,-4.12052 2.78711,-8.07617 z"
             id="path553" /></g></g><g
         id="g253"
         style="opacity:1;fill:#24140f;fill-opacity:1;stroke:#000000;stroke-width:2.27313;stroke-dasharray:none;stroke-opacity:1"><g
           id="path252"
           style="opacity:1;fill:#24140f;fill-opacity:1"><path
             style="baseline-shift:baseline;display:inline;overflow:visible;vector-effect:none;fill:#24140f;fill-opacity:1;stroke:none;stroke-linecap:round;stroke-linejoin:round;stroke-miterlimit:3;paint-order:fill markers stroke;enable-background:accumulate;stop-color:#000000;stop-opacity:1"
             d="m -862.89687,84.978738 c 0,0.50291 0.40647,0.98536 1,1.07544 10,1.51767 12,4.60338 14,15.917662 0.14185,0.80244 0.5675,1.02857 1,1.02857 0.37521,0 2.05833,-0.22522 2.05833,-1.02857 0,-11.314152 0.0768,-22.628692 0,-33.942852 0,-0.15743 -1.23951,-1.02857 -2.05833,-1.02857 -0.69192,0 -0.91567,0.55152 -1,1.02857 -2,11.31429 -4.00003,14.4 -14.00003,15.91236 0,0 -0.99997,0.15284 -0.99997,1.03739 z"
             id="path554" /><path
             style="baseline-shift:baseline;display:inline;overflow:visible;vector-effect:none;fill:#24140f;fill-opacity:1;stroke:none;stroke-linecap:round;stroke-linejoin:round;stroke-miterlimit:3;paint-order:fill markers stroke;enable-background:accumulate;stop-color:#000000;stop-opacity:1"
             d="m -846.89648,65.863281 c -0.64794,0 -1.29466,0.348289 -1.62696,0.777344 -0.33229,0.429055 -0.43309,0.857137 -0.49218,1.191406 -0.99178,5.610636 -1.99432,9.013006 -3.75,11.097656 -1.75569,2.084651 -4.40271,3.147907 -9.30079,3.888672 a 1.1366786,1.1366786 0 0 0 -0.002,0 c 0,0 -0.4475,0.05864 -0.91016,0.333985 -0.46265,0.275341 -1.05468,0.955607 -1.05468,1.826172 0,1.115318 0.8522,2.030353 1.96484,2.199218 4.89814,0.743376 7.54691,1.809118 9.30274,3.894532 1.75582,2.085413 2.75822,5.487023 3.75,11.097654 0.10166,0.5751 0.34363,1.10447 0.75976,1.47071 0.41613,0.36623 0.94504,0.49609 1.35938,0.49609 0.41501,0 0.90317,-0.061 1.53125,-0.27149 0.31403,-0.10523 0.6466,-0.24173 0.97851,-0.51367 0.33191,-0.27193 0.68555,-0.78119 0.68555,-1.3789 0,-11.30641 0.0768,-22.621526 0,-33.943363 0,-0.382699 -0.11767,-0.527977 -0.1836,-0.634766 -0.0659,-0.106788 -0.12074,-0.166824 -0.16992,-0.220703 -0.0983,-0.107757 -0.18281,-0.181744 -0.27734,-0.257812 -0.18906,-0.152138 -0.40897,-0.299494 -0.66211,-0.445313 -0.50627,-0.291637 -1.08987,-0.607422 -1.90234,-0.607422 z m 0.1289,2.324219 c 0.11438,0.03224 0.37387,0.101365 0.63867,0.253906 0.066,0.03802 0.0981,0.06451 0.1543,0.101563 0.0705,11.030864 10e-4,22.069689 0,33.115231 -0.0448,0.0218 -0.0463,0.0284 -0.11328,0.0508 -0.2591,0.0868 -0.57844,0.11732 -0.68164,0.13086 -0.01,-0.0256 0.009,0.0277 -0.008,-0.0664 -1.00822,-5.703652 -2.00583,-9.500589 -4.25,-12.166018 -2.19773,-2.61026 -5.50797,-3.831942 -10.4336,-4.609375 4.92597,-0.774836 8.23564,-1.995675 10.4336,-4.605469 2.24433,-2.664867 3.24177,-6.462361 4.25,-12.166016 0.005,-0.02849 0.003,-0.01558 0.01,-0.03906 z"
             id="path555" /></g><g
           id="path253"
           style="opacity:1;fill:#24140f;fill-opacity:1"><path
             style="baseline-shift:baseline;display:inline;overflow:visible;vector-effect:none;fill:#24140f;fill-opacity:1;stroke:none;stroke-linecap:round;stroke-linejoin:round;stroke-miterlimit:3;paint-order:fill markers stroke;enable-background:accumulate;stop-color:#000000;stop-opacity:1"
             d="m -846.89648,65.529297 c -0.73662,0 -1.50567,0.409201 -1.89063,0.90625 -0.38495,0.497049 -0.49453,0.975505 -0.55859,1.33789 -0.98937,5.596979 -1.99185,8.939994 -3.67578,10.939454 -1.68394,1.999459 -4.22757,3.039152 -9.09571,3.77539 a 1.470467,1.470467 0 0 0 -0.002,0 c 0,0 -0.50419,0.06445 -1.0293,0.376953 -0.5251,0.312507 -1.21875,1.116949 -1.21875,2.113282 0,1.295153 0.98492,2.337296 2.25,2.529296 4.86823,0.738836 7.41158,1.779045 9.09571,3.779297 1.68412,2.000253 2.68641,5.344431 3.67578,10.941411 0.11068,0.62615 0.38314,1.23438 0.86914,1.66211 0.48599,0.42772 1.10758,0.58007 1.58008,0.58007 0.48179,0 0.96154,-0.0628 1.63671,-0.28906 0.33759,-0.11313 0.70267,-0.25985 1.08399,-0.57226 0.38131,-0.31242 0.80664,-0.92247 0.80664,-1.63672 0,-11.30425 0.0768,-22.61916 0,-33.943363 0,-0.49219 -0.14986,-0.676813 -0.23242,-0.810547 -0.0826,-0.133734 -0.14668,-0.205541 -0.20508,-0.269531 -0.11681,-0.127982 -0.21306,-0.209804 -0.31641,-0.292969 -0.20669,-0.166329 -0.43618,-0.320837 -0.70312,-0.474609 -0.53389,-0.307545 -1.13948,-0.652344 -2.07031,-0.652344 z m 0.36718,3.099609 c 0.10748,0.03888 0.11194,0.03552 0.22071,0.0957 0.068,10.886922 0.002,21.784018 0,32.689454 -0.0943,0.0213 -0.10705,0.0245 -0.20118,0.0391 -0.99225,-5.547718 -1.9878,-9.359805 -4.26171,-12.060555 -2.03785,-2.420372 -5.17329,-3.594296 -9.3418,-4.394531 4.1679,-0.798128 7.30399,-1.970989 9.3418,-4.390625 2.26131,-2.685029 3.25537,-6.481943 4.24218,-11.978516 z m -15.11132,16.75586 c -5.9e-4,4.64e-4 -0.003,0.0075 -0.004,0.0078 -0.0251,0.01495 -0.0293,0.002 -0.0293,0.002 0.0132,-0.002 0.02,-0.0078 0.0332,-0.0098 z"
             id="path556" /><path
             style="baseline-shift:baseline;display:inline;overflow:visible;vector-effect:none;fill:#24140f;fill-opacity:1;stroke:none;stroke-linecap:round;stroke-linejoin:round;stroke-miterlimit:3;paint-order:fill markers stroke;enable-background:accumulate;stop-color:#000000;stop-opacity:1"
             d="m -846.89648,64.392578 c -1.15754,0 -2.14031,0.510002 -2.78907,1.347656 -0.53721,0.693654 -0.70641,1.423635 -0.77929,1.835938 -0.97997,5.543778 -2.00078,8.712277 -3.42578,10.404297 -1.44573,1.716606 -3.6269,2.663432 -8.39649,3.384765 l 0.0156,-0.002 c -0.007,8.95e-4 -0.72195,0.08676 -1.45899,0.525391 -0.8837,0.525924 -1.77344,1.565991 -1.77344,3.089844 0,1.871365 1.43502,3.381925 3.2168,3.652343 4.76983,0.723902 6.95043,1.671182 8.39649,3.388672 1.42522,1.692763 2.4458,4.86242 3.42578,10.406246 0.14437,0.81675 0.50929,1.67678 1.23828,2.31836 0.74631,0.65683 1.61326,0.86328 2.33008,0.86328 0.58055,0 1.22915,-0.09 1.99804,-0.34765 0.38423,-0.12876 0.92189,-0.34425 1.44336,-0.77149 0.62187,-0.50951 1.22266,-1.35016 1.22266,-2.51562 0,-11.296503 0.0768,-22.611501 0,-33.94336 0,-0.722895 -0.39711,-1.39973 -0.40235,-1.408203 -0.12511,-0.202575 -0.26729,-0.366572 -0.33203,-0.4375 -0.16377,-0.179441 -0.32485,-0.316752 -0.44336,-0.41211 -0.25898,-0.208413 -0.54147,-0.396713 -0.84961,-0.574218 -0.53762,-0.309699 -1.42521,-0.804688 -2.63671,-0.804688 z m 0,2.273438 c 0.65015,0 0.97375,0.194608 1.5039,0.5 0.22574,0.130038 0.40225,0.250755 0.55664,0.375 0.0882,0.07097 0.11961,0.09731 0.18946,0.173828 0.0521,0.05705 0.038,0.03667 0.0781,0.101562 0.15989,0.258995 0.0625,-0.0486 0.0625,0.212891 a 1.1366786,1.1366786 0 0 0 0,0.0078 c 0.0767,11.313931 0,22.626149 0,33.935553 0,0.26304 -0.24987,0.64248 -0.39062,0.75781 -0.24117,0.19758 -0.43367,0.27555 -0.72461,0.37305 -0.58145,0.19485 -0.89237,0.23046 -1.27539,0.23046 -0.22819,0 -0.60442,-0.0983 -0.83008,-0.29687 -0.24301,-0.21388 -0.42301,-0.57031 -0.5,-1.00586 -0.99877,-5.650132 -1.98277,-9.168822 -3.92578,-11.476565 -1.84981,-2.197022 -4.70821,-3.302634 -9.33985,-4.05664 l -0.008,0.01172 -0.14062,0.01172 -0.0234,-0.06641 c -0.0197,-0.0031 -0.0291,-0.0086 -0.0488,-0.01172 0.0169,-5.79e-4 0.0266,-0.0045 0.043,-0.0059 l -0.64258,-1.857422 a 1.1366786,1.1366786 0 0 0 -0.27344,0.181641 c 0.008,-0.01171 0.0198,-0.03054 0.0215,-0.0332 -0.0111,0.0147 -0.0273,0.03514 -0.0274,0.03516 0,2e-6 -0.002,0.0018 -0.002,0.002 a 1.1366786,1.1366786 0 0 0 -0.0547,0.0918 1.1366786,1.1366786 0 0 0 0,0.002 1.1366786,1.1366786 0 0 0 -0.10742,0.886719 c 0,0 0.26585,0.250885 0.45899,0.458984 -0.53193,-0.224035 -0.9336,-0.643781 -0.9336,-1.226562 0,-0.468813 0.49756,-1.037629 0.66406,-1.136719 0.30938,-0.184114 0.5918,-0.226563 0.5918,-0.226563 l -0.13281,0.0098 a 1.1366786,1.1366786 0 0 0 0.16015,-0.01367 c 4.96669,-0.751142 7.87277,-1.883703 9.79493,-4.166016 1.94285,-2.3069 2.927,-5.824429 3.92578,-11.474609 0.0552,-0.312467 0.1052,-0.539399 0.33789,-0.839844 0.12116,-0.156443 0.67648,-0.464843 0.99219,-0.464843 z m 0.7539,0.894531 a 1.1366786,1.1366786 0 0 0 -1.52344,1.068359 l 0.0176,-0.201172 c -0.97944,5.455511 -1.96524,9.040514 -3.99218,11.447266 -1.78428,2.118596 -4.61623,3.226608 -8.68555,4.005859 a 1.1366786,1.1366786 0 0 0 -0.64649,0.78125 c 0.0483,0.06085 0.10028,0.08357 0.13282,0.134766 a 1.1366786,1.1366786 0 0 0 -0.15625,-0.107422 1.1366786,1.1366786 0 0 0 0.13672,0.783203 l -0.28125,0.457031 c 0.12281,0.13109 0.26625,0.283634 0.26953,0.28711 a 1.1366786,1.1366786 0 0 0 0.13672,-0.59375 1.1366786,1.1366786 0 0 0 0.40625,0.490234 c 4.07002,0.78133 6.90297,1.892225 8.6875,4.011719 2.03979,2.422691 3.02677,6.020498 4.01171,11.52734 a 1.1366786,1.1366786 0 0 0 1.29297,0.92383 c 0.10363,-0.0161 0.18543,-0.032 0.27735,-0.0527 a 1.1366786,1.1366786 0 0 0 0.88672,-1.10938 c 0.002,-10.900987 0.068,-21.801011 0,-32.697263 a 1.1366786,1.1366786 0 0 0 -0.58594,-0.986328 c -0.13597,-0.07523 -0.30644,-0.141589 -0.38477,-0.169922 z m -1.30273,9.333984 c 0.007,5.398439 0.0108,10.800649 0,16.207031 -0.63672,-1.677867 -1.39401,-3.178842 -2.45703,-4.441406 -1.52769,-1.814451 -3.71845,-2.848951 -6.17188,-3.660156 2.45333,-0.810161 4.64416,-1.846189 6.17188,-3.660156 1.06398,-1.263356 1.82095,-2.764428 2.45703,-4.445313 z m -14.19531,7.353516 a 1.1366786,1.1366786 0 0 0 -0.16993,0.01367 c -0.27782,0.0421 -0.28463,0.04786 -0.0332,0.0098 a 1.1366786,1.1366786 0 0 0 -0.1875,0.123047 c 0.12372,-0.05618 0.29729,-0.07384 0.52344,-0.05469 a 1.1366786,1.1366786 0 0 0 -0.13281,-0.0918 z m -0.4375,0.09766 a 1.1366786,1.1366786 0 0 0 -0.14844,0.07031 c 0.0253,-0.01505 0.13163,6.21e-4 0.16992,-0.01758 -0.002,-0.0054 -0.0213,-0.05233 -0.0215,-0.05273 z m 0.0254,0.0625 a 1.1366786,1.1366786 0 0 0 -0.16407,0.109375 c 0.0838,0.128431 0.57227,0.875 0.57227,0.875 0,0 -0.36002,-0.867989 -0.4082,-0.984375 z m -0.29102,0.08398 c 0,0 -0.0644,0.05469 -0.0644,0.05469 0,0 -0.009,0.01095 -0.0137,0.01563 -2e-5,1.8e-5 0.0401,-0.0311 0.0801,-0.0625 z m -0.0781,0.07031 c -0.0189,0.01899 -0.0606,0.05859 -0.0606,0.05859 0,0 -0.0176,0.01953 -0.0176,0.01953 -10e-6,1.6e-5 -0.028,0.03877 -0.0547,0.07422 0.0101,-0.01132 0.13288,-0.152409 0.13282,-0.152344 z m 1.82421,0.476562 c 2e-5,3.4e-5 0.004,0.0039 0.004,0.0039 l -0.008,0.01172 a 1.1366786,1.1366786 0 0 0 0.004,-0.01563 z m -0.006,0.808594 c -0.005,0.0103 -0.0314,0.06469 -0.0312,0.06445 5e-5,-8.1e-5 -0.0209,0.03679 -0.0371,0.06445 0.015,-0.02376 0.0276,-0.04224 0.0332,-0.05273 0.027,-0.05089 0.0306,-0.06528 0.0352,-0.07617 z m -0.10156,0.179688 c -0.014,0.01914 -0.0262,0.037 -0.0391,0.05469 0.003,-0.0035 0.0156,-0.01757 0.0156,-0.01758 5e-5,-5.8e-5 0.0157,-0.02511 0.0234,-0.03711 z m -0.12109,0.148437 c -0.02,0.02012 -0.0387,0.03866 -0.043,0.04297 2e-5,2.2e-5 0.002,0.0039 0.002,0.0039 2e-5,-2e-5 0.0238,-0.02741 0.041,-0.04687 z m -0.48242,0.02539 -0.13086,0.210937 c 0.0634,-0.01946 0.15882,-2e-4 0.20703,-0.02344 -0.008,-0.01852 -0.0488,-0.121276 -0.0762,-0.1875 z m 0.0957,0.232422 -0.10547,0.04687 c 0,0 0.0625,-0.01953 0.0625,-0.01953 0,0 0.0469,-0.01758 0.0469,-0.01758 0,0 -0.004,-0.0096 -0.004,-0.0098 z"
             id="path557" /></g></g><g
         id="g255"
         style="opacity:1;fill:#24140f;fill-opacity:1;stroke:#000000;stroke-width:2.27313;stroke-dasharray:none;stroke-opacity:1"><g
           id="path254"
           style="opacity:1;fill:#24140f;fill-opacity:1"><path
             style="baseline-shift:baseline;display:inline;overflow:visible;vector-effect:none;fill:#24140f;fill-opacity:1;stroke:none;stroke-linecap:round;stroke-linejoin:round;stroke-miterlimit:3;paint-order:fill markers stroke;enable-background:accumulate;stop-color:#000000;stop-opacity:1"
             d="m -820.50345,38.000408 c 14.02938,0 37.68119,2.00001 37.68119,21.99959 0,20.6937 -25.51278,20.31448 -30.46929,20.19413 -6.35329,-0.15426 -8.47641,2.50669 -8.47641,4.80628 0,2.20267 1,4.86604 8.40503,4.81462 9.42886,-0.0655 30.55851,1.18538 30.55851,23.182272 0,7.41934 -0.87661,12.43465 4.97066,15.00311 3.16474,1.39013 3.48467,2.78349 0.25156,4.12334 -2.58297,1.07042 -4.22223,0.87666 -7.25156,0.87666 -11.96761,0 -16.57327,-10 -16.57327,-20 0,-10 -4.62665,-17.654032 -11.9559,-20.000002 -5.03908,-1.36497 -9.97065,-2.5 -9.97065,-8 0,-5.5 5.75417,-5.93153 10.04203,-6.67671 10.5031,-2.13076 11.76639,-8.32329 11.76639,-18.3237 0,-12.99958 -8.2629,-18.20822 -18.97829,-19.24403 -2.01423,-0.19471 -2.30096,-0.83794 -2.30096,-1.50981 0,-0.52715 0.71093,-1.24575 2.30096,-1.24575 z"
             id="path558" /><path
             style="baseline-shift:baseline;display:inline;overflow:visible;vector-effect:none;fill:#24140f;fill-opacity:1;stroke:none;stroke-linecap:round;stroke-linejoin:round;stroke-miterlimit:3;paint-order:fill markers stroke;enable-background:accumulate;stop-color:#000000;stop-opacity:1"
             d="m -820.50391,36.863281 c -0.96623,0 -1.75946,0.213019 -2.36718,0.609375 -0.60773,0.396357 -1.07032,0.998928 -1.07032,1.773438 0,0.497616 0.19485,1.299234 0.80469,1.80664 0.60984,0.507406 1.40216,0.725594 2.52344,0.833985 5.20394,0.503042 9.69967,2.017048 12.85742,4.851562 3.15776,2.834515 5.09375,7.00274 5.09375,13.261719 0,4.952347 -0.34793,8.828067 -1.81055,11.580078 -1.46216,2.75116 -3.99414,4.602267 -9.04101,5.626953 -0.002,3.17e-4 -0.002,0.0016 -0.004,0.002 -2.09073,0.361778 -4.66167,0.639457 -6.86914,1.632813 -2.21768,0.997949 -4.08398,3.01184 -4.08398,6.158203 0,3.0897 1.54827,5.238122 3.63867,6.519531 2.08009,1.275091 4.64049,1.893487 7.13476,2.56836 6.77077,2.174257 11.1543,9.268652 11.1543,18.912112 0,5.17449 1.17352,10.39424 4.00586,14.40625 2.83234,4.01201 7.40275,6.73047 13.70313,6.73047 2.98086,0 4.9026,0.19121 7.6875,-0.96289 0.87876,-0.36418 1.56344,-0.73749 2.09765,-1.22266 0.53421,-0.48516 0.95157,-1.21145 0.8711,-1.98828 -0.0805,-0.77683 -0.55559,-1.34964 -1.10743,-1.80078 -0.55184,-0.45114 -1.24306,-0.83031 -2.09179,-1.20313 -2.6551,-1.16627 -3.55952,-2.61028 -4.02149,-4.86914 -0.46197,-2.25886 -0.26953,-5.33736 -0.26953,-9.09179 0,-11.36237 -5.64623,-17.702644 -12.39453,-20.892584 -6.7483,-3.18994 -14.53801,-3.460875 -19.30859,-3.427735 -3.56591,0.02476 -5.40261,-0.629816 -6.26368,-1.314453 -0.86106,-0.684636 -0.99609,-1.433944 -0.99609,-2.363281 0,-0.800013 0.31875,-1.651793 1.37305,-2.394531 1.05429,-0.742738 2.92441,-1.348597 5.93945,-1.275391 2.4966,0.06062 10.24635,0.21197 17.5,-2.355469 3.62683,-1.283719 7.15555,-3.261519 9.79492,-6.332031 2.63938,-3.070512 4.33789,-7.235612 4.33789,-12.642578 0,-5.223915 -1.57322,-9.394699 -4.16992,-12.591797 -2.5967,-3.197097 -6.17235,-5.417067 -10.13281,-6.966797 -7.92093,-3.09946 -17.44693,-3.578125 -24.51563,-3.578125 z m 0,2.273438 c 6.96068,0 16.27518,0.521435 23.6875,3.421875 3.70616,1.45022 6.92083,3.480417 9.19727,6.283203 2.27643,2.802786 3.66016,6.382328 3.66016,11.158203 0,4.939884 -1.4899,8.487383 -3.78907,11.162109 -2.29916,2.674727 -5.45914,4.474825 -8.83007,5.667969 -5.88764,2.083934 -11.79915,2.203301 -14.97852,2.177734 4.51801,-1.212228 7.4779,-3.328349 9.08984,-6.361328 1.79481,-3.377046 2.07813,-7.598421 2.07813,-12.646484 0,-6.740601 -2.19512,-11.676425 -5.84766,-14.955078 -3.65254,-3.278653 -8.64675,-4.887154 -14.1582,-5.419922 -0.7698,-0.07442 -0.99755,-0.212964 -1.10938,-0.275391 0.17154,-0.09214 0.44559,-0.21289 1,-0.21289 z m -1.16406,0.109375 c 0,0.129776 0.0284,0.05826 0.0215,0.06836 -10e-4,-0.0011 -0.0341,-0.007 -0.0352,-0.0078 -0.0371,-0.03085 0.0137,0.113706 0.0137,-0.06055 z m 4.30469,51.324218 c 1.14317,0.221118 2.38082,0.392158 4.00781,0.38086 4.65828,-0.03236 12.14852,0.290636 18.32227,3.208984 6.17374,2.918348 11.09179,8.203364 11.09179,18.837894 0,3.6649 -0.24513,6.80113 0.31641,9.54687 0.56154,2.74575 2.14181,5.09391 5.33398,6.4961 0.73364,0.32225 1.26922,0.63789 1.56641,0.88085 0.2972,0.24297 0.29419,0.36264 0.28516,0.2754 -0.009,-0.0873 0.0795,-0.12606 -0.13672,0.0703 -0.21622,0.19636 -0.70362,0.50089 -1.44141,0.80664 -2.38104,0.98674 -3.73861,0.78906 -6.8164,0.78906 -5.66724,0 -9.38331,-2.27959 -11.84571,-5.76758 -2.46239,-3.48798 -3.58984,-8.27019 -3.58984,-13.0957 0,-10.35057 -4.86552,-18.559591 -12.74609,-21.082031 a 1.1366786,1.1366786 0 0 0 -0.0508,-0.01367 c -1.55471,-0.421135 -2.98563,-0.855271 -4.29687,-1.333985 z"
             id="path559" /></g><g
           id="path255"
           style="opacity:1;fill:#24140f;fill-opacity:1"><path
             style="baseline-shift:baseline;display:inline;overflow:visible;vector-effect:none;fill:#24140f;fill-opacity:1;stroke:none;stroke-linecap:round;stroke-linejoin:round;stroke-miterlimit:3;paint-order:fill markers stroke;enable-background:accumulate;stop-color:#000000;stop-opacity:1"
             d="m -820.50391,36.529297 c -1.01651,0 -1.8732,0.223419 -2.54882,0.664062 -0.67563,0.440643 -1.22266,1.128187 -1.22266,2.052735 0,0.545095 0.23185,1.487077 0.92578,2.064453 0.69394,0.577376 1.55027,0.796571 2.70508,0.908203 5.15879,0.498677 9.58091,1.998275 12.66601,4.767578 3.08511,2.769304 4.98243,6.825408 4.98243,13.013672 0,4.938293 -0.35765,8.763588 -1.77149,11.423828 -1.41301,2.658669 -3.82378,4.444232 -8.80859,5.457031 -0.003,5.99e-4 -0.005,0.0014 -0.008,0.002 -2.07554,0.358554 -4.66418,0.632382 -6.93946,1.65625 -2.28908,1.030081 -4.28125,3.198182 -4.28125,6.460938 0,3.189454 1.64159,5.482304 3.79883,6.804687 2.14153,1.312756 4.71798,1.927684 7.20313,2.59961 6.61125,2.120878 10.92578,9.053276 10.92578,18.595706 0,5.22573 1.1817,10.5087 4.06836,14.59766 2.88665,4.08895 7.58127,6.87304 13.97461,6.87304 2.96663,0 4.97025,0.1904 7.81445,-0.98828 0.89946,-0.37275 1.61441,-0.75759 2.19531,-1.28515 0.5809,-0.52757 1.07213,-1.36388 0.97852,-2.26758 -0.0936,-0.9037 -0.63929,-1.54369 -1.22852,-2.02539 -0.58923,-0.48171 -1.30233,-0.86977 -2.16797,-1.25 -2.57623,-1.13164 -3.38273,-2.44349 -3.83008,-4.63086 -0.44734,-2.18738 -0.26171,-5.25782 -0.26171,-9.02539 0,-11.46923 -5.75329,-17.965502 -12.58594,-21.195319 -6.83266,-3.229816 -14.66605,-3.490286 -19.45313,-3.457031 -3.52579,0.02448 -5.28599,-0.63295 -6.05468,-1.244141 -0.7687,-0.61119 -0.86915,-1.222733 -0.86914,-2.101562 0,-0.697299 0.25564,-1.434345 1.23046,-2.121094 0.97482,-0.686748 2.7707,-1.286897 5.73829,-1.214844 2.50199,0.06075 10.29229,0.219036 17.62109,-2.375 3.6644,-1.297017 7.24622,-3.29911 9.93555,-6.427734 2.68932,-3.128624 4.41992,-7.385782 4.41992,-12.861328 0,-5.289699 -1.60042,-9.545789 -4.24414,-12.800781 -2.64372,-3.254993 -6.27173,-5.504019 -10.26953,-7.06836 -7.99561,-3.128681 -17.55412,-3.601562 -24.63868,-3.601562 z m 2.03516,3.050781 c 6.68086,0.09688 14.83526,0.668922 21.53125,3.289063 3.66882,1.435609 6.82918,3.438702 9.05859,6.183593 2.22942,2.744891 3.58594,6.237175 3.58594,10.947266 0,4.871304 -1.45977,8.326745 -3.70898,10.943359 -2.24921,2.616615 -5.35414,4.39242 -8.6875,5.572266 -4.57852,1.620572 -8.92289,1.973467 -12.36719,2.085937 3.27713,-1.302959 5.52995,-3.249657 6.88477,-5.798828 1.84357,-3.468817 2.11718,-7.740617 2.11718,-12.802734 0,-6.811316 -2.23379,-11.859261 -5.95898,-15.203125 -3.29132,-2.954401 -7.65676,-4.51096 -12.45508,-5.216797 z m 4.13477,51.611328 c 0.36597,0.01123 0.58529,0.09649 0.98046,0.09375 4.64179,-0.03225 12.08835,0.299263 18.17774,3.177735 6.08938,2.878471 10.90039,8.007489 10.90039,18.535159 0,3.65176 -0.2539,6.798 0.32227,9.61523 0.57616,2.81723 2.2563,5.2956 5.52734,6.73242 0.68005,0.29872 1.14306,0.58245 1.41406,0.79297 -0.21856,0.1638 -0.52837,0.37647 -1.13281,0.62695 -2.32175,0.96217 -3.59743,0.76368 -6.68945,0.76368 -5.57428,0 -9.16419,-2.21591 -11.57227,-5.62696 -2.40808,-3.41104 -3.53125,-8.12807 -3.53125,-12.90234 0,-10.45351 -4.93409,-18.82613 -12.97656,-21.400391 a 1.470467,1.470467 0 0 0 -0.0645,-0.01758 c -0.47643,-0.129054 -0.89413,-0.262741 -1.35546,-0.390625 z"
             id="path560" /><path
             style="baseline-shift:baseline;display:inline;overflow:visible;vector-effect:none;fill:#24140f;fill-opacity:1;stroke:none;stroke-linecap:round;stroke-linejoin:round;stroke-miterlimit:3;paint-order:fill markers stroke;enable-background:accumulate;stop-color:#000000;stop-opacity:1"
             d="m -820.50391,35.392578 c -0.10059,0 -0.17034,0.06842 -0.26953,0.07227 l -0.004,-0.03906 a 1.1366786,1.1366786 0 0 0 -0.0332,0.04883 c -1.05152,0.04659 -2.05339,0.239367 -2.86328,0.767578 -0.89362,0.582816 -1.73828,1.631042 -1.73828,3.003907 0,0.867378 0.27047,2.050992 1.33594,2.9375 0.93861,0.780949 2.07919,1.045851 3.32226,1.166015 5.0035,0.483666 9.18052,1.937518 12.01563,4.482422 2.84695,2.555524 4.60547,6.212019 4.60547,12.167969 0,4.883417 -0.39946,8.558956 -1.63867,10.890625 -1.26014,2.371028 -3.23138,3.899818 -8.02735,4.875 l 0.0215,-0.002 c -0.007,0.0012 -0.0165,0.0027 -0.0234,0.0039 l 0.002,-0.002 c -0.0522,0.01043 -0.005,0.0022 -0.004,0.002 -2.01255,0.346217 -4.69644,0.613405 -7.1875,1.734375 -2.60829,1.173725 -4.95118,3.772649 -4.95118,7.498047 0,3.579442 1.90452,6.279392 4.3418,7.773437 2.33841,1.433445 5.00293,2.053639 7.45313,2.714844 6.05993,1.946357 10.13281,8.314013 10.13281,17.511723 0,5.39707 1.20896,10.90753 4.27734,15.25391 3.08131,4.36468 8.17905,7.35351 14.90235,7.35351 2.918,0 5.1914,0.19331 8.25,-1.07422 0.95827,-0.39712 1.80259,-0.83949 2.52343,-1.49414 0.78736,-0.71507 1.48871,-1.84605 1.34571,-3.22656 -0.13458,-1.29927 -0.9357,-2.21277 -1.64063,-2.78906 -0.70554,-0.5768 -1.51377,-1.00785 -2.42969,-1.41016 -2.36007,-1.03669 -2.76233,-1.80631 -3.17382,-3.81836 -0.39315,-1.92236 -0.23829,-4.99197 -0.23829,-8.79687 0,-11.84932 -6.09419,-18.84655 -13.23632,-22.222663 -7.11476,-3.363163 -15.11035,-3.600008 -19.94727,-3.566407 -3.38189,0.02348 -4.92196,-0.66383 -5.33984,-0.996093 -0.25869,-0.20568 -0.31022,-0.305794 -0.35938,-0.44336 -0.0492,-0.137566 -0.0801,-0.373423 -0.0801,-0.769531 0,-0.419511 0.01,-0.671282 0.74805,-1.191406 0.69241,-0.487791 2.25327,-1.075878 5.05664,-1.007813 2.51133,0.06098 10.44601,0.243967 18.02735,-2.439453 3.79159,-1.342039 7.55969,-3.434602 10.41796,-6.759766 2.86444,-3.332341 4.69532,-7.886534 4.69532,-13.601562 0,-5.518947 -1.69018,-10.060476 -4.49805,-13.517578 -2.80301,-3.451109 -6.61353,-5.79614 -10.73828,-7.410156 -8.24567,-3.226529 -17.9176,-3.679688 -25.05274,-3.679688 z m 0,2.273438 c 7.03399,0 16.47906,0.492603 24.22461,3.523437 3.87085,1.514666 7.31635,3.667686 9.80078,6.726563 2.47957,3.052881 3.99024,7.023533 3.99024,12.083984 0,5.236064 -1.63032,9.196187 -4.14453,12.121094 -2.52039,2.932084 -5.91593,4.843708 -9.45313,6.095703 -7.07627,2.504652 -14.72219,2.37107 -17.21484,2.310547 -3.13181,-0.07604 -5.16269,0.536169 -6.41992,1.421875 -1.21134,0.853373 -1.71289,2.075694 -1.71289,3.050781 -10e-6,0.482721 0.0196,0.992493 0.21289,1.533203 0.19323,0.54071 0.57592,1.053474 1.08593,1.458984 1.1195,0.890119 3.09984,1.515714 6.76954,1.490235 4.73724,-0.03291 12.40842,0.251187 18.95898,3.347656 6.52316,3.083521 11.93555,9.078832 11.93555,20.167972 0,3.73023 -0.21639,6.8015 0.28515,9.2539 0.48321,2.3627 1.69395,4.21677 4.48633,5.44336 0.81537,0.35815 1.43334,0.70323 1.90625,1.08985 0.47353,0.38711 0.76378,0.75359 0.81641,1.26171 0.0442,0.42689 -0.23689,0.96853 -0.61133,1.3086 -0.44096,0.40047 -1.02654,0.72779 -1.86719,1.07617 -2.62981,1.08983 -4.36364,0.90234 -7.3789,0.90234 -6.06339,0 -10.35488,-2.57935 -13.04688,-6.39257 -2.70493,-3.83155 -3.85937,-8.88702 -3.85937,-13.94141 0,-9.88502 -4.5546,-17.38074 -11.71485,-19.677734 a 1.1366786,1.1366786 0 0 0 -0.0508,-0.01563 c -2.50755,-0.677984 -4.97618,-1.287574 -6.90625,-2.470704 -1.8772,-1.15072 -3.25586,-3.036471 -3.25586,-5.835937 0,-2.800114 1.64146,-4.537391 3.61133,-5.423828 2.05025,-0.922604 4.52992,-1.205203 6.66602,-1.574219 a 1.1366786,1.1366786 0 0 0 0.0293,-0.0039 c 0.0985,-0.0197 0.10049,-0.02046 0.008,-0.002 a 1.1366786,1.1366786 0 0 0 0.004,-0.002 c 5.17017,-1.050461 8.02047,-3.091589 9.58594,-6.03711 1.58846,-2.988811 1.90429,-6.963862 1.9043,-11.957031 0,-6.420578 -2.03611,-10.87629 -5.35938,-13.859375 -3.33509,-2.993702 -8.00233,-4.539046 -13.31641,-5.052734 -1.06654,-0.1031 -1.63862,-0.276588 -2.08789,-0.650391 -0.32239,-0.268244 -0.51562,-0.968595 -0.51562,-1.191406 0,-0.476232 0.24939,-0.803092 0.70703,-1.101563 0.45463,-0.296514 1.07776,-0.478515 1.92773,-0.478515 z m 2.05079,0.777343 a 1.1366786,1.1366786 0 0 0 -0.18165,2.261719 c 4.65849,0.685268 8.79411,2.184253 11.86133,4.9375 3.47013,3.114912 5.58203,7.794599 5.58203,14.357422 0,5.021162 -0.30041,9.101027 -1.98437,12.269531 -1.22231,2.299853 -3.21864,4.049957 -6.30078,5.275391 a 1.1366786,1.1366786 0 0 0 0.45703,2.193359 c 3.49065,-0.113983 7.9662,-0.471678 12.70898,-2.15039 3.46225,-1.225465 6.74937,-3.088344 9.16993,-5.904297 2.41317,-2.807367 3.98437,-6.585229 3.98437,-11.683594 0,-4.928314 -1.45524,-8.728105 -3.83984,-11.664063 -2.39021,-2.942866 -5.73069,-5.03976 -9.52735,-6.52539 -6.93531,-2.713787 -15.19737,-3.269562 -21.92968,-3.367188 z m 9.28515,2.88086 c 4.09819,0.452343 8.1889,1.184072 11.81641,2.603515 3.54098,1.385588 6.52123,3.294881 8.58984,5.841797 2.07424,2.553825 3.33203,5.738601 3.33203,10.230469 0,4.644243 -1.34835,7.777264 -3.43359,10.203125 -2.07786,2.417277 -5.0006,4.106007 -8.20508,5.240234 -2.50189,0.885546 -4.88569,1.335871 -7.14648,1.619141 1.26931,-1.066858 2.29381,-2.309628 3.04687,-3.726563 2.00318,-3.769129 2.25,-8.232865 2.25,-13.335937 0,-7.059809 -2.35569,-12.476012 -6.33594,-16.048828 -1.18049,-1.059655 -2.51792,-1.890278 -3.91406,-2.626953 z m -5.10937,48.732422 a 1.1366786,1.1366786 0 0 0 -0.35938,2.230468 c 0.43503,0.120592 0.85552,0.255567 1.36133,0.392578 a 1.1366786,1.1366786 0 0 0 0.0234,0.0059 c 10e-4,3.68e-4 0.002,0.0016 0.004,0.002 7.48222,2.402031 12.17383,10.222303 12.17383,20.312503 0,4.95252 1.14347,9.88028 3.74024,13.55859 2.58126,3.65637 6.62451,6.10743 12.5,6.10743 3.04337,0 4.61615,0.19009 7.125,-0.84961 0.68774,-0.285 1.12567,-0.5778 1.3789,-0.76758 a 1.1366786,1.1366786 0 0 0 0.0156,-1.8086 c -0.37559,-0.29176 -0.90554,-0.60664 -1.6543,-0.93554 -2.96164,-1.30092 -4.35562,-3.39944 -4.87109,-5.91992 -0.52976,-2.59027 -0.29883,-5.68228 -0.29883,-9.38672 0,-10.87394 -5.1989,-16.55995 -11.55078,-19.562506 -6.38257,-3.01706 -13.96753,-3.319794 -18.67188,-3.28711 -0.22355,0.0016 -0.41514,-0.07324 -0.91601,-0.0918 z m 6.09179,2.669921 c 4.05525,0.275356 8.51038,0.866689 12.52344,2.763672 5.82688,2.754386 10.25,7.326406 10.25,17.507816 0,3.59907 -0.27688,6.79955 0.3457,9.84375 0.58894,2.87968 2.3769,5.49511 5.46485,7.12304 -1.48179,0.42647 -2.67512,0.42774 -5.23242,0.42774 -5.27308,0 -8.40964,-1.98075 -10.64454,-5.14649 -2.21939,-3.14376 -3.32226,-7.65007 -3.32226,-12.24609 0,-8.8018 -3.4723,-16.286867 -9.38477,-20.273438 z"
             id="path561" /></g></g></g></g></svg>
