<!--?xml version="1.0" encoding="UTF-8" standalone="no"?-->
<!-- Created with Inkscape (http://www.inkscape.org/) -->

<svg width="96.121452mm" height="95.785629mm" viewBox="0 0 96.121452 95.785629" version="1.1" id="svg1" xml:space="preserve" xmlns="http://www.w3.org/2000/svg" xmlns:svg="http://www.w3.org/2000/svg" style=""><defs id="defs1"></defs><g id="layer4" transform="translate(1135.834,420.53035)"><path style="fill: none; fill-opacity: 1; stroke: rgb(0, 0, 0); stroke-width: 0.4px; stroke-linecap: round; stroke-linejoin: round; stroke-miterlimit: 3; stroke-opacity: 1; paint-order: fill markers;" id="path756" d="m -1111.6124,-380.28519 a 16.823984,16.823984 0 0 1 -14.5469,-15.90311 16.823984,16.823984 0 0 1 13.0349,-17.16426 16.823984,16.823984 0 0 1 19.2245,9.74367 16.823984,16.823984 0 0 1 -6.1362,20.6608" class="PlXnjgeR_0"></path><path style="fill: none; fill-opacity: 1; stroke: rgb(0, 0, 0); stroke-width: 0.4px; stroke-linecap: round; stroke-linejoin: round; stroke-miterlimit: 3; stroke-opacity: 1; paint-order: fill markers;" id="path757" d="m -1099.9146,-362.06079 a 16.823984,16.823984 0 0 1 5.9545,20.71731 16.823984,16.823984 0 0 1 -19.3151,9.57016 16.823984,16.823984 0 0 1 -12.8761,-17.28785 16.823984,16.823984 0 0 1 14.701,-15.76526" class="PlXnjgeR_1"></path><path style="fill: none; fill-opacity: 1; stroke: rgb(0, 0, 0); stroke-width: 0.4px; stroke-linecap: round; stroke-linejoin: round; stroke-miterlimit: 3; stroke-opacity: 1; paint-order: fill markers;" id="path758" d="m -387.20234,1135.634 a 14.575573,12.105202 0 0 1 14.57557,-12.1052 14.575573,12.105202 0 0 1 14.57557,12.1052 h -14.57557 z" transform="rotate(90)" class="PlXnjgeR_2"></path><path style="fill: none; fill-opacity: 1; stroke: rgb(0, 0, 0); stroke-width: 0.4px; stroke-linecap: round; stroke-linejoin: round; stroke-miterlimit: 3; stroke-opacity: 1; paint-order: fill markers;" id="path759" d="m -485.97361,1050.7615 a 16.520634,17.03281 0 0 1 16.52064,-17.0328 16.520634,17.03281 0 0 1 16.52063,17.0328 h -16.52063 z" transform="rotate(86.138079)" class="PlXnjgeR_3"></path><path style="fill: none; fill-opacity: 1; stroke: rgb(0, 0, 0); stroke-width: 0.4px; stroke-linecap: round; stroke-linejoin: round; stroke-miterlimit: 3; stroke-opacity: 1; paint-order: fill markers;" id="path760" d="m 362.51939,-1039.9126 a 10.369674,11.11624 0 0 1 10.36968,-11.1162 10.369674,11.11624 0 0 1 10.36967,11.1162 h -10.36967 z" transform="rotate(-90)" class="PlXnjgeR_4"></path><path style="fill: none; fill-opacity: 1; stroke: rgb(0, 0, 0); stroke-width: 0.4px; stroke-linecap: round; stroke-linejoin: round; stroke-miterlimit: 3; stroke-opacity: 1; paint-order: fill markers;" id="path761" d="m -1069.7386,-361.3244 a 16.823984,16.823984 0 0 1 -18.3476,4.68454 16.823984,16.823984 0 0 1 -11.0842,-15.3532 16.823984,16.823984 0 0 1 10.2213,-15.94064 16.823984,16.823984 0 0 1 18.5779,3.66643" class="PlXnjgeR_5"></path><path style="fill: none; fill-opacity: 1; stroke: rgb(0, 0, 0); stroke-width: 0.4px; stroke-linecap: round; stroke-linejoin: round; stroke-miterlimit: 3; stroke-opacity: 1; paint-order: fill markers;" id="rect761" width="30.500004" height="3.0000255" d="M -1075.0288,-374.63275 L -1046.528796,-374.63275 A 1,1,0,0,1,-1045.528796,-373.63275 L -1045.528796,-372.6327245 A 1,1,0,0,1,-1046.528796,-371.6327245 L -1075.0288,-371.6327245 A 1,1,0,0,1,-1076.0288,-372.6327245 L -1076.0288,-373.63275 A 1,1,0,0,1,-1075.0288,-374.63275" class="PlXnjgeR_6"></path><path style="fill: none; fill-opacity: 1; stroke: rgb(0, 0, 0); stroke-width: 0.4px; stroke-linecap: round; stroke-linejoin: round; stroke-miterlimit: 3; stroke-opacity: 1; paint-order: fill markers;" id="circle761" d="M-1123.1903305,-341.75775A7.1615305,7.1615305 0,1,1 -1108.8672695,-341.75775A7.1615305,7.1615305 0,1,1 -1123.1903305,-341.75775" class="PlXnjgeR_7"></path><path style="fill: none; fill-opacity: 1; stroke: rgb(0, 0, 0); stroke-width: 0.400003px; stroke-linecap: round; stroke-linejoin: round; stroke-miterlimit: 3; stroke-opacity: 1; paint-order: fill markers;" id="rect762" width="14.990349" height="37.956219" transform="matrix(0.97841055,-0.20667076,0.21263886,0.97713086,0,0)" d="M -973.99811,-576.63214 L -973.007761,-576.63214 A 7,7,0,0,1,-966.007761,-569.63214 L -966.007761,-545.675921 A 7,7,0,0,1,-973.007761,-538.675921 L -973.99811,-538.675921 A 7,7,0,0,1,-980.99811,-545.675921 L -980.99811,-569.63214 A 7,7,0,0,1,-973.99811,-576.63214" class="PlXnjgeR_8"></path><path style="fill: none; fill-opacity: 1; stroke: rgb(0, 0, 0); stroke-width: 0.4px; stroke-linecap: round; stroke-linejoin: round; stroke-miterlimit: 3; stroke-opacity: 1; paint-order: fill markers;" id="path762" d="m -1065.9138,-376.03546 a 16.823984,16.823984 0 0 1 0.2679,5.55991" class="PlXnjgeR_9"></path><path style="fill: none; fill-opacity: 1; stroke: rgb(0, 0, 0); stroke-width: 0.4px; stroke-linecap: round; stroke-linejoin: round; stroke-miterlimit: 3; stroke-opacity: 1; paint-order: fill markers;" d="m -1079.7135,-348.72454 -1.1376,23.7798 h 27.6445 z" id="path763" class="PlXnjgeR_10"></path><path style="fill: none; fill-opacity: 1; stroke: rgb(0, 0, 0); stroke-width: 0.4px; stroke-linecap: round; stroke-linejoin: round; stroke-miterlimit: 6; stroke-opacity: 1; paint-order: fill markers;" d="m -1040.2004,-420.30892 v 10.30893 c -4.2375,-5.82267 -10.322,-8.74148 -16.7502,-10.30892 z" id="path764" class="PlXnjgeR_11"></path><path style="fill: none; fill-opacity: 1; stroke: rgb(0, 0, 0); stroke-width: 0.4px; stroke-linecap: round; stroke-linejoin: round; stroke-miterlimit: 3; stroke-opacity: 1; paint-order: fill markers;" d="m -1108.9064,-324.97739 v -16.98854 z" id="path765" class="PlXnjgeR_12"></path><path style="fill: none; fill-opacity: 1; stroke: rgb(0, 0, 0); stroke-width: 0.4px; stroke-linecap: round; stroke-linejoin: round; stroke-miterlimit: 3; stroke-opacity: 1; paint-order: fill markers;" d="m -1110.9899,-324.98085 v -16.98509 z" id="path766" class="PlXnjgeR_13"></path><path style="fill: none; fill-opacity: 1; stroke: rgb(0, 0, 0); stroke-width: 0.4px; stroke-linecap: round; stroke-linejoin: round; stroke-miterlimit: 3; stroke-opacity: 1; paint-order: fill markers;" id="circle766" d="M-1121.0288229,-341.75775A5.0000229,5.0000229 0,1,1 -1111.0287771,-341.75775A5.0000229,5.0000229 0,1,1 -1121.0288229,-341.75775" class="PlXnjgeR_14"></path><path style="fill: none; fill-opacity: 1; stroke: rgb(0, 0, 0); stroke-width: 0.4px; stroke-linecap: round; stroke-linejoin: round; stroke-miterlimit: 3; stroke-opacity: 1; paint-order: fill markers;" id="path767" d="m -1095.6145,-402.44442 a 14.790321,14.79012 0 0 1 -4.4753,17.00861" class="PlXnjgeR_15"></path><path style="fill: none; fill-opacity: 1; stroke: rgb(0, 0, 0); stroke-width: 0.4px; stroke-linecap: round; stroke-linejoin: round; stroke-miterlimit: 3; stroke-opacity: 1; paint-order: fill markers;" id="path768" d="m -1110.4141,-382.21407 a 14.790321,14.79012 0 0 1 -12.8297,-9.67346 14.790321,14.79012 0 0 1 3.5649,-15.66729 14.790321,14.79012 0 0 1 15.7521,-3.17013" class="PlXnjgeR_16"></path><path style="fill: none; fill-opacity: 1; stroke: rgb(0, 0, 0); stroke-width: 0.4px; stroke-linecap: round; stroke-linejoin: round; stroke-miterlimit: 3; stroke-opacity: 1; paint-order: fill markers;" d="m -1135.634,-371.79774 27.118,22.94693 z" id="path769" class="PlXnjgeR_17"></path><path style="fill: none; fill-opacity: 1; stroke: rgb(0, 0, 0); stroke-width: 0.4px; stroke-linecap: round; stroke-linejoin: round; stroke-miterlimit: 3; stroke-opacity: 1; paint-order: fill markers;" d="m -1135.634,-373.44875 27.118,22.94697 z" id="path770" class="PlXnjgeR_18"></path><path style="fill: none; fill-opacity: 1; stroke: rgb(0, 0, 0); stroke-width: 0.4px; stroke-linecap: round; stroke-linejoin: round; stroke-miterlimit: 3; stroke-opacity: 1; paint-order: fill markers;" d="m -1135.634,-375.12383 41,34.75055 z" id="path771" class="PlXnjgeR_19"></path><path style="fill: none; fill-opacity: 1; stroke: rgb(0, 0, 0); stroke-width: 0.4px; stroke-linecap: round; stroke-linejoin: round; stroke-miterlimit: 3; stroke-opacity: 1; paint-order: fill markers;" id="circle771" d="M-1110.028851,-403.526A7.231751,7.231751 0,1,1 -1095.565349,-403.526A7.231751,7.231751 0,1,1 -1110.028851,-403.526" class="PlXnjgeR_20"></path><path style="fill: none; fill-opacity: 1; stroke: rgb(0, 0, 0); stroke-width: 0.4px; stroke-linecap: round; stroke-linejoin: round; stroke-miterlimit: 3; stroke-opacity: 1; paint-order: fill markers;" d="m -1078.5721,-381.50776 15.1307,-12.28754" id="path772" class="PlXnjgeR_21"></path><path style="fill: none; fill-opacity: 1; stroke: rgb(0, 0, 0); stroke-width: 0.4px; stroke-linecap: round; stroke-linejoin: round; stroke-miterlimit: 3; stroke-opacity: 1; paint-order: fill markers;" d="m -1098.1295,-367.27267 35.047,-28.46179" id="path773" class="PlXnjgeR_22"></path><path style="fill: none; fill-opacity: 1; stroke: rgb(0, 0, 0); stroke-width: 0.4px; stroke-linecap: round; stroke-linejoin: round; stroke-miterlimit: 3; stroke-opacity: 1; paint-order: fill markers;" id="path774" d="m -1040.9083,-419.2525 a 2.9901795,2.9901824 0 0 1 -0.3468,4.21433 2.9901795,2.9901824 0 0 1 -4.2144,-0.34644 2.9901795,2.9901824 0 0 1 0.3461,-4.21439 2.9901795,2.9901824 0 0 1 4.2144,0.34569" class="PlXnjgeR_23"></path><path style="fill: none; fill-opacity: 1; stroke: rgb(0, 0, 0); stroke-width: 0.4px; stroke-linecap: round; stroke-linejoin: round; stroke-miterlimit: 3; stroke-opacity: 1; paint-order: fill markers;" d="m -1098.6539,-368.52398 35.5714,-28.89006" id="path787" class="PlXnjgeR_24"></path><path style="fill: none; fill-opacity: 1; stroke: rgb(0, 0, 0); stroke-width: 0.4px; stroke-linecap: round; stroke-linejoin: round; stroke-miterlimit: 3; stroke-opacity: 1; paint-order: fill markers;" d="m -1110.0289,-416.64424 v 13.21576" id="path788" class="PlXnjgeR_25"></path><path style="fill: none; fill-opacity: 1; stroke: rgb(0, 0, 0); stroke-width: 0.4px; stroke-linecap: round; stroke-linejoin: round; stroke-miterlimit: 3; stroke-opacity: 1; paint-order: fill markers;" d="m -1100.0899,-385.43581 0.054,2.48773" id="path789" class="PlXnjgeR_26"></path><path style="fill: none; fill-opacity: 1; stroke: rgb(0, 0, 0); stroke-width: 0.4px; stroke-linecap: round; stroke-linejoin: round; stroke-miterlimit: 3; stroke-opacity: 1; paint-order: fill markers;" d="m -1111.6125,-380.28518 c 0.6556,-0.59998 0.9418,-1.26195 1.1982,-1.9289" id="path790" class="PlXnjgeR_27"></path><path style="fill: none; fill-opacity: 1; stroke: rgb(0, 0, 0); stroke-width: 0.4px; stroke-linecap: round; stroke-linejoin: round; stroke-miterlimit: 3; stroke-opacity: 1; paint-order: fill markers;" id="path791" d="m -1113.4928,-378.41756 a 18.986092,18.986092 0 0 1 -14.7148,-16.29807" class="PlXnjgeR_28"></path><path style="fill: none; fill-opacity: 1; stroke: rgb(0, 0, 0); stroke-width: 0.4px; stroke-linecap: round; stroke-linejoin: round; stroke-miterlimit: 3; stroke-opacity: 1; paint-order: fill markers;" d="m -1092.529,-396.95674 v 25.13585" id="path792" class="PlXnjgeR_29"></path><path style="fill: none; fill-opacity: 1; stroke: rgb(0, 0, 0); stroke-width: 0.4px; stroke-linecap: round; stroke-linejoin: round; stroke-miterlimit: 3; stroke-opacity: 1; paint-order: fill markers;" d="m -1128.2076,-394.71562 30.588,-13.85916 -33.8444,36.9854 z" id="path793" class="PlXnjgeR_30"></path><path style="fill: none; fill-opacity: 1; stroke: rgb(0, 0, 0); stroke-width: 0.4px; stroke-linecap: round; stroke-linejoin: round; stroke-miterlimit: 6; stroke-opacity: 1; paint-order: fill markers;" d="m -1092.529,-371.82089 -7.4999,26.68813 13,-11 z" id="path794" class="PlXnjgeR_31"></path><path style="fill: none; fill-opacity: 1; stroke: rgb(0, 0, 0); stroke-width: 0.4px; stroke-linecap: round; stroke-linejoin: round; stroke-miterlimit: 6; stroke-opacity: 1; paint-order: fill markers;" d="m -1108.516,-348.85082 v -3.28194" id="path795" class="PlXnjgeR_32"></path><path style="fill: none; fill-opacity: 1; stroke: rgb(0, 0, 0); stroke-width: 0.401231px; stroke-linecap: round; stroke-linejoin: round; stroke-miterlimit: 3; stroke-opacity: 1; paint-order: fill markers;" id="rect795" width="11.47377" height="37.564293" transform="matrix(0.96289577,-0.26987354,0.16184638,0.98681597,0,0)" d="M -1007.4825149999999,-642.60596 L -1007.482515,-642.60596 A 5.736885,7,0,0,1,-1001.74563,-635.60596 L -1001.74563,-612.041667 A 5.736885,7,0,0,1,-1007.482515,-605.041667 L -1007.4825149999999,-605.041667 A 5.736885,7,0,0,1,-1013.2194,-612.041667 L -1013.2194,-635.60596 A 5.736885,7,0,0,1,-1007.4825149999999,-642.60596" class="PlXnjgeR_33"></path><path style="fill: none; fill-opacity: 1; stroke: rgb(0, 0, 0); stroke-width: 0.4px; stroke-linecap: round; stroke-linejoin: round; stroke-miterlimit: 6; stroke-opacity: 1; paint-order: fill markers;" id="path796" d="m -1063.0767,-397.33695 a 15.999976,16.000086 0 0 1 -12.8185,-4.13654 15.999976,16.000086 0 0 1 -5.1176,-12.4595" class="PlXnjgeR_34"></path><path style="fill: none; fill-opacity: 1; stroke: rgb(0, 0, 0); stroke-width: 0.4px; stroke-linecap: round; stroke-linejoin: round; stroke-miterlimit: 6; stroke-opacity: 1; paint-order: fill markers;" d="m -1040.0289,-363.13276 -8.4081,-16.44402" id="path797" class="PlXnjgeR_35"></path><path style="fill: none; fill-opacity: 1; stroke: rgb(0, 0, 0); stroke-width: 0.4px; stroke-linecap: round; stroke-linejoin: round; stroke-miterlimit: 6; stroke-opacity: 1; paint-order: fill markers;" id="rect797" width="4.1347632" height="18.000002" transform="rotate(38.976317)" d="M -1101.4139,416.27313 L -1101.2791368,416.27313 A 2,2,0,0,1,-1099.2791368,418.27313 L -1099.2791368,432.273132 A 2,2,0,0,1,-1101.2791368,434.273132 L -1101.4139,434.273132 A 2,2,0,0,1,-1103.4139,432.273132 L -1103.4139,418.27313 A 2,2,0,0,1,-1101.4139,416.27313" class="PlXnjgeR_36"></path><path style="fill: none; fill-opacity: 1; stroke: rgb(0, 0, 0); stroke-width: 0.4px; stroke-linecap: round; stroke-linejoin: round; stroke-miterlimit: 6; stroke-opacity: 1; paint-order: fill markers;" d="m -1112.0289,-420.33037 3.9999,-10e-6 -1.9999,3.92983 z" id="path798" class="PlXnjgeR_37"></path><path style="fill: none; fill-opacity: 1; stroke: rgb(0, 0, 0); stroke-width: 0.4px; stroke-linecap: round; stroke-linejoin: round; stroke-miterlimit: 6; stroke-opacity: 1; paint-order: fill markers;" id="path799" d="m -1062.963,-397.39583 a 15.999976,16.000086 0 0 1 -15.0488,-16.58735" class="PlXnjgeR_38"></path><path style="fill: none; fill-opacity: 1; stroke: rgb(0, 0, 0); stroke-width: 0.4px; stroke-linecap: round; stroke-linejoin: round; stroke-miterlimit: 3; stroke-opacity: 1; paint-order: fill markers;" id="path800" d="m 366.90027,-1050.5268 a 10.56544,10.500022 0 0 1 11.93075,-0.05" transform="rotate(-90)" class="PlXnjgeR_39"></path><path style="fill: none; fill-opacity: 1; stroke: rgb(0, 0, 0); stroke-width: 0.4px; stroke-linecap: round; stroke-linejoin: round; stroke-miterlimit: 6; stroke-opacity: 1; paint-order: fill markers;" id="path801" d="m -1080.0564,-398.76072 a 7.5005717,7.5010223 0 0 1 1.6835,9.07398 7.5005717,7.5010223 0 0 1 -8.3918,3.83923 7.5005717,7.5010223 0 0 1 -5.7641,-7.20714" class="PlXnjgeR_40"></path></g><style data-made-with="vivus-instant">.PlXnjgeR_0{stroke-dasharray:94 96;stroke-dashoffset:95;animation:PlXnjgeR_draw 2500ms ease 0ms forwards;}.PlXnjgeR_1{stroke-dasharray:94 96;stroke-dashoffset:95;animation:PlXnjgeR_draw 2500ms ease 12ms forwards;}.PlXnjgeR_2{stroke-dasharray:72 74;stroke-dashoffset:73;animation:PlXnjgeR_draw 2500ms ease 25ms forwards;}.PlXnjgeR_3{stroke-dasharray:86 88;stroke-dashoffset:87;animation:PlXnjgeR_draw 2500ms ease 37ms forwards;}.PlXnjgeR_4{stroke-dasharray:55 57;stroke-dashoffset:56;animation:PlXnjgeR_draw 2500ms ease 50ms forwards;}.PlXnjgeR_5{stroke-dasharray:81 83;stroke-dashoffset:82;animation:PlXnjgeR_draw 2500ms ease 62ms forwards;}.PlXnjgeR_6{stroke-dasharray:66 68;stroke-dashoffset:67;animation:PlXnjgeR_draw 2500ms ease 75ms forwards;}.PlXnjgeR_7{stroke-dasharray:46 48;stroke-dashoffset:47;animation:PlXnjgeR_draw 2500ms ease 87ms forwards;}.PlXnjgeR_8{stroke-dasharray:94 96;stroke-dashoffset:95;animation:PlXnjgeR_draw 2500ms ease 100ms forwards;}.PlXnjgeR_9{stroke-dasharray:6 8;stroke-dashoffset:7;animation:PlXnjgeR_draw 2500ms ease 112ms forwards;}.PlXnjgeR_10{stroke-dasharray:88 90;stroke-dashoffset:89;animation:PlXnjgeR_draw 2500ms ease 125ms forwards;}.PlXnjgeR_11{stroke-dasharray:48 50;stroke-dashoffset:49;animation:PlXnjgeR_draw 2500ms ease 137ms forwards;}.PlXnjgeR_12{stroke-dasharray:34 36;stroke-dashoffset:35;animation:PlXnjgeR_draw 2500ms ease 150ms forwards;}.PlXnjgeR_13{stroke-dasharray:34 36;stroke-dashoffset:35;animation:PlXnjgeR_draw 2500ms ease 162ms forwards;}.PlXnjgeR_14{stroke-dasharray:32 34;stroke-dashoffset:33;animation:PlXnjgeR_draw 2500ms ease 175ms forwards;}.PlXnjgeR_15{stroke-dasharray:19 21;stroke-dashoffset:20;animation:PlXnjgeR_draw 2500ms ease 187ms forwards;}.PlXnjgeR_16{stroke-dasharray:51 53;stroke-dashoffset:52;animation:PlXnjgeR_draw 2500ms ease 200ms forwards;}.PlXnjgeR_17{stroke-dasharray:72 74;stroke-dashoffset:73;animation:PlXnjgeR_draw 2500ms ease 212ms forwards;}.PlXnjgeR_18{stroke-dasharray:72 74;stroke-dashoffset:73;animation:PlXnjgeR_draw 2500ms ease 225ms forwards;}.PlXnjgeR_19{stroke-dasharray:108 110;stroke-dashoffset:109;animation:PlXnjgeR_draw 2500ms ease 237ms forwards;}.PlXnjgeR_20{stroke-dasharray:46 48;stroke-dashoffset:47;animation:PlXnjgeR_draw 2500ms ease 250ms forwards;}.PlXnjgeR_21{stroke-dasharray:20 22;stroke-dashoffset:21;animation:PlXnjgeR_draw 2500ms ease 262ms forwards;}.PlXnjgeR_22{stroke-dasharray:46 48;stroke-dashoffset:47;animation:PlXnjgeR_draw 2500ms ease 275ms forwards;}.PlXnjgeR_23{stroke-dasharray:19 21;stroke-dashoffset:20;animation:PlXnjgeR_draw 2500ms ease 287ms forwards;}.PlXnjgeR_24{stroke-dasharray:46 48;stroke-dashoffset:47;animation:PlXnjgeR_draw 2500ms ease 300ms forwards;}.PlXnjgeR_25{stroke-dasharray:14 16;stroke-dashoffset:15;animation:PlXnjgeR_draw 2500ms ease 312ms forwards;}.PlXnjgeR_26{stroke-dasharray:3 5;stroke-dashoffset:4;animation:PlXnjgeR_draw 2500ms ease 325ms forwards;}.PlXnjgeR_27{stroke-dasharray:3 5;stroke-dashoffset:4;animation:PlXnjgeR_draw 2500ms ease 337ms forwards;}.PlXnjgeR_28{stroke-dasharray:24 26;stroke-dashoffset:25;animation:PlXnjgeR_draw 2500ms ease 350ms forwards;}.PlXnjgeR_29{stroke-dasharray:26 28;stroke-dashoffset:27;animation:PlXnjgeR_draw 2500ms ease 362ms forwards;}.PlXnjgeR_30{stroke-dasharray:108 110;stroke-dashoffset:109;animation:PlXnjgeR_draw 2500ms ease 375ms forwards;}.PlXnjgeR_31{stroke-dasharray:62 64;stroke-dashoffset:63;animation:PlXnjgeR_draw 2500ms ease 387ms forwards;}.PlXnjgeR_32{stroke-dasharray:4 6;stroke-dashoffset:5;animation:PlXnjgeR_draw 2500ms ease 400ms forwards;}.PlXnjgeR_33{stroke-dasharray:88 90;stroke-dashoffset:89;animation:PlXnjgeR_draw 2500ms ease 412ms forwards;}.PlXnjgeR_34{stroke-dasharray:28 30;stroke-dashoffset:29;animation:PlXnjgeR_draw 2500ms ease 425ms forwards;}.PlXnjgeR_35{stroke-dasharray:19 21;stroke-dashoffset:20;animation:PlXnjgeR_draw 2500ms ease 437ms forwards;}.PlXnjgeR_36{stroke-dasharray:41 43;stroke-dashoffset:42;animation:PlXnjgeR_draw 2500ms ease 450ms forwards;}.PlXnjgeR_37{stroke-dasharray:13 15;stroke-dashoffset:14;animation:PlXnjgeR_draw 2500ms ease 462ms forwards;}.PlXnjgeR_38{stroke-dasharray:25 27;stroke-dashoffset:26;animation:PlXnjgeR_draw 2500ms ease 475ms forwards;}.PlXnjgeR_39{stroke-dasharray:13 15;stroke-dashoffset:14;animation:PlXnjgeR_draw 2500ms ease 487ms forwards;}.PlXnjgeR_40{stroke-dasharray:30 32;stroke-dashoffset:31;animation:PlXnjgeR_draw 2500ms ease 500ms forwards;}@keyframes PlXnjgeR_draw{100%{stroke-dashoffset:0;}}@keyframes PlXnjgeR_fade{0%{stroke-opacity:1;}94.44444444444444%{stroke-opacity:1;}100%{stroke-opacity:0;}}</style></svg>
